PretendardGOV.glyphspackage
{
color = (204,240,242,1);
glyphname = plus;
kernLeft = hyphen;
kernRight = hyphen;
layers = (
{
anchors = (
{
name = _symbol;
pos = (976,832);
}
);
guides = (
{
orientation = center;
pos = (260,832);
}
);
layerId = "5C20EF92-B63D-42A8-8878-93C2863E0093";
shapes = (
{
closed = 1;
nodes = (
(1200,92,l),
(1200,1572,l),
(752,1572,l),
(752,92,l)
);
},
{
closed = 1;
nodes = (
(1716,608,l),
(1716,1056,l),
(236,1056,l),
(236,608,l)
);
}
);
width = 1952;
},
{
anchors = (
{
name = _symbol;
pos = (864,800);
}
);
guides = (
{
pos = (132,1384);
}
);
layerId = "B1F27B51-9973-4381-9301-4FE46FE1CA59";
shapes = (
{
closed = 1;
nodes = (
(896,220,l),
(896,1380,l),
(832,1380,l),
(832,220,l)
);
},
{
closed = 1;
nodes = (
(1444,768,l),
(1444,832,l),
(284,832,l),
(284,768,l)
);
}
);
width = 1728;
},
{
anchors = (
{
name = _symbol;
pos = (908,800);
}
);
layerId = "CD0E3B44-F66A-4791-B84C-A1128DC61275";
shapes = (
{
closed = 1;
nodes = (
(1022,138,l),
(1022,1462,l),
(792,1462,l),
(792,138,l)
);
},
{
closed = 1;
nodes = (
(1570,686,l),
(1570,916,l),
(246,916,l),
(246,686,l)
);
}
);
width = 1816;
}
);
unicode = 43;
userData = {
com.typemytype.robofont.guideline.magnetic.vWa5hxe2x0 = 5;
"interface.width-adjustments" = (
-16
);
};
}
{
color = (227,245,235,1);
glyphname = zero;
kernLeft = six;
kernRight = nine;
layers = (
{
anchors = (
{
name = _symbol;
pos = (1028,1024);
}
);
guides = (
{
pos = (-112,1240);
},
{
pos = (-112,764);
}
);
layerId = "5C20EF92-B63D-42A8-8878-93C2863E0093";
shapes = (
{
closed = 1;
nodes = (
(1585,-28,o),
(1932,349,o),
(1932,1024,cs),
(1932,1695,o),
(1585,2076,o),
(1028,2076,cs),
(470,2076,o),
(124,1697,o),
(124,1024,cs),
(124,352,o),
(470,-28,o),
(1028,-28,cs)
);
},
{
closed = 1;
nodes = (
(836,419,o),
(698,595,o),
(700,1024,cs),
(702,1443,o),
(836,1629,o),
(1028,1630,cs),
(1220,1629,o),
(1355,1443,o),
(1356,1024,cs),
(1357,595,o),
(1220,419,o),
(1028,418,cs)
);
}
);
width = 2056;
},
{
anchors = (
{
name = _symbol;
pos = (976,1010);
}
);
associatedMasterId = "5C20EF92-B63D-42A8-8878-93C2863E0093";
guides = (
{
pos = (-16,1240);
},
{
pos = (-16,764);
}
);
layerId = "32BD53DC-98C5-430D-AABA-AC4F13E7ED90";
name = "Nov 23 18, 15:46";
shapes = (
{
closed = 1;
nodes = (
(1533,-57,o),
(1831,304,o),
(1832,1016,cs),
(1831,1724,o),
(1533,2076,o),
(976,2076,cs),
(418,2076,o),
(120,1722,o),
(120,1012,cs),
(118,303,o),
(418,-55,o),
(976,-56,cs)
);
},
{
closed = 1;
nodes = (
(745,392,o),
(642,591,o),
(644,1012,cs),
(644,1433,o),
(747,1632,o),
(976,1632,cs),
(1201,1632,o),
(1305,1433,o),
(1308,1012,cs),
(1309,591,o),
(1206,392,o),
(976,392,cs)
);
}
);
width = 1952;
},
{
anchors = (
{
name = _symbol;
pos = (800,1024);
}
);
guides = (
{
pos = (712,2628);
},
{
pos = (712,588);
}
);
layerId = "B1F27B51-9973-4381-9301-4FE46FE1CA59";
shapes = (
{
closed = 1;
nodes = (
(1190,-28,o),
(1428,372,o),
(1428,1024,cs),
(1428,1676,o),
(1190,2076,o),
(800,2076,cs),
(410,2076,o),
(172,1676,o),
(172,1024,cs),
(172,372,o),
(410,-28,o),
(800,-28,cs)
);
},
{
closed = 1;
nodes = (
(451,36,o),
(236,408,o),
(236,1024,cs),
(236,1640,o),
(451,2012,o),
(800,2012,cs),
(1149,2012,o),
(1364,1640,o),
(1364,1024,cs),
(1364,408,o),
(1149,36,o),
(800,36,cs)
);
}
);
width = 1600;
},
{
anchors = (
{
name = _symbol;
pos = (792,1024);
}
);
associatedMasterId = "B1F27B51-9973-4381-9301-4FE46FE1CA59";
background = {
shapes = (
{
closed = 1;
nodes = (
(1180,-11,o),
(1389,363,o),
(1388,1028,cs),
(1387,1684,o),
(1174,2076,o),
(792,2076,cs),
(409,2076,o),
(193,1683,o),
(196,1028,cs),
(196,361,o),
(403,-12,o),
(792,-12,cs)
);
},
{
closed = 1;
nodes = (
(430,70,o),
(234,432,o),
(232,1028,cs),
(232,1625,o),
(433,1999,o),
(792,2000,cs),
(1150,1999,o),
(1350,1625,o),
(1352,1028,cs),
(1349,432,o),
(1153,70,o),
(792,72,cs)
);
}
);
};
guides = (
{
pos = (808,2044);
},
{
pos = (808,4);
}
);
layerId = "7AF2C568-77BF-4FF1-9E55-589BC7C6D392";
name = "Dec 25 18, 17:03";
shapes = (
{
closed = 1;
nodes = (
(1162,4,o),
(1388,390,o),
(1388,1024,cs),
(1388,1658,o),
(1162,2044,o),
(792,2044,cs),
(422,2044,o),
(196,1658,o),
(196,1024,cs),
(196,390,o),
(422,4,o),
(792,4,cs)
);
}
);
width = 1584;
},
{
anchors = (
{
name = _symbol;
pos = (800,1024);
}
);
associatedMasterId = "B1F27B51-9973-4381-9301-4FE46FE1CA59";
guides = (
{
pos = (712,2628);
},
{
pos = (712,588);
}
);
layerId = "CD249084-C188-4BEE-BB04-B1335F021CC3";
name = "May 22, 21 14:05";
shapes = (
{
closed = 1;
nodes = (
(1190,-28,o),
(1428,372,o),
(1428,1024,cs),
(1428,1676,o),
(1190,2076,o),
(800,2076,cs),
(410,2076,o),
(172,1676,o),
(172,1024,cs),
(172,372,o),
(410,-28,o),
(800,-28,cs)
);
},
{
closed = 1;
nodes = (
(451,36,o),
(236,408,o),
(236,1024,cs),
(236,1640,o),
(451,2012,o),
(800,2012,cs),
(1149,2012,o),
(1364,1640,o),
(1364,1024,cs),
(1364,408,o),
(1149,36,o),
(800,36,cs)
);
}
);
width = 1600;
},
{
anchors = (
{
name = _symbol;
pos = (862,1024);
}
);
layerId = "CD0E3B44-F66A-4791-B84C-A1128DC61275";
shapes = (
{
closed = 1;
nodes = (
(1316,-28,o),
(1578,354,o),
(1578,1024,cs),
(1578,1688,o),
(1312,2076,o),
(862,2076,cs),
(412,2076,o),
(146,1688,o),
(146,1024,cs),
(146,354,o),
(408,-28,o),
(862,-28,cs)
);
},
{
closed = 1;
nodes = (
(566,198,o),
(394,494,o),
(394,1024,cs),
(394,1554,o),
(568,1854,o),
(862,1854,cs),
(1156,1854,o),
(1330,1554,o),
(1330,1024,cs),
(1330,494,o),
(1158,198,o),
(862,198,cs)
);
}
);
width = 1724;
},
{
anchors = (
{
name = _symbol;
pos = (1028,1010);
}
);
associatedMasterId = "5C20EF92-B63D-42A8-8878-93C2863E0093";
guides = (
{
pos = (-112,1240);
},
{
pos = (-112,764);
}
);
layerId = "ACBC7BDA-A2A7-4E0F-B57A-A6573FBE9A70";
name = "Oct 4, 21 23:20";
shapes = (
{
closed = 1;
nodes = (
(1585,-57,o),
(1931,342,o),
(1932,1020,cs),
(1933,1694,o),
(1585,2076,o),
(1028,2076,cs),
(470,2076,o),
(126,1696,o),
(124,1020,cs),
(122,345,o),
(470,-55,o),
(1028,-56,cs)
);
},
{
closed = 1;
nodes = (
(836,396,o),
(698,589,o),
(700,1020,cs),
(702,1441,o),
(836,1628,o),
(1028,1628,cs),
(1220,1628,o),
(1355,1441,o),
(1356,1020,cs),
(1357,589,o),
(1220,396,o),
(1028,396,cs)
);
}
);
width = 2056;
}
);
metricLeft = O;
metricRight = O;
unicode = 48;
}
{
color = (227,245,235,1);
glyphname = two;
kernLeft = two;
kernRight = two;
layers = (
{
anchors = (
{
name = _symbol;
pos = (910,1024);
},
{
name = cross;
pos = (1232,1124);
}
);
guides = (
{
pos = (-164,2280);
},
{
pos = (-164,764);
}
);
layerId = "5C20EF92-B63D-42A8-8878-93C2863E0093";
shapes = (
{
closed = 1;
nodes = (
(1708,0,l),
(1708,444,l),
(908,444,l),
(908,456,l),
(1100,616,ls),
(1567,1005,o),
(1686,1207,o),
(1686,1444,cs),
(1686,1826,o),
(1373,2076,o),
(882,2076,cs),
(405,2076,o),
(95,1811,o),
(96,1380,c),
(624,1380,l),
(623,1552,o),
(728,1648,o),
(882,1648,cs),
(1035,1648,o),
(1144,1553,o),
(1144,1396,cs),
(1144,1251,o),
(1051,1157,o),
(900,1032,cs),
(136,400,l),
(136,0,l)
);
}
);
width = 1820;
},
{
anchors = (
{
name = _symbol;
pos = (860,1024);
},
{
name = cross;
pos = (1114,1024);
}
);
layerId = "B1F27B51-9973-4381-9301-4FE46FE1CA59";
shapes = (
{
closed = 1;
nodes = (
(1500,0,l),
(1500,64,l),
(330,64,l),
(330,72,l),
(952,788,ls),
(1276,1161,o),
(1376,1321,o),
(1376,1548,cs),
(1376,1852,o),
(1141,2076,o),
(826,2076,cs),
(497,2076,o),
(266,1833,o),
(266,1536,c),
(330,1536,l),
(330,1797,o),
(532,2012,o),
(826,2012,cs),
(1106,2012,o),
(1312,1816,o),
(1312,1548,cs),
(1312,1344,o),
(1222,1192,o),
(904,828,cs),
(228,52,l),
(228,0,l)
);
}
);
width = 1720;
},
{
anchors = (
{
name = _symbol;
pos = (805,1038);
},
{
name = cross;
pos = (1108,1016);
}
);
associatedMasterId = "B1F27B51-9973-4381-9301-4FE46FE1CA59";
background = {
shapes = (
{
closed = 1;
nodes = (
(1504,0,l),
(1504,220,l),
(552,220,l),
(552,236,l),
(1012,728,ls),
(1364,1105,o),
(1468,1281,o),
(1468,1508,cs),
(1468,1824,o),
(1212,2076,o),
(852,2076,cs),
(493,2076,o),
(220,1832,o),
(220,1472,c),
(456,1472,l),
(456,1705,o),
(607,1860,o),
(844,1860,cs),
(1066,1860,o),
(1236,1724,o),
(1236,1508,cs),
(1236,1319,o),
(1125,1179,o),
(888,920,cs),
(212,180,l),
(212,0,l)
);
}
);
};
layerId = "B7995463-B533-426C-8A81-27353796E349";
name = "Dec 25 18, 17:25";
shapes = (
{
closed = 0;
nodes = (
(336,1508,l),
(337,1827,o),
(549,2043,o),
(848,2044,c),
(1138,2043,o),
(1351,1833,o),
(1352,1548,c),
(1351,1320,o),
(1243,1149,o),
(948,808,c),
(292,32,l),
(1504,32,l)
);
}
);
width = 1610;
},
{
anchors = (
{
name = _symbol;
pos = (842,1038);
},
{
name = cross;
pos = (1088,1024);
}
);
associatedMasterId = "B1F27B51-9973-4381-9301-4FE46FE1CA59";
layerId = "09F4239F-997C-4668-93ED-87B1F7B3FF46";
name = "May 22, 21 14:06";
shapes = (
{
closed = 1;
nodes = (
(1464,0,l),
(1464,64,l),
(328,64,l),
(328,72,l),
(932,788,ls),
(1247,1161,o),
(1344,1321,o),
(1344,1548,cs),
(1344,1852,o),
(1116,2076,o),
(808,2076,cs),
(488,2076,o),
(264,1833,o),
(264,1536,c),
(328,1536,l),
(328,1797,o),
(524,2012,o),
(808,2012,cs),
(1080,2012,o),
(1280,1816,o),
(1280,1548,cs),
(1280,1344,o),
(1192,1192,o),
(884,828,cs),
(228,52,l),
(228,0,l)
);
}
);
width = 1684;
},
{
anchors = (
{
name = _symbol;
pos = (850,1024);
},
{
name = cross;
pos = (1162,1058);
}
);
layerId = "CD0E3B44-F66A-4791-B84C-A1128DC61275";
shapes = (
{
closed = 1;
nodes = (
(1522,0,l),
(1522,226,l),
(546,226,l),
(546,242,l),
(1014,726,ls),
(1378,1100,o),
(1484,1278,o),
(1486,1506,cs),
(1484,1826,o),
(1220,2076,o),
(848,2076,cs),
(478,2076,o),
(198,1832,o),
(200,1470,c),
(442,1470,l),
(442,1700,o),
(596,1854,o),
(840,1854,cs),
(1070,1854,o),
(1246,1718,o),
(1248,1506,cs),
(1246,1318,o),
(1130,1180,o),
(888,922,cs),
(190,186,l),
(192,0,l)
);
}
);
width = 1700;
}
);
unicode = 50;
}
{
color = (227,245,235,1);
glyphname = six;
kernLeft = six;
layers = (
{
anchors = (
{
name = _symbol;
pos = (964,1024);
}
);
background = {
shapes = (
{
pos = (44,0);
ref = five;
}
);
};
guides = (
{
orientation = center;
pos = (1348,1368);
},
{
angle = 90;
pos = (1492,1316);
},
{
angle = 90;
pos = (-32,1316);
},
{
pos = (168,1436);
},
{
angle = 90;
pos = (848,576);
}
);
layerId = "5C20EF92-B63D-42A8-8878-93C2863E0093";
shapes = (
{
closed = 1;
nodes = (
(1476,-28,o),
(1814,263,o),
(1812,704,cs),
(1814,1079,o),
(1563,1352,o),
(1192,1352,cs),
(958,1352,o),
(746,1240,o),
(668,1052,c),
(656,1052,l),
(658,1383,o),
(762,1604,o),
(996,1604,cs),
(1113,1604,o),
(1215,1552,o),
(1240,1436,c),
(1788,1436,l),
(1753,1786,o),
(1448,2076,o),
(996,2076,cs),
(459,2076,o),
(106,1664,o),
(104,1000,cs),
(102,256,o),
(514,-28,o),
(992,-28,cs)
);
},
{
closed = 1;
nodes = (
(826,392,o),
(706,515,o),
(704,684,cs),
(706,853,o),
(826,976,o),
(988,976,cs),
(1154,976,o),
(1274,853,o),
(1272,684,cs),
(1274,515,o),
(1154,392,o),
(988,392,cs)
);
}
);
width = 1928;
},
{
anchors = (
{
name = _symbol;
pos = (816,1024);
}
);
layerId = "B1F27B51-9973-4381-9301-4FE46FE1CA59";
shapes = (
{
closed = 1;
nodes = (
(1191,-28,o),
(1435,271,o),
(1436,612,cs),
(1435,977,o),
(1157,1252,o),
(820,1252,cs),
(572,1252,o),
(340,1105,o),
(272,900,c),
(260,900,l),
(259,1618,o),
(459,2012,o),
(854,2012,cs),
(1137,2012,o),
(1313,1816,o),
(1334,1536,c),
(1398,1536,l),
(1376,1857,o),
(1171,2076,o),
(854,2076,cs),
(338,2076,o),
(196,1480,o),
(196,928,cs),
(196,283,o),
(469,-28,o),
(832,-28,cs)
);
},
{
closed = 1;
nodes = (
(566,36,o),
(364,225,o),
(292,584,cs),
(230,905,o),
(485,1188,o),
(816,1188,cs),
(1127,1188,o),
(1372,935,o),
(1372,612,cs),
(1372,297,o),
(1145,36,o),
(832,36,cs)
);
}
);
width = 1632;
},
{
anchors = (
{
name = _symbol;
pos = (826,1026);
}
);
associatedMasterId = "B1F27B51-9973-4381-9301-4FE46FE1CA59";
background = {
shapes = (
{
closed = 1;
nodes = (
(1131,1024,o),
(1384,1253,o),
(1384,1536,cs),
(1384,1819,o),
(1131,2048,o),
(820,2048,cs),
(509,2048,o),
(256,1819,o),
(256,1536,cs),
(256,1253,o),
(509,1024,o),
(820,1024,cs)
);
},
{
closed = 1;
nodes = (
(1129,4,o),
(1380,276,o),
(1380,612,cs),
(1380,948,o),
(1129,1220,o),
(820,1220,cs),
(511,1220,o),
(260,948,o),
(260,612,cs),
(260,276,o),
(511,4,o),
(820,4,cs)
);
}
);
};
layerId = "9E406D40-9CB5-4845-B6DF-1B5201BAD6B0";
name = "Dec 27 18, 12:24";
shapes = (
{
closed = 0;
nodes = (
(260,612,l),
(260,949,o),
(512,1220,o),
(820,1220,cs),
(1128,1220,o),
(1380,948,o),
(1380,612,cs),
(1380,276,o),
(1130,4,o),
(836,4,cs),
(538,4,o),
(260,250,o),
(260,928,cs),
(260,1823,o),
(553,2048,o),
(864,2048,cs),
(1176,2048,o),
(1384,1820,o),
(1384,1536,c)
);
}
);
width = 1652;
},
{
anchors = (
{
name = _symbol;
pos = (826,1026);
}
);
associatedMasterId = "B1F27B51-9973-4381-9301-4FE46FE1CA59";
layerId = "0A5B7C9A-23F7-43E2-98D1-18F90204FF01";
name = "Dec 27 18, 12:33";
shapes = (
{
closed = 1;
nodes = (
(1357,1855,o),
(1161,2080,o),
(856,2080,cs),
(358,2080,o),
(228,1480,o),
(228,928,cs),
(228,283,o),
(487,-28,o),
(836,-28,cs),
(1178,-28,o),
(1412,271,o),
(1412,612,cs),
(1412,974,o),
(1149,1252,o),
(820,1252,cs),
(472,1252,o),
(213,940,o),
(260,572,c),
(324,572,l),
(277,905,o),
(507,1188,o),
(820,1188,cs),
(1116,1188,o),
(1348,937,o),
(1348,612,cs),
(1348,296,o),
(1132,36,o),
(836,36,cs),
(506,36,o),
(292,350,o),
(292,928,cs),
(292,1410,o),
(391,2016,o),
(856,2016,cs),
(1123,2016,o),
(1293,1817,o),
(1312,1536,c),
(1376,1536,l)
);
},
{
closed = 1;
nodes = (
(276,852,l),
(316,852,l),
(316,896,l),
(276,896,l)
);
}
);
width = 1652;
},
{
anchors = (
{
name = _symbol;
pos = (788,1024);
}
);
associatedMasterId = "B1F27B51-9973-4381-9301-4FE46FE1CA59";
layerId = "CE447FD8-223A-4B59-991B-B6EDB21FCE68";
name = "May 22, 21 14:07";
shapes = (
{
closed = 1;
nodes = (
(1148,-28,o),
(1380,272,o),
(1380,612,cs),
(1380,976,o),
(1114,1252,o),
(792,1252,cs),
(555,1252,o),
(333,1104,o),
(268,900,c),
(260,900,l),
(260,1618,o),
(450,2012,o),
(824,2012,cs),
(1093,2012,o),
(1260,1817,o),
(1280,1536,c),
(1344,1536,l),
(1324,1856,o),
(1128,2076,o),
(824,2076,cs),
(331,2076,o),
(196,1480,o),
(196,928,cs),
(196,284,o),
(456,-28,o),
(804,-28,cs)
);
},
{
closed = 1;
nodes = (
(551,36,o),
(360,224,o),
(292,584,cs),
(232,905,o),
(475,1188,o),
(788,1188,cs),
(1084,1188,o),
(1316,936,o),
(1316,612,cs),
(1316,296,o),
(1100,36,o),
(804,36,cs)
);
}
);
width = 1576;
},
{
anchors = (
{
name = _symbol;
pos = (888,1023.961);
}
);
layerId = "CD0E3B44-F66A-4791-B84C-A1128DC61275";
shapes = (
{
closed = 1;
nodes = (
(1336,-32,o),
(1618,276,o),
(1618,662,cs),
(1618,1058,o),
(1314,1340,o),
(950,1340,cs),
(730,1340,o),
(542,1240,o),
(424,1068,c),
(398,1068,l),
(398,1562,o),
(600,1850,o),
(936,1850,cs),
(1164,1850,o),
(1302,1714,o),
(1348,1534,c),
(1600,1534,l),
(1548,1854,o),
(1296,2076,o),
(936,2076,cs),
(456,2076,o),
(158,1670,o),
(158,946,cs),
(158,186,o),
(550,-24,o),
(904,-28,cs)
);
},
{
closed = 1;
nodes = (
(630,196,o),
(434,416,o),
(434,656,cs),
(436,898,o),
(642,1116,o),
(912,1116,cs),
(1178,1116,o),
(1370,910,o),
(1372,660,cs),
(1370,404,o),
(1170,196,o),
(904,196,cs)
);
}
);
width = 1776;
}
);
unicode = 54;
}
{
color = (227,245,235,1);
glyphname = seven;
kernRight = seven;
layers = (
{
background = {
shapes = (
{
closed = 1;
nodes = (
(492,0,l),
(1404,1816,l),
(1404,2048,l),
(92,2048,l),
(92,1828,l),
(1148,1828,l),
(1148,1812,l),
(232,0,l)
);
}
);
};
layerId = "5C20EF92-B63D-42A8-8878-93C2863E0093";
shapes = (
{
closed = 1;
nodes = (
(800,0,l),
(1608,1604,l),
(1608,2048,l),
(88,2048,l),
(88,1604,l),
(1032,1604,l),
(1032,1592,l),
(228,0,l)
);
}
);
width = 1720;
},
{
layerId = "B1F27B51-9973-4381-9301-4FE46FE1CA59";
shapes = (
{
closed = 1;
nodes = (
(352,0,l),
(1354,1984,l),
(1354,2048,l),
(132,2048,l),
(132,1984,l),
(1278,1984,l),
(1276,1976,l),
(280,0,l)
);
}
);
width = 1512;
},
{
associatedMasterId = "B1F27B51-9973-4381-9301-4FE46FE1CA59";
layerId = "87F61EEB-22E2-4331-999A-09FF934BB4D3";
name = "May 22, 21 14:07";
shapes = (
{
closed = 1;
nodes = (
(348,0,l),
(1320,1984,l),
(1320,2048,l),
(132,2048,l),
(132,1984,l),
(1244,1984,l),
(1244,1976,l),
(276,0,l)
);
}
);
width = 1478;
},
{
layerId = "CD0E3B44-F66A-4791-B84C-A1128DC61275";
shapes = (
{
closed = 1;
nodes = (
(524,0,l),
(1460,1810,l),
(1460,2048,l),
(114,2048,l),
(114,1822,l),
(1196,1822,l),
(1196,1806,l),
(256,0,l)
);
}
);
width = 1598;
}
);
unicode = 55;
}
{
color = (227,245,235,1);
glyphname = nine;
kernRight = nine;
layers = (
{
anchors = (
{
name = _symbol;
pos = (964,1024);
}
);
guides = (
{
pos = (-136,764);
},
{
pos = (-136,1240);
}
);
layerId = "5C20EF92-B63D-42A8-8878-93C2863E0093";
shapes = (
{
closed = 1;
nodes = (
(450,2076,o),
(114,1784,o),
(116,1348,cs),
(118,976,o),
(366,704,o),
(736,704,cs),
(970,704,o),
(1182,816,o),
(1260,1004,c),
(1272,1004,l),
(1270,664,o),
(1166,444,o),
(932,444,cs),
(814,444,o),
(714,496,o),
(688,620,c),
(140,620,l),
(174,260,o),
(478,-28,o),
(932,-28,cs),
(1470,-28,o),
(1826,384,o),
(1824,1056,cs),
(1822,1792,o),
(1414,2076,o),
(936,2076,cs)
);
},
{
closed = 1;
nodes = (
(1102,1656,o),
(1222,1532,o),
(1224,1368,cs),
(1226,1204,o),
(1102,1080,o),
(940,1080,cs),
(774,1080,o),
(658,1204,o),
(656,1368,cs),
(654,1532,o),
(774,1656,o),
(940,1656,cs)
);
}
);
width = 1928;
},
{
anchors = (
{
name = _symbol;
pos = (816,1024);
}
);
layerId = "B1F27B51-9973-4381-9301-4FE46FE1CA59";
shapes = (
{
closed = 1;
nodes = (
(439,2076,o),
(196,1781,o),
(196,1440,cs),
(196,1075,o),
(472,800,o),
(812,800,cs),
(1058,800,o),
(1292,947,o),
(1360,1152,c),
(1372,1152,l),
(1372,432,o),
(1170,36,o),
(778,36,cs),
(494,36,o),
(318,237,o),
(296,516,c),
(232,516,l),
(253,195,o),
(459,-28,o),
(778,-28,cs),
(1296,-28,o),
(1435,572,o),
(1436,1124,cs),
(1435,1769,o),
(1163,2076,o),
(798,2076,cs)
);
},
{
closed = 1;
nodes = (
(1064,2012,o),
(1267,1827,o),
(1338,1468,cs),
(1401,1148,o),
(1145,864,o),
(816,864,cs),
(504,864,o),
(259,1117,o),
(260,1440,cs),
(259,1755,o),
(487,2012,o),
(798,2012,cs)
);
}
);
width = 1632;
},
{
anchors = (
{
name = _symbol;
pos = (788,1024);
}
);
associatedMasterId = "B1F27B51-9973-4381-9301-4FE46FE1CA59";
layerId = "94E5FB65-BD20-4D3D-9313-D4168C823E7B";
name = "May 22, 21 14:07";
shapes = (
{
closed = 1;
nodes = (
(428,2076,o),
(196,1780,o),
(196,1440,cs),
(196,1076,o),
(460,800,o),
(784,800,cs),
(1020,800,o),
(1244,948,o),
(1308,1152,c),
(1316,1152,l),
(1316,432,o),
(1124,36,o),
(752,36,cs),
(484,36,o),
(316,236,o),
(296,516,c),
(232,516,l),
(252,196,o),
(448,-28,o),
(752,-28,cs),
(1248,-28,o),
(1380,572,o),
(1380,1124,cs),
(1380,1768,o),
(1120,2076,o),
(772,2076,cs)
);
},
{
closed = 1;
nodes = (
(1024,2012,o),
(1216,1828,o),
(1284,1468,cs),
(1344,1148,o),
(1100,864,o),
(788,864,cs),
(492,864,o),
(260,1116,o),
(260,1440,cs),
(260,1756,o),
(476,2012,o),
(772,2012,cs)
);
}
);
width = 1576;
},
{
anchors = (
{
name = _symbol;
pos = (888,1024);
}
);
layerId = "CD0E3B44-F66A-4791-B84C-A1128DC61275";
shapes = (
{
closed = 1;
nodes = (
(438,2080,o),
(158,1770,o),
(158,1390,cs),
(158,994,o),
(462,712,o),
(828,712,cs),
(1046,712,o),
(1234,814,o),
(1352,984,c),
(1380,984,l),
(1378,486,o),
(1174,198,o),
(840,198,cs),
(612,198,o),
(472,334,o),
(426,518,c),
(174,518,l),
(226,192,o),
(480,-28,o),
(840,-28,cs),
(1320,-28,o),
(1618,378,o),
(1618,1106,cs),
(1618,1860,o),
(1226,2072,o),
(874,2076,cs)
);
},
{
closed = 1;
nodes = (
(1144,1852,o),
(1340,1632,o),
(1340,1396,cs),
(1340,1156,o),
(1132,936,o),
(866,936,cs),
(598,936,o),
(406,1138,o),
(406,1392,cs),
(404,1644,o),
(606,1852,o),
(874,1852,cs)
);
}
);
width = 1776;
}
);
note = "six mirrored";
unicode = 57;
}
{
color = (204,240,242,1);
glyphname = greater;
layers = (
{
guides = (
{
orientation = center;
pos = (260,832);
}
);
layerId = "5C20EF92-B63D-42A8-8878-93C2863E0093";
shapes = (
{
closed = 1;
nodes = (
(1720,1072,l),
(232,1668,l),
(232,1164,l),
(1180,836,l),
(1164,860,l),
(1164,804,l),
(1180,828,l),
(232,500,l),
(232,-4,l),
(1720,592,l)
);
}
);
width = 1952;
},
{
guides = (
{
pos = (132,1384);
}
);
layerId = "B1F27B51-9973-4381-9301-4FE46FE1CA59";
shapes = (
{
closed = 1;
nodes = (
(1412,832,l),
(316,1544,l),
(316,1468,l),
(1352,796,l),
(1340,816,l),
(1340,784,l),
(1352,804,l),
(316,132,l),
(316,56,l),
(1412,768,l)
);
}
);
width = 1728;
},
{
layerId = "CD0E3B44-F66A-4791-B84C-A1128DC61275";
shapes = (
{
closed = 1;
nodes = (
(1556,884,l),
(262,1540,l),
(262,1278,l),
(1250,804,l),
(1242,820,l),
(1242,780,l),
(1250,796,l),
(262,324,l),
(262,62,l),
(1556,716,l)
);
}
);
width = 1816;
}
);
metricWidth = plus;
unicode = 62;
userData = {
"interface.width-adjustments" = (
-16
);
};
}
{
glyphname = at;
layers = (
{
background = {
shapes = (
{
closed = 1;
nodes = (
(2400,1554,o),
(1948,2023,o),
(1286,2024,cs),
(623,2023,o),
(172,1553,o),
(172,866,cs),
(172,178,o),
(622,-293,o),
(1286,-294,cs),
(1948,-293,o),
(2400,176,o),
(2400,866,cs)
);
},
{
pos = (690,290);
ref = a.1;
scale = (0.75,0.75);
}
);
};
guides = (
{
pos = (1208,2524);
},
{
pos = (1096,664);
},
{
pos = (1116,1928);
},
{
pos = (1240,72);
},
{
angle = 90;
pos = (-4,1312);
},
{
angle = 90;
pos = (580,1320);
},
{
angle = 90;
pos = (1648,1320);
},
{
angle = 90;
pos = (2288,1460);
},
{
orientation = center;
pos = (-312,1296);
}
);
layerId = "B1F27B51-9973-4381-9301-4FE46FE1CA59";
shapes = (
{
closed = 1;
nodes = (
(1410,266,o),
(1562,388,o),
(1616,580,c),
(1686,580,l),
(1684,1442,l),
(1620,1442,l),
(1620,1148,l),
(1616,1148,l),
(1566,1336,o),
(1412,1460,o),
(1226,1460,cs),
(963,1460,o),
(782,1217,o),
(782,864,cs),
(782,510,o),
(963,266,o),
(1226,266,cs)
);
},
{
closed = 1;
nodes = (
(999,329,o),
(846,546,o),
(846,864,cs),
(846,1183,o),
(1002,1397,o),
(1234,1396,cs),
(1461,1395,o),
(1621,1166,o),
(1622,864,cs),
(1623,563,o),
(1463,331,o),
(1234,330,cs)
);
},
{
closed = 1;
nodes = (
(1414,-294,o),
(1569,-279,o),
(1686,-254,c),
(1686,-188,l),
(1557,-217,o),
(1430,-230,o),
(1284,-230,cs),
(657,-230,o),
(236,209,o),
(236,866,cs),
(236,1509,o),
(668,1960,o),
(1284,1960,cs),
(1912,1960,o),
(2334,1547,o),
(2334,966,cs),
(2334,575,o),
(2184,322,o),
(1952,322,cs),
(1796,322,o),
(1686,435,o),
(1686,630,c),
(1618,610,l),
(1617,398,o),
(1760,258,o),
(1952,258,cs),
(2223,258,o),
(2398,536,o),
(2398,964,cs),
(2398,1589,o),
(1941,2024,o),
(1284,2024,cs),
(633,2024,o),
(172,1544,o),
(172,866,cs),
(172,175,o),
(621,-294,o),
(1284,-294,cs)
);
}
);
width = 2570;
},
{
associatedMasterId = "B1F27B51-9973-4381-9301-4FE46FE1CA59";
background = {
shapes = (
{
closed = 1;
nodes = (
(1528,1180,o),
(1656,1084,o),
(1656,748,cs),
(1656,416,o),
(1548,256,o),
(1280,256,cs),
(1020,256,o),
(928,492,o),
(928,748,cs),
(928,980,o),
(1060,1180,o),
(1288,1180,cs)
);
},
{
closed = 1;
nodes = (
(596,1972,o),
(136,1504,o),
(136,724,cs),
(136,-84,o),
(580,-540,o),
(1396,-540,cs),
(1600,-540,o),
(1860,-480,o),
(1984,-428,c),
(1928,-244,l),
(1856,-268,o),
(1624,-348,o),
(1404,-348,cs),
(720,-348,o),
(356,36,o),
(356,716,cs),
(356,1384,o),
(728,1784,o),
(1356,1784,cs),
(1992,1784,o),
(2292,1336,o),
(2292,888,cs),
(2292,432,o),
(2244,228,o),
(2040,228,cs),
(1920,228,o),
(1856,328,o),
(1856,440,cs),
(1856,1344,l),
(1644,1344,l),
(1644,1232,l),
(1632,1232,l),
(1604,1320,o),
(1448,1396,o),
(1248,1376,cs),
(948,1344,o),
(720,1096,o),
(720,736,cs),
(720,356,o),
(900,64,o),
(1248,52,cs),
(1476,44,o),
(1596,156,o),
(1644,272,c),
(1656,272,l),
(1680,100,o),
(1896,40,o),
(2036,40,cs),
(2460,40,o),
(2500,496,o),
(2500,884,cs),
(2500,1432,o),
(2116,1972,o),
(1368,1972,cs)
);
}
);
};
guides = (
{
pos = (1384,1940);
},
{
pos = (1272,80);
},
{
pos = (1292,1344);
},
{
pos = (1416,-512);
},
{
angle = 90;
pos = (172,728);
},
{
angle = 90;
pos = (756,736);
},
{
angle = 90;
pos = (1824,736);
},
{
angle = 90;
pos = (2464,876);
},
{
orientation = center;
pos = (2440,712);
}
);
layerId = "F02EBEA3-A9A1-4BF5-A5DE-99015680B117";
name = "Dec 27 18, 17:10";
shapes = (
{
closed = 1;
nodes = (
(1951,-512,o),
(2464,35.997,o),
(2464,712,cs),
(2464,1388.003,o),
(1951,1936,o),
(1318,1936,cs),
(685,1936,o),
(172,1388.003,o),
(172,712,cs),
(172,35.997,o),
(685,-512,o),
(1318,-512,cs)
);
},
{
closed = 1;
nodes = (
(1585,80,o),
(1824,363,o),
(1824,712,cs),
(1824,1061,o),
(1585,1344,o),
(1290,1344,cs),
(995,1344,o),
(756,1061,o),
(756,712,cs),
(756,363,o),
(995,80,o),
(1290,80,cs)
);
}
);
width = 2636;
},
{
associatedMasterId = "B1F27B51-9973-4381-9301-4FE46FE1CA59";
background = {
shapes = (
{
closed = 1;
nodes = (
(1528,1180,o),
(1656,1084,o),
(1656,748,cs),
(1656,416,o),
(1548,256,o),
(1280,256,cs),
(1020,256,o),
(928,492,o),
(928,748,cs),
(928,980,o),
(1060,1180,o),
(1288,1180,cs)
);
},
{
closed = 1;
nodes = (
(596,1972,o),
(136,1504,o),
(136,724,cs),
(136,-84,o),
(580,-540,o),
(1396,-540,cs),
(1600,-540,o),
(1860,-480,o),
(1984,-428,c),
(1928,-244,l),
(1856,-268,o),
(1624,-348,o),
(1404,-348,cs),
(720,-348,o),
(356,36,o),
(356,716,cs),
(356,1384,o),
(728,1784,o),
(1356,1784,cs),
(1992,1784,o),
(2292,1336,o),
(2292,888,cs),
(2292,432,o),
(2244,228,o),
(2040,228,cs),
(1920,228,o),
(1856,328,o),
(1856,440,cs),
(1856,1344,l),
(1644,1344,l),
(1644,1232,l),
(1632,1232,l),
(1604,1320,o),
(1448,1396,o),
(1248,1376,cs),
(948,1344,o),
(720,1096,o),
(720,736,cs),
(720,356,o),
(900,64,o),
(1248,52,cs),
(1476,44,o),
(1596,156,o),
(1644,272,c),
(1656,272,l),
(1680,100,o),
(1896,40,o),
(2036,40,cs),
(2460,40,o),
(2500,496,o),
(2500,884,cs),
(2500,1432,o),
(2116,1972,o),
(1368,1972,cs)
);
}
);
};
guides = (
{
pos = (1384,1940);
},
{
pos = (1272,80);
},
{
pos = (1292,1344);
},
{
pos = (1416,-512);
},
{
angle = 90;
pos = (172,728);
},
{
angle = 90;
pos = (756,736);
},
{
angle = 90;
pos = (1824,736);
},
{
angle = 90;
pos = (2464,876);
},
{
orientation = center;
pos = (2440,712);
}
);
layerId = "9330E9C2-5A13-4EB8-A18E-F8A68B4A0796";
name = "Dec 27 18, 17:59";
shapes = (
{
closed = 0;
nodes = (
(2464,708,l),
(2464,364,o),
(2274,108,o),
(2008,108,cs),
(1850,108,o),
(1824,200,o),
(1824,384,c),
(1824,712,ls),
(1824,1061,o),
(1585,1344,o),
(1292,1344,cs),
(995,1344,o),
(756,1061,o),
(756,712,cs),
(756,363,o),
(995,80,o),
(1292,80,cs),
(1583,80,o),
(1824,359,o),
(1824,704,cs),
(1824,1368,l)
);
},
{
closed = 0;
nodes = (
(2464,712,l),
(2464,1388.003,o),
(1951,1936,o),
(1318,1936,cs),
(685,1936,o),
(172,1388.003,o),
(172,712,cs),
(172,35.997,o),
(685,-512,o),
(1318,-512,cs),
(1551,-512,o),
(1768,-438,o),
(1948,-308,cs)
);
}
);
width = 2636;
},
{
associatedMasterId = "B1F27B51-9973-4381-9301-4FE46FE1CA59";
background = {
shapes = (
{
closed = 1;
nodes = (
(1528,1180,o),
(1656,1084,o),
(1656,748,cs),
(1656,416,o),
(1548,256,o),
(1280,256,cs),
(1020,256,o),
(928,492,o),
(928,748,cs),
(928,980,o),
(1060,1180,o),
(1288,1180,cs)
);
},
{
closed = 1;
nodes = (
(596,1972,o),
(136,1504,o),
(136,724,cs),
(136,-84,o),
(580,-540,o),
(1396,-540,cs),
(1600,-540,o),
(1860,-480,o),
(1984,-428,c),
(1928,-244,l),
(1856,-268,o),
(1624,-348,o),
(1404,-348,cs),
(720,-348,o),
(356,36,o),
(356,716,cs),
(356,1384,o),
(728,1784,o),
(1356,1784,cs),
(1992,1784,o),
(2292,1336,o),
(2292,888,cs),
(2292,432,o),
(2244,228,o),
(2040,228,cs),
(1920,228,o),
(1856,328,o),
(1856,440,cs),
(1856,1344,l),
(1644,1344,l),
(1644,1232,l),
(1632,1232,l),
(1604,1320,o),
(1448,1396,o),
(1248,1376,cs),
(948,1344,o),
(720,1096,o),
(720,736,cs),
(720,356,o),
(900,64,o),
(1248,52,cs),
(1476,44,o),
(1596,156,o),
(1644,272,c),
(1656,272,l),
(1680,100,o),
(1896,40,o),
(2036,40,cs),
(2460,40,o),
(2500,496,o),
(2500,884,cs),
(2500,1432,o),
(2116,1972,o),
(1368,1972,cs)
);
}
);
};
guides = (
{
pos = (1384,1940);
},
{
pos = (1272,80);
},
{
pos = (1292,1344);
},
{
pos = (1416,-512);
},
{
angle = 90;
pos = (172,728);
},
{
angle = 90;
pos = (756,736);
},
{
angle = 90;
pos = (1824,736);
},
{
angle = 90;
pos = (2464,876);
},
{
orientation = center;
pos = (2440,712);
}
);
layerId = "39D8C4D3-01B4-4081-9FD2-F9FB814DC8A5";
name = "Dec 27 18, 18:03";
shapes = (
{
closed = 1;
nodes = (
(140,20,o),
(668,-544,o),
(1320,-544,cs),
(1552,-544,o),
(1776,-472,o),
(1968,-336,c),
(1928,-284,l),
(1748,-412,o),
(1540,-480,o),
(1320,-480,cs),
(704,-480,o),
(204,52,o),
(204,712,cs),
(204,1372,o),
(704,1904,o),
(1320,1904,cs),
(1932,1904,o),
(2432,1372,o),
(2432,712,cs),
(2432,384,o),
(2252,140,o),
(2008,140,cs),
(1888,140,o),
(1856,188,o),
(1856,384,cs),
(1856,1364,l),
(1792,1364,l),
(1792,1020,l),
(1696,1232,o),
(1508,1376,o),
(1292,1376,cs),
(976,1376,o),
(724,1080,o),
(724,712,cs),
(724,344,o),
(976,48,o),
(1292,48,cs),
(1508,48,o),
(1696,192,o),
(1792,400,c),
(1792,384,ls),
(1792,156,o),
(1848,76,o),
(2008,76,cs),
(2292,76,o),
(2496,348,o),
(2496,712,cs),
(2496,1408,o),
(1968,1968,o),
(1320,1968,cs),
(668,1968,o),
(140,1408,o),
(140,712,cs)
);
},
{
closed = 1;
nodes = (
(788,1044,o),
(1016,1312,o),
(1292,1312,cs),
(1568,1312,o),
(1792,1044,o),
(1792,712,cs),
(1792,704,ls),
(1792,380,o),
(1568,112,o),
(1292,112,cs),
(1016,112,o),
(788,380,o),
(788,712,cs)
);
}
);
width = 2636;
},
{
associatedMasterId = "B1F27B51-9973-4381-9301-4FE46FE1CA59";
background = {
shapes = (
{
pos = (732,142);
ref = a.1;
scale = (0.75,0.75);
}
);
};
guides = (
{
pos = (1248,2524);
},
{
pos = (1136,664);
},
{
pos = (1156,1928);
},
{
pos = (1280,72);
},
{
angle = 90;
pos = (36,1312);
},
{
angle = 90;
pos = (620,1320);
},
{
angle = 90;
pos = (1688,1320);
},
{
angle = 90;
pos = (2328,1460);
},
{
orientation = center;
pos = (2304,1296);
}
);
layerId = "D9070F02-4BAC-4FCB-810D-679998864B3B";
name = "May 29, 21 16:12";
shapes = (
{
closed = 1;
nodes = (
(1521,-547,o),
(1745,-475,o),
(1938,-340,c),
(1898,-288,l),
(1717,-415,o),
(1509,-483,o),
(1290,-484,cs),
(673,-483,o),
(173,49,o),
(174,710,cs),
(173,1369,o),
(673,1901,o),
(1290,1902,cs),
(1901,1901,o),
(2401,1369,o),
(2402,710,cs),
(2401,381,o),
(2221,137,o),
(1978,138,cs),
(1857,137,o),
(1825,185,o),
(1826,382,cs),
(1826,1354,l),
(1762,1354,l),
(1762,1034,l),
(1754,1034,l),
(1657,1237,o),
(1473,1373,o),
(1262,1374,cs),
(945,1373,o),
(693,1077,o),
(694,710,c),
(693,341,o),
(945,45,o),
(1262,46,cs),
(1473,45,o),
(1657,181,o),
(1754,382,c),
(1762,382,l),
(1761,153,o),
(1817,73,o),
(1978,74,cs),
(2261,73,o),
(2465,345,o),
(2466,710,cs),
(2465,1405,o),
(1937,1965,o),
(1290,1966,cs),
(637,1965,o),
(109,1405,o),
(110,710,cs),
(109,17,o),
(637,-547,o),
(1290,-548,cs)
);
},
{
closed = 1;
nodes = (
(984,112,o),
(756,380,o),
(756,712,cs),
(756,1044,o),
(984,1312,o),
(1260,1312,cs),
(1536,1312,o),
(1760,1044,o),
(1760,712,cs),
(1760,378,o),
(1537,112,o),
(1260,112,cs)
);
}
);
width = 2572;
},
{
associatedMasterId = "B1F27B51-9973-4381-9301-4FE46FE1CA59";
background = {
shapes = (
{
closed = 1;
nodes = (
(2400,1554,o),
(1948,2023,o),
(1286,2024,cs),
(623,2023,o),
(172,1553,o),
(172,866,cs),
(172,178,o),
(622,-293,o),
(1286,-294,cs),
(1948,-293,o),
(2400,176,o),
(2400,866,cs)
);
},
{
pos = (690,290);
ref = a.1;
scale = (0.75,0.75);
}
);
};
guides = (
{
pos = (1208,2524);
},
{
pos = (1096,664);
},
{
pos = (1116,1928);
},
{
pos = (1240,72);
},
{
angle = 90;
pos = (-4,1312);
},
{
angle = 90;
pos = (580,1320);
},
{
angle = 90;
pos = (1648,1320);
},
{
angle = 90;
pos = (2288,1460);
},
{
orientation = center;
pos = (-312,1296);
}
);
layerId = "E0B14DE9-328C-4739-BB79-F54C8F11C7BC";
name = "Jun 9, 21 23:27";
shapes = (
{
closed = 1;
nodes = (
(1410,266,o),
(1562,388,o),
(1616,580,c),
(1686,580,l),
(1684,1442,l),
(1620,1442,l),
(1620,1148,l),
(1616,1148,l),
(1566,1336,o),
(1412,1460,o),
(1226,1460,cs),
(963,1460,o),
(782,1217,o),
(782,864,cs),
(782,510,o),
(963,266,o),
(1226,266,cs)
);
},
{
closed = 1;
nodes = (
(999,329,o),
(846,546,o),
(846,864,cs),
(846,1183,o),
(1002,1397,o),
(1234,1396,cs),
(1461,1395,o),
(1621,1166,o),
(1622,864,cs),
(1623,563,o),
(1463,331,o),
(1234,330,cs)
);
},
{
closed = 1;
nodes = (
(1365,-294,o),
(1504,-287,o),
(1678,-250,c),
(1678,-184,l),
(1530,-217,o),
(1399,-230,o),
(1284,-230,cs),
(657,-230,o),
(236,209,o),
(236,866,cs),
(236,1509,o),
(668,1960,o),
(1284,1960,cs),
(1912,1960,o),
(2334,1547,o),
(2334,966,cs),
(2334,575,o),
(2184,322,o),
(1952,322,cs),
(1796,322,o),
(1686,435,o),
(1686,630,c),
(1618,610,l),
(1617,398,o),
(1760,258,o),
(1952,258,cs),
(2223,258,o),
(2398,536,o),
(2398,964,cs),
(2398,1589,o),
(1941,2024,o),
(1284,2024,cs),
(633,2024,o),
(172,1544,o),
(172,866,cs),
(172,175,o),
(621,-294,o),
(1284,-294,cs)
);
}
);
width = 2570;
},
{
layerId = "CD0E3B44-F66A-4791-B84C-A1128DC61275";
shapes = (
{
closed = 1;
nodes = (
(1428,270,o),
(1514,426,o),
(1548,488,c),
(1762,488,l),
(1762,1438,l),
(1546,1438,l),
(1546,1264,l),
(1532,1264,l),
(1498,1328,o),
(1414,1458,o),
(1210,1458,cs),
(928,1458,o),
(718,1230,o),
(718,866,cs),
(718,498,o),
(924,270,o),
(1208,270,cs)
);
},
{
closed = 1;
nodes = (
(1048,476,o),
(938,648,o),
(938,868,cs),
(938,1084,o),
(1046,1252,o),
(1244,1252,cs),
(1448,1252,o),
(1548,1098,o),
(1550,868,cs),
(1548,634,o),
(1446,476,o),
(1244,476,cs)
);
},
{
closed = 1;
nodes = (
(1448,-294,o),
(1614,-268,o),
(1762,-228,c),
(1762,-38,l),
(1590,-84,o),
(1460,-96,o),
(1260,-98,cs),
(664,-104,o),
(350,290,o),
(350,864,cs),
(352,1392,o),
(712,1824,o),
(1274,1826,cs),
(1814,1826,o),
(2200,1478,o),
(2198,946,cs),
(2196,650,o),
(2078,446,o),
(1902,446,cs),
(1812,446,o),
(1766,500,o),
(1762,610,c),
(1564,510,l),
(1564,368,o),
(1702,258,o),
(1888,258,cs),
(2176,258,o),
(2402,514,o),
(2402,952,cs),
(2404,1562,o),
(1948,2022,o),
(1274,2022,cs),
(614,2022,o),
(144,1534,o),
(146,864,cs),
(146,148,o),
(570,-294,o),
(1260,-294,cs)
);
}
);
width = 2548;
},
{
associatedMasterId = "CD0E3B44-F66A-4791-B84C-A1128DC61275";
layerId = "128214F6-FBFB-4D53-82C3-54F4E019C325";
name = "May 29, 21 20:07";
shapes = (
{
closed = 1;
nodes = (
(1416,268,o),
(1490,410,o),
(1530,474,c),
(1750,474,l),
(1748,1442,l),
(1544,1442,l),
(1544,1262,l),
(1530,1262,l),
(1490,1322,o),
(1420,1458,o),
(1198,1460,cs),
(908,1458,o),
(708,1228,o),
(708,866,cs),
(708,498,o),
(908,268,o),
(1196,268,cs)
);
},
{
closed = 1;
nodes = (
(1018,464,o),
(914,642,o),
(914,868,cs),
(914,1090,o),
(1016,1264,o),
(1222,1264,cs),
(1420,1264,o),
(1524,1104,o),
(1526,868,cs),
(1524,628,o),
(1416,464,o),
(1222,464,cs)
);
},
{
closed = 1;
nodes = (
(1398,-294,o),
(1502,-276,o),
(1602,-250,c),
(1602,-68,l),
(1482,-94,o),
(1374,-108,o),
(1250,-110,cs),
(646,-108,o),
(328,284,o),
(328,864,cs),
(330,1396,o),
(694,1836,o),
(1264,1838,cs),
(1808,1838,o),
(2196,1468,o),
(2196,946,cs),
(2194,598,o),
(2072,446,o),
(1914,444,cs),
(1758,444,o),
(1750,596,o),
(1748,702,c),
(1542,492,l),
(1542,400,o),
(1660,256,o),
(1882,256,cs),
(2192,256,o),
(2390,514,o),
(2392,952,cs),
(2392,1562,o),
(1940,2022,o),
(1264,2022,cs),
(606,2022,o),
(134,1534,o),
(136,864,cs),
(136,146,o),
(562,-294,o),
(1250,-294,cs)
);
}
);
width = 2528;
},
{
associatedMasterId = "CD0E3B44-F66A-4791-B84C-A1128DC61275";
layerId = "ACBCC965-B43E-486B-BD64-65371C94F859";
name = "Jun 9, 21 22:08";
shapes = (
{
closed = 1;
nodes = (
(1404,270,o),
(1482,408,o),
(1522,476,c),
(1752,476,l),
(1750,1438,l),
(1536,1438,l),
(1536,1260,l),
(1522,1260,l),
(1482,1322,o),
(1410,1456,o),
(1192,1458,cs),
(910,1456,o),
(708,1230,o),
(708,866,cs),
(708,498,o),
(908,270,o),
(1190,270,cs)
);
},
{
closed = 1;
nodes = (
(1030,476,o),
(928,648,o),
(928,868,cs),
(928,1084,o),
(1028,1252,o),
(1226,1252,cs),
(1416,1252,o),
(1518,1098,o),
(1520,868,cs),
(1518,634,o),
(1414,476,o),
(1226,476,cs)
);
},
{
closed = 1;
nodes = (
(1394,-294,o),
(1498,-276,o),
(1598,-252,c),
(1598,-58,l),
(1480,-82,o),
(1370,-96,o),
(1250,-98,cs),
(654,-96,o),
(340,290,o),
(340,864,cs),
(342,1392,o),
(702,1824,o),
(1264,1826,cs),
(1804,1826,o),
(2186,1462,o),
(2186,946,cs),
(2184,604,o),
(2062,462,o),
(1912,462,cs),
(1762,460,o),
(1752,606,o),
(1750,708,c),
(1532,498,l),
(1532,400,o),
(1656,258,o),
(1878,258,cs),
(2192,258,o),
(2392,514,o),
(2392,952,cs),
(2394,1562,o),
(1938,2022,o),
(1264,2022,cs),
(604,2022,o),
(134,1534,o),
(136,864,cs),
(136,148,o),
(560,-294,o),
(1250,-294,cs)
);
}
);
width = 2528;
},
{
associatedMasterId = "CD0E3B44-F66A-4791-B84C-A1128DC61275";
layerId = "8184C8B2-7CA6-4DD2-90CA-D13897FD1A81";
name = "Jun 11, 21 10:04";
shapes = (
{
closed = 1;
nodes = (
(1404,270,o),
(1494,420,o),
(1534,488,c),
(1752,476,l),
(1750,1438,l),
(1536,1438,l),
(1536,1260,l),
(1522,1260,l),
(1482,1322,o),
(1410,1456,o),
(1192,1458,cs),
(910,1456,o),
(708,1230,o),
(708,866,cs),
(708,498,o),
(908,270,o),
(1190,270,cs)
);
},
{
closed = 1;
nodes = (
(1030,476,o),
(928,648,o),
(928,868,cs),
(928,1084,o),
(1028,1252,o),
(1226,1252,cs),
(1416,1252,o),
(1518,1098,o),
(1520,868,cs),
(1518,634,o),
(1414,476,o),
(1226,476,cs)
);
},
{
closed = 1;
nodes = (
(1394,-294,o),
(1498,-276,o),
(1598,-252,c),
(1598,-58,l),
(1480,-82,o),
(1370,-96,o),
(1250,-98,cs),
(654,-96,o),
(340,290,o),
(340,864,cs),
(342,1392,o),
(702,1824,o),
(1264,1826,cs),
(1804,1826,o),
(2190,1480,o),
(2188,946,cs),
(2186,648,o),
(2066,452,o),
(1892,452,cs),
(1796,452,o),
(1756,510,o),
(1752,650,c),
(1550,510,l),
(1550,372,o),
(1690,258,o),
(1878,258,cs),
(2168,258,o),
(2392,514,o),
(2392,952,cs),
(2394,1562,o),
(1938,2022,o),
(1264,2022,cs),
(604,2022,o),
(134,1534,o),
(136,864,cs),
(136,148,o),
(560,-294,o),
(1250,-294,cs)
);
}
);
width = 2528;
},
{
associatedMasterId = "CD0E3B44-F66A-4791-B84C-A1128DC61275";
layerId = "1817A9A3-465C-42AA-AED8-29543B7326B2";
name = "Jun 11, 21 10:09";
shapes = (
{
closed = 1;
nodes = (
(1404,270,o),
(1498,420,o),
(1538,488,c),
(1752,488,l),
(1752,1438,l),
(1536,1438,l),
(1536,1260,l),
(1522,1260,l),
(1482,1322,o),
(1410,1456,o),
(1192,1458,cs),
(910,1456,o),
(708,1230,o),
(708,866,cs),
(708,498,o),
(908,270,o),
(1190,270,cs)
);
},
{
closed = 1;
nodes = (
(1030,476,o),
(928,648,o),
(928,868,cs),
(928,1084,o),
(1028,1252,o),
(1226,1252,cs),
(1416,1252,o),
(1518,1098,o),
(1520,868,cs),
(1518,634,o),
(1414,476,o),
(1226,476,cs)
);
},
{
closed = 1;
nodes = (
(1438,-294,o),
(1604,-268,o),
(1752,-228,c),
(1752,-38,l),
(1580,-84,o),
(1450,-96,o),
(1250,-98,cs),
(654,-104,o),
(340,290,o),
(340,864,cs),
(342,1392,o),
(702,1824,o),
(1264,1826,cs),
(1804,1826,o),
(2190,1480,o),
(2188,946,cs),
(2186,648,o),
(2068,448,o),
(1892,448,cs),
(1802,448,o),
(1756,502,o),
(1752,612,c),
(1554,510,l),
(1554,368,o),
(1692,258,o),
(1878,258,cs),
(2164,258,o),
(2392,514,o),
(2392,952,cs),
(2394,1562,o),
(1938,2022,o),
(1264,2022,cs),
(604,2022,o),
(134,1534,o),
(136,864,cs),
(136,148,o),
(560,-294,o),
(1250,-294,cs)
);
}
);
width = 2528;
},
{
background = {
shapes = (
{
closed = 1;
nodes = (
(2369,1617,o),
(1867,2022,o),
(1234,2022,cs),
(596,2022,o),
(100,1617,o),
(100,864,cs),
(100,115,o),
(596,-294,o),
(1234,-294,cs),
(1867,-294,o),
(2369,111,o),
(2368,864,cs)
);
},
{
pos = (632,316);
ref = a.1;
scale = (0.7125,0.7125);
}
);
};
layerId = "5C20EF92-B63D-42A8-8878-93C2863E0093";
shapes = (
{
closed = 1;
nodes = (
(1260,310,o),
(1366,382,o),
(1412,490,c),
(1794,490,l),
(1794,1380,l),
(1418,1380,l),
(1418,1232,l),
(1408,1232,l),
(1364,1338,o),
(1262,1418,o),
(1114,1420,cs),
(908,1418,o),
(694,1266,o),
(694,864,cs),
(694,482,o),
(892,310,o),
(1116,310,cs)
);
},
{
closed = 1;
nodes = (
(1198,658,o),
(1146,730,o),
(1148,864,cs),
(1146,998,o),
(1198,1072,o),
(1286,1074,cs),
(1374,1072,o),
(1430,998,o),
(1430,864,cs),
(1430,732,o),
(1374,656,o),
(1286,658,cs)
);
},
{
closed = 1;
nodes = (
(1451,-294,o),
(1638,-271,o),
(1794,-222,c),
(1794,156,l),
(1652,119,o),
(1467,94,o),
(1262,94,cs),
(762,94,o),
(500,364,o),
(500,864,cs),
(500,1338,o),
(798,1634,o),
(1260,1634,cs),
(1738,1634,o),
(2020,1352,o),
(2020,930,cs),
(2020,745,o),
(1968,640,o),
(1872,640,cs),
(1819,640,o),
(1794,675,o),
(1794,750,c),
(1406,574,l),
(1406,411,o),
(1581,296,o),
(1832,294,cs),
(2193,292,o),
(2396,525,o),
(2396,940,cs),
(2396,1574,o),
(1922,2022,o),
(1260,2022,cs),
(590,2022,o),
(124,1538,o),
(124,864,cs),
(124,174,o),
(522,-294,o),
(1262,-294,cs)
);
}
);
width = 2520;
},
{
associatedMasterId = "5C20EF92-B63D-42A8-8878-93C2863E0093";
layerId = "E55528EF-20AE-4359-AE6E-AA3A3FACB352";
name = "May 29 21, 15:44";
shapes = (
{
closed = 1;
nodes = (
(1902,-624,o),
(2194,-552,o),
(2320,-468,c),
(2192,-108,l),
(2062,-164,o),
(1834,-208,o),
(1596,-208,cs),
(966,-208,o),
(618,112,o),
(616,712,cs),
(618,1220,o),
(914,1672,o),
(1604,1672,cs),
(1982,1672,o),
(2526,1588,o),
(2524,840,cs),
(2526,492,o),
(2438,332,o),
(2344,332,cs),
(2310,332,o),
(2282,352,o),
(2280,432,cs),
(2280,1456,l),
(1900,1456,l),
(1900,1344,l),
(1884,1344,l),
(1846,1432,o),
(1598,1520,o),
(1356,1476,cs),
(1110,1432,o),
(782,1232,o),
(780,700,cs),
(782,168,o),
(1110,-40,o),
(1404,-60,cs),
(1630,-76,o),
(1890,8,o),
(1936,132,c),
(1948,132,l),
(1970,16,o),
(1978,-100,o),
(2272,-72,cs),
(2710,-32,o),
(2958,244,o),
(2956,804,cs),
(2958,1624,o),
(2430,2084,o),
(1604,2084,cs),
(686,2084,o),
(170,1508,o),
(168,688,cs),
(170,-136,o),
(690,-624,o),
(1564,-624,cs)
);
},
{
closed = 1;
nodes = (
(1302,352,o),
(1218,528,o),
(1216,712,cs),
(1218,936,o),
(1338,1052,o),
(1556,1052,cs),
(1818,1052,o),
(1858,892,o),
(1860,716,cs),
(1866,484,o),
(1794,352,o),
(1564,352,cs)
);
}
);
width = 3032;
},
{
associatedMasterId = "5C20EF92-B63D-42A8-8878-93C2863E0093";
background = {
shapes = (
{
pos = (916,144);
ref = a.1;
scale = (0.75,0.75);
}
);
};
layerId = "DB9E0AB7-7B59-4DD0-AD53-54082AB1FF8B";
name = "May 29, 21 15:50";
shapes = (
{
closed = 1;
nodes = (
(1541,-624,o),
(1649,-615,o),
(1756,-598,c),
(1756,-212,l),
(1655,-221,o),
(1539,-233,o),
(1442,-234,cs),
(864,-233,o),
(533,117,o),
(534,730,cs),
(533,1338,o),
(870,1678,o),
(1472,1678,cs),
(2059,1678,o),
(2397,1352,o),
(2398,788,cs),
(2397,523,o),
(2315,374,o),
(2180,374,cs),
(2093,374,o),
(2043,443,o),
(2042,536,cs),
(2042,1306,l),
(1696,1306,l),
(1696,468,ls),
(1694,187,o),
(1886,3,o),
(2180,2,cs),
(2564,3,o),
(2792,310,o),
(2794,798,cs),
(2792,1535,o),
(2228,2083,o),
(1466,2084,cs),
(664,2083,o),
(138,1547,o),
(138,730,cs),
(138,-98,o),
(643,-624,o),
(1438,-624,cs)
);
},
{
closed = 1;
nodes = (
(1582,129,o),
(1693,216,o),
(1742,334,c),
(1750,334,l),
(1750,144,l),
(2162,144,l),
(2162,1296,l),
(1748,1296,l),
(1748,1096,l),
(1742,1096,l),
(1696,1212,o),
(1588,1311,o),
(1418,1312,cs),
(1189,1311,o),
(967,1137,o),
(968,720,c),
(967,321,o),
(1174,129,o),
(1420,130,cs)
);
},
{
closed = 1;
nodes = (
(1459,447,o),
(1393,549,o),
(1394,720,cs),
(1393,891,o),
(1459,993,o),
(1574,994,cs),
(1687,993,o),
(1756,891,o),
(1756,720,c),
(1756,552,o),
(1687,447,o),
(1574,448,cs)
);
}
);
width = 3032;
},
{
associatedMasterId = "5C20EF92-B63D-42A8-8878-93C2863E0093";
background = {
shapes = (
{
closed = 1;
nodes = (
(2369,1617,o),
(1867,2022,o),
(1234,2022,cs),
(596,2022,o),
(100,1617,o),
(100,864,cs),
(100,115,o),
(596,-294,o),
(1234,-294,cs),
(1867,-294,o),
(2369,111,o),
(2368,864,cs)
);
},
{
pos = (632,316);
ref = a.1;
scale = (0.7125,0.7125);
}
);
};
layerId = "BC9DE5C4-D4AB-41EC-BE67-EBFD9333B521";
name = "May 29, 21 20:07";
shapes = (
{
closed = 1;
nodes = (
(1256,303,o),
(1362,385,o),
(1408,494,c),
(1754,494,l),
(1754,1390,l),
(1414,1390,l),
(1414,1230,l),
(1405,1230,l),
(1360,1336,o),
(1258,1425,o),
(1100,1426,cs),
(883,1425,o),
(672,1260,o),
(672,864,cs),
(672,485,o),
(869,303,o),
(1102,304,cs)
);
},
{
closed = 1;
nodes = (
(1139,618,o),
(1077,710,o),
(1078,864,cs),
(1077,1018,o),
(1139,1110,o),
(1248,1112,cs),
(1356,1110,o),
(1422,1018,o),
(1422,864,cs),
(1422,712,o),
(1356,618,o),
(1248,618,cs)
);
},
{
closed = 1;
nodes = (
(1322,-294,o),
(1434,-287,o),
(1526,-270,c),
(1526,68,l),
(1440,59,o),
(1316,56,o),
(1234,56,cs),
(716,55,o),
(438,346,o),
(438,864,cs),
(438,1354,o),
(751,1674,o),
(1234,1674,cs),
(1727,1674,o),
(2030,1393,o),
(2030,934,cs),
(2030,687,o),
(1941,640,o),
(1852,640,cs),
(1790,640,o),
(1754,695,o),
(1754,792,c),
(1400,568,l),
(1400,406,o),
(1578,289,o),
(1816,288,cs),
(2161,287,o),
(2368,526,o),
(2368,942,cs),
(2368,1584,o),
(1897,2022,o),
(1234,2022,cs),
(566,2022,o),
(100,1538,o),
(100,864,cs),
(100,172,o),
(503,-293,o),
(1234,-294,cs)
);
}
);
width = 2468;
},
{
associatedMasterId = "5C20EF92-B63D-42A8-8878-93C2863E0093";
background = {
shapes = (
{
closed = 1;
nodes = (
(2369,1617,o),
(1867,2022,o),
(1234,2022,cs),
(596,2022,o),
(100,1617,o),
(100,864,cs),
(100,115,o),
(596,-294,o),
(1234,-294,cs),
(1867,-294,o),
(2369,111,o),
(2368,864,cs)
);
},
{
pos = (632,316);
ref = a.1;
scale = (0.7125,0.7125);
}
);
};
layerId = "4A889904-7460-458D-9B9E-FB511E0E9474";
name = "Jun 9, 21 23:27";
shapes = (
{
closed = 1;
nodes = (
(1236,310,o),
(1342,382,o),
(1388,490,c),
(1770,490,l),
(1770,1380,l),
(1394,1380,l),
(1394,1232,l),
(1384,1232,l),
(1340,1338,o),
(1238,1418,o),
(1090,1420,cs),
(884,1418,o),
(670,1266,o),
(670,864,cs),
(670,482,o),
(868,310,o),
(1092,310,cs)
);
},
{
closed = 1;
nodes = (
(1174,658,o),
(1122,730,o),
(1124,864,cs),
(1122,998,o),
(1174,1072,o),
(1262,1074,cs),
(1350,1072,o),
(1406,998,o),
(1406,864,cs),
(1406,732,o),
(1350,656,o),
(1262,658,cs)
);
},
{
closed = 1;
nodes = (
(1320,-294,o),
(1430,-288,o),
(1516,-274,c),
(1516,104,l),
(1438,94,o),
(1314,94,o),
(1238,94,cs),
(738,92,o),
(476,364,o),
(476,864,cs),
(476,1338,o),
(774,1634,o),
(1236,1634,cs),
(1714,1634,o),
(1998,1372,o),
(1998,930,cs),
(1998,706,o),
(1918,686,o),
(1848,686,cs),
(1802,686,o),
(1770,726,o),
(1770,814,c),
(1378,574,l),
(1378,408,o),
(1564,296,o),
(1808,294,cs),
(2162,292,o),
(2372,526,o),
(2372,940,cs),
(2372,1586,o),
(1898,2022,o),
(1236,2022,cs),
(566,2022,o),
(100,1538,o),
(100,864,cs),
(100,174,o),
(498,-292,o),
(1238,-294,cs)
);
}
);
width = 2472;
},
{
associatedMasterId = "5C20EF92-B63D-42A8-8878-93C2863E0093";
background = {
shapes = (
{
closed = 1;
nodes = (
(2369,1617,o),
(1867,2022,o),
(1234,2022,cs),
(596,2022,o),
(100,1617,o),
(100,864,cs),
(100,115,o),
(596,-294,o),
(1234,-294,cs),
(1867,-294,o),
(2369,111,o),
(2368,864,cs)
);
},
{
pos = (632,316);
ref = a.1;
scale = (0.7125,0.7125);
}
);
};
layerId = "D4B7DA58-9B76-44FC-82AD-5C4A6849F0B9";
name = "Jun 11, 21 10:09";
shapes = (
{
closed = 1;
nodes = (
(1236,310,o),
(1342,382,o),
(1388,490,c),
(1770,490,l),
(1770,1380,l),
(1394,1380,l),
(1394,1232,l),
(1384,1232,l),
(1340,1338,o),
(1238,1418,o),
(1090,1420,cs),
(884,1418,o),
(670,1266,o),
(670,864,cs),
(670,482,o),
(868,310,o),
(1092,310,cs)
);
},
{
closed = 1;
nodes = (
(1174,658,o),
(1122,730,o),
(1124,864,cs),
(1122,998,o),
(1174,1072,o),
(1262,1074,cs),
(1350,1072,o),
(1406,998,o),
(1406,864,cs),
(1406,732,o),
(1350,656,o),
(1262,658,cs)
);
},
{
closed = 1;
nodes = (
(1427,-294,o),
(1614,-271,o),
(1770,-222,c),
(1770,156,l),
(1628,119,o),
(1443,94,o),
(1238,94,cs),
(738,94,o),
(476,364,o),
(476,864,cs),
(476,1338,o),
(774,1634,o),
(1236,1634,cs),
(1714,1634,o),
(1998,1372,o),
(1998,930,cs),
(1998,706,o),
(1918,686,o),
(1848,686,cs),
(1802,686,o),
(1770,726,o),
(1770,814,c),
(1378,574,l),
(1378,408,o),
(1564,296,o),
(1808,294,cs),
(2162,292,o),
(2372,526,o),
(2372,940,cs),
(2372,1586,o),
(1898,2022,o),
(1236,2022,cs),
(566,2022,o),
(100,1538,o),
(100,864,cs),
(100,174,o),
(498,-294,o),
(1238,-294,cs)
);
}
);
width = 2472;
}
);
metricLeft = O;
metricRight = O;
unicode = 64;
userData = {
"interface.width-adjustments" = (
-16
);
};
}
{
color = (219,235,247,1);
glyphname = A;
kernLeft = A;
kernRight = A;
layers = (
{
anchors = (
{
name = _symbol;
pos = (1120,964);
},
{
name = bottom;
pos = (1120,0);
},
{
name = ogonek;
pos = (2176,0);
},
{
name = tonos;
pos = (632,2048);
},
{
name = top;
pos = (1120,2304);
}
);
background = {
shapes = (
{
pos = (-1436,0);
ref = V;
}
);
};
guides = (
{
pos = (888,1364);
},
{
angle = 90;
orientation = center;
pos = (872,964);
}
);
layerId = "5C20EF92-B63D-42A8-8878-93C2863E0093";
shapes = (
{
closed = 1;
nodes = (
(1112,1484,l),
(1128,1484,l),
(1576,0,l),
(2176,0,l),
(1500,2048,l),
(740,2048,l),
(64,0,l),
(664,0,l)
);
},
{
closed = 1;
nodes = (
(552,392,l),
(1680,392,l),
(1680,808,l),
(552,808,l)
);
}
);
width = 2240;
},
{
anchors = (
{
name = _symbol;
pos = (1164,1024);
},
{
name = bottom;
pos = (1164,0);
},
{
name = ogonek;
pos = (2220,0);
},
{
name = right;
pos = (2256,0);
},
{
name = tonos;
pos = (756,2048);
},
{
name = top;
pos = (1164,2180);
}
);
associatedMasterId = "5C20EF92-B63D-42A8-8878-93C2863E0093";
guides = (
{
pos = (1084,1364);
},
{
angle = 90;
orientation = center;
pos = (1068,964);
}
);
layerId = "7739C87E-652B-47A4-908A-8763081DE4BF";
name = "Oct 2 18, 14:33";
shapes = (
{
closed = 1;
nodes = (
(1156,1364,l),
(1172,1364,l),
(1656,0,l),
(2256,0,l),
(1464,2048,l),
(868,2048,l),
(72,0,l),
(672,0,l)
);
},
{
closed = 1;
nodes = (
(560,320,l),
(1768,320,l),
(1768,752,l),
(560,752,l)
);
}
);
width = 2328;
},
{
anchors = (
{
name = _symbol;
pos = (836,964);
},
{
name = bottom;
pos = (836,0);
},
{
name = ogonek;
pos = (1612,0);
},
{
name = tonos;
pos = (692,2048);
},
{
name = top;
pos = (836,2304);
}
);
layerId = "B1F27B51-9973-4381-9301-4FE46FE1CA59";
shapes = (
{
closed = 1;
nodes = (
(832,1968,l),
(840,1968,l),
(1544,0,l),
(1612,0,l),
(880,2048,l),
(792,2048,l),
(60,0,l),
(128,0,l)
);
},
{
closed = 1;
nodes = (
(360,692,l),
(1312,692,l),
(1312,756,l),
(360,756,l)
);
}
);
width = 1672;
},
{
anchors = (
{
name = _symbol;
pos = (934,964);
},
{
name = bottom;
pos = (934,0);
},
{
name = ogonek;
pos = (1818,0);
},
{
name = tonos;
pos = (658,2048);
},
{
name = top;
pos = (934,2304);
}
);
layerId = "CD0E3B44-F66A-4791-B84C-A1128DC61275";
shapes = (
{
closed = 1;
nodes = (
(926,1718,l),
(942,1718,l),
(1550,0,l),
(1818,0,l),
(1068,2048,l),
(800,2048,l),
(50,0,l),
(318,0,l)
);
},
{
closed = 1;
nodes = (
(410,576,l),
(1460,576,l),
(1460,800,l),
(410,800,l)
);
}
);
width = 1868;
}
);
unicode = 65;
userData = {
com.typemytype.robofont.guideline.magnetic.9EkLRXjahr = 5;
"interface.width-adjustments" = (
-16
);
};
}
{
color = (219,235,247,1);
glyphname = G;
kernLeft = C;
kernRight = G;
layers = (
{
anchors = (
{
name = bottom;
pos = (1104,8);
},
{
name = top;
pos = (1108,2304);
}
);
background = {
shapes = (
{
ref = C;
}
);
};
guides = (
{
angle = 7.9575;
pos = (888,1320);
},
{
orientation = center;
angle = 90;
pos = (888,528);
},
{
pos = (1224,756);
}
);
layerId = "5C20EF92-B63D-42A8-8878-93C2863E0093";
shapes = (
{
closed = 1;
nodes = (
(2024,1372,l),
(1981,1783,o),
(1608,2076,o),
(1124,2076,cs),
(572,2076,o),
(124,1696,o),
(124,1020,cs),
(124,372,o),
(530,-28,o),
(1128,-28,cs),
(1664,-28,o),
(2048,300,o),
(2048,860,cs),
(2048,1144,l),
(1140,1144,l),
(1140,748,l),
(1608,748,l),
(1512,758,l),
(1512,574,o),
(1386,456,o),
(1132,456,cs),
(844,456,o),
(696,668,o),
(696,1028,cs),
(696,1383,o),
(856,1592,o),
(1136,1592,cs),
(1310,1592,o),
(1428,1512,o),
(1462,1372,c)
);
}
);
width = 2176;
},
{
anchors = (
{
name = bottom;
pos = (1008,0);
},
{
name = top;
pos = (1008,2304);
}
);
guides = (
{
pos = (1736,1992);
}
);
layerId = "B1F27B51-9973-4381-9301-4FE46FE1CA59";
shapes = (
{
closed = 1;
nodes = (
(1804,1408,l),
(1756,1700,o),
(1499,2076,o),
(1020,2076,cs),
(512,2076,o),
(172,1654,o),
(172,1024,cs),
(172,397,o),
(508,-28,o),
(1028,-28,cs),
(1488,-28,o),
(1820,304,o),
(1820,864,cs),
(1820,928,l),
(1048,928,l),
(1048,864,l),
(1784,864,l),
(1756,888,l),
(1764,352,o),
(1456,36,o),
(1028,36,cs),
(544,36,o),
(236,439,o),
(236,1024,cs),
(236,1616,o),
(550,2012,o),
(1020,2012,cs),
(1441,2012,o),
(1691,1687,o),
(1740,1408,c)
);
}
);
width = 2016;
},
{
anchors = (
{
name = bottom;
pos = (1030,0);
},
{
name = top;
pos = (1034,2304);
}
);
associatedMasterId = "CD0E3B44-F66A-4791-B84C-A1128DC61275";
layerId = "6E192006-E7BE-469B-AD1D-EE3336C98463";
shapes = (
{
closed = 1;
nodes = (
(1876,1408,l),
(1800,1804,o),
(1466,2076,o),
(1034,2076,cs),
(508.006,2076,o),
(136,1672,o),
(136,1024,cs),
(136,376,o),
(504,-28,o),
(1050,-28,cs),
(1538,-28,o),
(1888,298,o),
(1888,806,cs),
(1888,1026,l),
(1104,1026,l),
(1104,802,l),
(1716,802,l),
(1640,818,l),
(1640,446,o),
(1400,210,o),
(1050,210,cs),
(672,210,o),
(384,496,o),
(384,1024,cs),
(384,1552,o),
(672,1838,o),
(1034,1838,cs),
(1326,1838,o),
(1526,1672,o),
(1612,1408,c)
);
}
);
width = 2030.45283;
},
{
anchors = (
{
name = bottom;
pos = (1040,0);
},
{
name = top;
pos = (1044,2304);
}
);
layerId = "CD0E3B44-F66A-4791-B84C-A1128DC61275";
shapes = (
{
closed = 1;
nodes = (
(1886,1408,l),
(1810,1804,o),
(1476,2076,o),
(1044,2076,cs),
(518,2076,o),
(146,1672,o),
(146,1024,cs),
(146,376,o),
(514,-28,o),
(1060,-28,cs),
(1548,-28,o),
(1898,298,o),
(1898,806,cs),
(1898,1026,l),
(1114,1026,l),
(1114,802,l),
(1726,802,l),
(1650,818,l),
(1650,446,o),
(1410,210,o),
(1060,210,cs),
(682,210,o),
(394,496,o),
(394,1024,cs),
(394,1552,o),
(682,1838,o),
(1044,1838,cs),
(1336,1838,o),
(1536,1672,o),
(1622,1408,c)
);
}
);
width = 2052;
}
);
metricLeft = O;
unicode = 71;
userData = {
com.typemytype.robofont.guideline.magnetic.DBpTQJmUAf = 5;
com.typemytype.robofont.guideline.magnetic.Mdeh49HlEG = 5;
com.typemytype.robofont.guideline.magnetic.iFgX6ho5qJ = 5;
"interface.width-adjustments" = (
-16
);
};
}
{
color = (219,235,247,1);
glyphname = M;
kernLeft = B;
kernRight = H;
layers = (
{
anchors = (
{
name = _symbol;
pos = (1312,1024);
},
{
name = bottom;
pos = (1312,0);
},
{
name = right;
pos = (2492,0);
},
{
name = top;
pos = (1312,2304);
}
);
guides = (
{
pos = (40,1220);
},
{
angle = 90;
orientation = center;
pos = (940,2164);
}
);
layerId = "5C20EF92-B63D-42A8-8878-93C2863E0093";
shapes = (
{
closed = 1;
nodes = (
(132,0,l),
(676,0,l),
(676,1192,l),
(692,1192,l),
(1148,16,l),
(1476,16,l),
(1932,1184,l),
(1948,1184,l),
(1948,0,l),
(2492,0,l),
(2492,2048,l),
(1800,2048,l),
(1324,888,l),
(1300,888,l),
(824,2048,l),
(132,2048,l)
);
}
);
width = 2624;
},
{
anchors = (
{
name = _symbol;
pos = (1372,1024);
},
{
name = bottom;
pos = (1372,4);
},
{
name = bottom_dd;
pos = (2696,-560);
},
{
name = right;
pos = (2544,0);
},
{
name = top;
pos = (1372,2180);
},
{
name = top0315;
pos = (2696,2200);
},
{
name = top_dd;
pos = (2696,2200);
}
);
associatedMasterId = "5C20EF92-B63D-42A8-8878-93C2863E0093";
guides = (
{
pos = (188,1220);
},
{
angle = 90;
pos = (1572,1848);
},
{
angle = 90;
pos = (1088,2164);
},
{
angle = 90;
pos = (2140,2040);
}
);
layerId = "75B701FF-9FEA-46EA-B4EE-AB55E07CEDFA";
name = "Oct 6 18, 13:17";
shapes = (
{
closed = 1;
nodes = (
(132,0,l),
(692,0,l),
(692,1260,l),
(708,1260,l),
(1196,40,l),
(1548,40,l),
(2036,1252,l),
(2052,1252,l),
(2052,0,l),
(2612,0,l),
(2612,2048,l),
(1880,2048,l),
(1384,880,l),
(1360,880,l),
(864,2048,l),
(132,2048,l)
);
}
);
width = 2744;
},
{
anchors = (
{
name = _symbol;
pos = (1184,1024);
},
{
name = bottom;
pos = (1184,0);
},
{
name = right;
pos = (2080,0);
},
{
name = top;
pos = (1184,2304);
}
);
layerId = "B1F27B51-9973-4381-9301-4FE46FE1CA59";
shapes = (
{
closed = 1;
nodes = (
(288,0,l),
(352,0,l),
(352,1848,l),
(360,1848,l),
(1152,0,l),
(1216,0,l),
(2008,1848,l),
(2016,1848,l),
(2016,0,l),
(2080,0,l),
(2080,2048,l),
(2024,2048,l),
(1188,96,l),
(1180,96,l),
(344,2048,l),
(288,2048,l)
);
}
);
width = 2368;
},
{
anchors = (
{
name = _symbol;
pos = (1234,1024);
},
{
name = bottom;
pos = (1234,0);
},
{
name = right;
pos = (2242,0);
},
{
name = top;
pos = (1234,2304);
}
);
layerId = "CD0E3B44-F66A-4791-B84C-A1128DC61275";
shapes = (
{
closed = 1;
nodes = (
(226,0,l),
(466,0,l),
(466,1548,l),
(484,1548,l),
(1120,0,l),
(1346,0,l),
(1982,1546,l),
(2002,1546,l),
(2002,0,l),
(2242,0,l),
(2242,2048,l),
(1936,2048,l),
(1246,362,l),
(1222,362,l),
(532,2048,l),
(226,2048,l)
);
}
);
width = 2468;
}
);
metricLeft = H;
metricRight = H;
unicode = 77;
userData = {
com.typemytype.robofont.guideline.magnetic.ezYETy42tZ = 5;
com.typemytype.robofont.guideline.magnetic.wu5HJlZVk6 = 5;
com.typemytype.robofont.guideline.magnetic.x5YoYrsuLC = 5;
"interface.width-adjustments" = (
-16
);
};
}
{
color = (219,235,247,1);
glyphname = P;
kernLeft = B;
kernRight = P;
layers = (
{
anchors = (
{
name = "#entry";
pos = (132,2048);
},
{
name = tonos;
pos = (104,2048);
},
{
name = top;
pos = (904,2304);
}
);
guides = (
{
pos = (-136,1240);
},
{
pos = (-136,764);
},
{
pos = (-136,1552);
},
{
pos = (672,1372);
}
);
layerId = "5C20EF92-B63D-42A8-8878-93C2863E0093";
shapes = (
{
closed = 1;
nodes = (
(688,0,l),
(688,1604,l),
(884,1604,ls),
(1079,1604,o),
(1196,1500,o),
(1196,1324,cs),
(1196,1149,o),
(1079,1040,o),
(884,1040,cs),
(468,1040,l),
(468,608,l),
(996,608,ls),
(1463,608,o),
(1776,883,o),
(1776,1324,cs),
(1776,1760,o),
(1471,2048,o),
(1016,2048,cs),
(132,2048,l),
(132,0,l)
);
}
);
width = 1848;
},
{
anchors = (
{
name = "#entry";
pos = (288,2048);
},
{
name = tonos;
pos = (228,2048);
},
{
name = top;
pos = (844,2304);
}
);
layerId = "B1F27B51-9973-4381-9301-4FE46FE1CA59";
shapes = (
{
closed = 1;
nodes = (
(352,0,l),
(352,1984,l),
(888,1984,ls),
(1195,1984,o),
(1412,1762,o),
(1412,1448,cs),
(1412,1136,o),
(1195,916,o),
(888,916,cs),
(320,916,l),
(320,852,l),
(888,852,ls),
(1232,852,o),
(1476,1099,o),
(1476,1448,cs),
(1476,1799,o),
(1232,2048,o),
(888,2048,cs),
(288,2048,l),
(288,0,l)
);
}
);
width = 1644;
},
{
anchors = (
{
name = tonos;
pos = (166,2048);
},
{
name = top;
pos = (860,2304);
}
);
associatedMasterId = "CD0E3B44-F66A-4791-B84C-A1128DC61275";
layerId = "35631BF2-FD5F-4BFB-A36C-FD79A4816C20";
shapes = (
{
closed = 1;
nodes = (
(468,0,l),
(468,1822,l),
(900,1822,ls),
(1228,1822,o),
(1356,1642,o),
(1356,1398,cs),
(1356,1154,o),
(1228,970,o),
(902,970,cs),
(416,970,l),
(416,744,l),
(914,744,ls),
(1390,744,o),
(1608,1034,o),
(1608,1398,cs),
(1608,1762,o),
(1390,2048,o),
(910,2048,cs),
(214,2048,l),
(214,0,l)
);
}
);
width = 1725.86415;
},
{
anchors = (
{
name = "#entry";
pos = (226,2048);
},
{
name = tonos;
pos = (178,2048);
},
{
name = top;
pos = (872,2304);
}
);
layerId = "CD0E3B44-F66A-4791-B84C-A1128DC61275";
shapes = (
{
closed = 1;
nodes = (
(480,0,l),
(480,1822,l),
(912,1822,ls),
(1240,1822,o),
(1368,1642,o),
(1368,1398,cs),
(1368,1154,o),
(1240,970,o),
(914,970,cs),
(428,970,l),
(428,744,l),
(926,744,ls),
(1402,744,o),
(1620,1034,o),
(1620,1398,cs),
(1620,1762,o),
(1402,2048,o),
(922,2048,cs),
(226,2048,l),
(226,0,l)
);
}
);
width = 1750;
}
);
metricLeft = H;
unicode = 80;
userData = {
com.typemytype.robofont.guideline.magnetic.fNIC4eKo9v = 5;
com.typemytype.robofont.guideline.magnetic.hdLF6WxJ6g = 5;
"interface.width-adjustments" = (
-16
);
};
}
{
color = (219,235,247,1);
glyphname = Q;
kernLeft = C;
kernRight = D;
layers = (
{
guides = (
{
angle = 90;
pos = (876,1432);
}
);
layerId = "5C20EF92-B63D-42A8-8878-93C2863E0093";
shapes = (
{
closed = 1;
nodes = (
(1220,368,l),
(1384,132,l),
(1628,-152,l),
(2120,-152,l),
(1776,264,l),
(1512,564,l),
(1356,760,l),
(924,760,l)
);
},
{
ref = O;
}
);
width = 2244;
},
{
layerId = "B1F27B51-9973-4381-9301-4FE46FE1CA59";
shapes = (
{
closed = 1;
nodes = (
(1456,168,l),
(1468,152,l),
(1728,-192,l),
(1808,-192,l),
(1524,184,l),
(1512,200,l),
(1180,640,l),
(1100,640,l)
);
},
{
alignment = -1;
ref = O;
}
);
width = 2040;
},
{
layerId = "CD0E3B44-F66A-4791-B84C-A1128DC61275";
shapes = (
{
closed = 1;
nodes = (
(1316,188,l),
(1374,108,l),
(1598,-192,l),
(1876,-192,l),
(1536,260,l),
(1470,346,l),
(1244,642,l),
(968,642,l)
);
},
{
alignment = -1;
ref = O;
}
);
width = 2104;
}
);
metricLeft = O;
metricRight = O;
unicode = 81;
userData = {
"interface.width-adjustments" = (
-16
);
};
}
{
color = (219,235,247,1);
glyphname = W;
kernLeft = W;
kernRight = W;
layers = (
{
anchors = (
{
name = _symbol;
pos = (1540,1024);
},
{
name = bottom;
pos = (1540,0);
},
{
name = top;
pos = (1540,2304);
}
);
guides = (
{
orientation = center;
angle = 90;
pos = (1284,2076);
}
);
layerId = "5C20EF92-B63D-42A8-8878-93C2863E0093";
metricLeft = "=A-16";
metricRight = "=A-16";
shapes = (
{
closed = 1;
nodes = (
(1184,0,l),
(1532,1144,l),
(1548,1144,l),
(1896,0,l),
(2428,0,l),
(3032,2048,l),
(2412,2048,l),
(2132,784,l),
(2116,784,l),
(1784,2048,l),
(1296,2048,l),
(964,788,l),
(948,788,l),
(668,2048,l),
(48,2048,l),
(652,0,l)
);
}
);
width = 3080;
},
{
anchors = (
{
name = _symbol;
pos = (1224,1024);
},
{
name = bottom;
pos = (1224,16);
},
{
name = top;
pos = (1224,2304);
}
);
layerId = "B1F27B51-9973-4381-9301-4FE46FE1CA59";
metricLeft = "=A-12";
metricRight = "=A-12";
shapes = (
{
closed = 1;
nodes = (
(700,0,l),
(1220,1948,l),
(1228,1948,l),
(1748,0,l),
(1836,0,l),
(2400,2048,l),
(2332,2048,l),
(1796,100,l),
(1788,100,l),
(1268,2048,l),
(1180,2048,l),
(660,100,l),
(652,100,l),
(116,2048,l),
(48,2048,l),
(612,0,l)
);
}
);
width = 2448;
},
{
anchors = (
{
name = _symbol;
pos = (1216,1024);
},
{
name = bottom;
pos = (1216,28);
},
{
name = top;
pos = (1216,2380);
}
);
associatedMasterId = "B1F27B51-9973-4381-9301-4FE46FE1CA59";
background = {
shapes = (
{
closed = 1;
nodes = (
(692,0,l),
(1208,1924,l),
(1224,1924,l),
(1736,0,l),
(1828,0,l),
(2360,2048,l),
(2328,2048,l),
(1812,140,l),
(1792,140,l),
(1292,2048,l),
(1136,2048,l),
(640,136,l),
(616,136,l),
(100,2048,l),
(68,2048,l),
(600,0,l)
);
}
);
};
layerId = "11917E52-1163-4D25-A7C8-D834BC2206AE";
name = "Nov 25 18, 14:25";
shapes = (
{
closed = 1;
nodes = (
(64,2048,l),
(628,0,l),
(716,0,l),
(1256,2048,l),
(1188,2048,l),
(676,100,l),
(668,100,l),
(128,2048,l)
);
},
{
closed = 1;
nodes = (
(1816,100,l),
(1808,100,l),
(1296,2048,l),
(1228,2048,l),
(1768,0,l),
(1856,0,l),
(2420,2048,l),
(2356,2048,l)
);
}
);
width = 2432;
},
{
anchors = (
{
name = _symbol;
pos = (1325,1024);
},
{
name = bottom;
pos = (1326,16);
},
{
name = top;
pos = (1326,2304);
}
);
layerId = "CD0E3B44-F66A-4791-B84C-A1128DC61275";
shapes = (
{
closed = 1;
nodes = (
(868,0,l),
(1318,1620,l),
(1334,1620,l),
(1782,0,l),
(2046,0,l),
(2606,2048,l),
(2346,2048,l),
(1920,390,l),
(1902,390,l),
(1468,2048,l),
(1182,2048,l),
(750,390,l),
(730,390,l),
(304,2048,l),
(44,2048,l),
(604,0,l)
);
}
);
width = 2650;
}
);
unicode = 87;
userData = {
com.typemytype.robofont.guideline.magnetic.8gZT6dIVxI = 5;
com.typemytype.robofont.guideline.magnetic.ZoWqubfLj9 = 5;
com.typemytype.robofont.guideline.magnetic.k6chDe7LUI = 5;
com.typemytype.robofont.guideline.magnetic.tUpIEqa0MC = 5;
"interface.width-adjustments" = (
-16
);
};
}
{
color = (204,240,242,1);
glyphname = asciicircum;
kernLeft = asciicircum;
kernRight = asciicircum;
layers = (
{
guides = (
{
pos = (-140,248);
},
{
pos = (-140,724);
}
);
layerId = "5C20EF92-B63D-42A8-8878-93C2863E0093";
shapes = (
{
closed = 1;
nodes = (
(668,1490,l),
(740,1490,l),
(740,1606,l),
(668,1606,l)
);
},
{
closed = 1;
nodes = (
(540,1120,l),
(728,1568,l),
(680,1568,l),
(868,1120,l),
(1328,1120,l),
(900,2016,l),
(508,2016,l),
(80,1120,l)
);
}
);
width = 1408;
},
{
layerId = "B1F27B51-9973-4381-9301-4FE46FE1CA59";
shapes = (
{
closed = 1;
nodes = (
(512,1880,l),
(552,1880,l),
(552,1944,l),
(512,1944,l)
);
},
{
closed = 1;
nodes = (
(172,1120,l),
(548,1920,l),
(516,1920,l),
(892,1120,l),
(964,1120,l),
(556,1984,l),
(508,1984,l),
(100,1120,l)
);
}
);
width = 1064;
},
{
associatedMasterId = "B1F27B51-9973-4381-9301-4FE46FE1CA59";
background = {
shapes = (
{
closed = 1;
nodes = (
(692,1984,l),
(540,1984,l),
(128,1120,l),
(368,1120,l),
(692,1824,l)
);
},
{
closed = 1;
nodes = (
(1224,1120,l),
(812,1984,l),
(660,1984,l),
(660,1824,l),
(988,1120,l)
);
},
{
closed = 1;
nodes = (
(640,1772,l),
(712,1772,l),
(712,1872,l),
(640,1872,l)
);
}
);
};
layerId = "B615D642-EEA5-4A95-8327-16AD9E504C2F";
name = "Dec 27 18, 16:25";
shapes = (
{
closed = 0;
nodes = (
(256,1072,l),
(672,1952,l),
(680,1952,l),
(1096,1072,l)
);
}
);
width = 1352;
},
{
layerId = "CD0E3B44-F66A-4791-B84C-A1128DC61275";
shapes = (
{
closed = 1;
nodes = (
(604,1770,l),
(676,1770,l),
(676,1870,l),
(604,1870,l)
);
},
{
closed = 1;
nodes = (
(332,1120,l),
(652,1810,l),
(628,1810,l),
(950,1120,l),
(1190,1120,l),
(776,1984,l),
(502,1984,l),
(90,1120,l)
);
}
);
width = 1280;
}
);
unicode = 94;
userData = {
interface.gridadjust.original = "{'width': 1178, 'leftMargin': 84, 'rightMargin': 86}";
"interface.width-adjustments" = (
-16
);
};
}
{
color = (204,240,242,1);
glyphname = grave;
layers = (
{
anchors = (
{
name = _top;
pos = (848,1792);
},
{
name = top;
pos = (848,2304);
}
);
layerId = "5C20EF92-B63D-42A8-8878-93C2863E0093";
shapes = (
{
closed = 1;
nodes = (
(1032,1728,l),
(840,2176,l),
(368,2176,l),
(668,1728,l)
);
}
);
width = 1400;
},
{
anchors = (
{
name = _top;
pos = (800,1792);
},
{
name = top;
pos = (796,2304);
}
);
layerId = "B1F27B51-9973-4381-9301-4FE46FE1CA59";
shapes = (
{
closed = 1;
nodes = (
(834,1760,l),
(554,2192,l),
(474,2192,l),
(770,1760,l)
);
}
);
width = 1336;
},
{
anchors = (
{
name = _top;
pos = (832,1792);
},
{
name = top;
pos = (800,2304);
}
);
layerId = "CD0E3B44-F66A-4791-B84C-A1128DC61275";
shapes = (
{
closed = 1;
nodes = (
(942,1744,l),
(700,2208,l),
(418,2208,l),
(730,1744,l)
);
}
);
width = 1358;
}
);
metricWidth = acute;
note = "mirrored version of acute";
unicode = 96;
userData = {
"interface.width-adjustments" = (
-16
);
};
}
{
color = (219,235,247,1);
glyphname = b;
kernLeft = B;
kernRight = b;
layers = (
{
anchors = (
{
name = "#entry";
pos = (132,2048);
},
{
name = bottom;
pos = (868,0);
},
{
name = cross;
pos = (404,1760);
},
{
name = top;
pos = (1144,1792);
}
);
background = {
shapes = (
{
pos = (72,0);
ref = o;
}
);
};
guides = (
{
orientation = center;
angle = 90;
pos = (904,128);
}
);
layerId = "5C20EF92-B63D-42A8-8878-93C2863E0093";
shapes = (
{
closed = 1;
nodes = (
(680,0,l),
(680,252,l),
(692,252,l),
(756,96,o),
(904,-20,o),
(1120,-20,cs),
(1448,-20,o),
(1724,236,o),
(1724,768,c),
(1724,1324,o),
(1428,1556,o),
(1124,1556,cs),
(896,1556,o),
(752,1424,o),
(692,1268,c),
(684,1268,l),
(684,2048,l),
(132,2048,l),
(132,0,l)
);
},
{
closed = 1;
nodes = (
(672,996,o),
(764,1132,o),
(916,1132,cs),
(1068,1132,o),
(1156,996,o),
(1156,768,cs),
(1156,540,o),
(1068,404,o),
(916,404,cs),
(764,404,o),
(672,544,o),
(672,768,c)
);
}
);
width = 1816;
},
{
anchors = (
{
name = "#entry";
pos = (288,2048);
},
{
name = bottom;
pos = (880,0);
},
{
name = cross;
pos = (320,1760);
},
{
name = top;
pos = (880,1792);
}
);
guides = (
{
angle = 90;
pos = (776,2164);
}
);
layerId = "B1F27B51-9973-4381-9301-4FE46FE1CA59";
metricRight = "=e";
shapes = (
{
closed = 1;
nodes = (
(352,0,l),
(352,384,l),
(360,384,l),
(443,129,o),
(633,-32,o),
(880,-32,cs),
(1243,-32,o),
(1472,310,o),
(1472,764,cs),
(1472,1216,o),
(1240,1560,o),
(880,1560,cs),
(636,1560,o),
(440,1400,o),
(360,1144,c),
(352,1144,l),
(352,2048,l),
(288,2048,l),
(288,0,l)
);
},
{
closed = 1;
nodes = (
(352,1180,o),
(556,1496,o),
(880,1496,cs),
(1204,1496,o),
(1408,1180,o),
(1408,764,cs),
(1408,348,o),
(1206,32,o),
(880,32,cs),
(554,32,o),
(352,348,o),
(352,764,cs)
);
}
);
width = 1620;
},
{
anchors = (
{
name = bottom;
pos = (996,0);
},
{
name = cross;
pos = (348,1760);
},
{
name = top;
pos = (832,1812);
}
);
associatedMasterId = "B1F27B51-9973-4381-9301-4FE46FE1CA59";
background = {
shapes = (
{
pos = (92,0);
ref = o;
}
);
};
layerId = "9C80CCDD-CD59-4F53-A0B9-9190C588EAD8";
metricRight = "=e";
name = "Nov 25 18, 17:40";
shapes = (
{
closed = 1;
nodes = (
(320,0,l),
(384,0,l),
(384,2048,l),
(320,2048,l)
);
},
{
closed = 1;
nodes = (
(1274,-32,o),
(1504,311,o),
(1504,764,cs),
(1504,1216,o),
(1273,1560,o),
(912,1560,cs),
(550,1560,o),
(320,1217,o),
(320,764,cs),
(320,311,o),
(550,-32,o),
(912,-32,cs)
);
},
{
closed = 1;
nodes = (
(586,32,o),
(384,347,o),
(384,764,cs),
(384,1179,o),
(588,1496,o),
(912,1496,cs),
(1237,1496,o),
(1440,1180,o),
(1440,764,cs),
(1440,347,o),
(1238,32,o),
(912,32,cs)
);
},
{
closed = 1;
nodes = (
(368,1132,l),
(396,1132,l),
(396,1168,l),
(368,1168,l)
);
},
{
closed = 1;
nodes = (
(368,360,l),
(396,360,l),
(396,396,l),
(368,396,l)
);
}
);
width = 1684;
},
{
anchors = (
{
name = bottom;
pos = (914,0);
},
{
name = cross;
pos = (338,1760);
},
{
name = top;
pos = (918,1792);
}
);
associatedMasterId = "CD0E3B44-F66A-4791-B84C-A1128DC61275";
layerId = "53B74F83-39F6-4482-86F8-DF042F38583D";
shapes = (
{
closed = 1;
nodes = (
(450,0,l),
(450,236,l),
(476,236,l),
(530,150,o),
(630,-32,o),
(924,-32,cs),
(1306,-32,o),
(1576,276,o),
(1576,764,cs),
(1576,1250,o),
(1306,1556,o),
(920,1556,cs),
(622,1556,o),
(530,1374,o),
(476,1292,c),
(458,1292,l),
(458,2048,l),
(214,2048,l),
(214,0,l)
);
},
{
closed = 1;
nodes = (
(452,1110,o),
(604,1338,o),
(888,1338,cs),
(1184,1338,o),
(1330,1090,o),
(1330,768,cs),
(1330,442,o),
(1180,186,o),
(888,186,cs),
(608,186,o),
(452,424,o),
(452,768,cs)
);
}
);
width = 1686.06038;
},
{
anchors = (
{
name = "#entry";
pos = (226,2048);
},
{
name = bottom;
pos = (926,0);
},
{
name = cross;
pos = (350,1760);
},
{
name = top;
pos = (930,1792);
}
);
layerId = "CD0E3B44-F66A-4791-B84C-A1128DC61275";
shapes = (
{
closed = 1;
nodes = (
(462,0,l),
(462,236,l),
(488,236,l),
(542,150,o),
(642,-32,o),
(936,-32,cs),
(1318,-32,o),
(1588,276,o),
(1588,764,cs),
(1588,1250,o),
(1318,1556,o),
(932,1556,cs),
(634,1556,o),
(542,1374,o),
(488,1292,c),
(470,1292,l),
(470,2048,l),
(226,2048,l),
(226,0,l)
);
},
{
closed = 1;
nodes = (
(464,1110,o),
(616,1338,o),
(900,1338,cs),
(1196,1338,o),
(1342,1090,o),
(1342,768,cs),
(1342,442,o),
(1192,186,o),
(900,186,cs),
(620,186,o),
(464,424,o),
(464,768,cs)
);
}
);
width = 1710;
}
);
metricLeft = H;
note = "top anchor should match top anchor of i";
unicode = 98;
userData = {
"interface.width-adjustments" = (
-16
);
};
}
{
color = (219,235,247,1);
glyphname = d;
kernLeft = c;
kernRight = H;
layers = (
{
anchors = (
{
name = _symbol;
pos = (908,1014);
},
{
name = bottom;
pos = (908,0);
},
{
name = cross;
pos = (1292,1760);
},
{
name = raccent;
pos = (1844,2048);
},
{
name = top;
pos = (752,2048);
}
);
layerId = "5C20EF92-B63D-42A8-8878-93C2863E0093";
shapes = (
{
closed = 1;
nodes = (
(912,-20,o),
(1060,96,o),
(1124,252,c),
(1136,252,l),
(1136,0,l),
(1684,0,l),
(1684,2048,l),
(1132,2048,l),
(1132,1268,l),
(1124,1268,l),
(1064,1424,o),
(920,1556,o),
(692,1556,cs),
(388,1556,o),
(92,1324,o),
(92,768,c),
(92,236,o),
(368,-20,o),
(696,-20,cs)
);
},
{
closed = 1;
nodes = (
(748,404,o),
(660,540,o),
(660,768,cs),
(660,996,o),
(748,1132,o),
(900,1132,cs),
(1052,1132,o),
(1144,996,o),
(1144,768,c),
(1144,544,o),
(1052,404,o),
(900,404,cs)
);
}
);
width = 1816;
},
{
anchors = (
{
name = _symbol;
pos = (810,1008);
},
{
name = bottom;
pos = (788,0);
},
{
name = cross;
pos = (1220,1760);
},
{
name = raccent;
pos = (1512,2048);
},
{
name = top;
pos = (760,2048);
}
);
layerId = "B1F27B51-9973-4381-9301-4FE46FE1CA59";
metricLeft = "=o";
shapes = (
{
closed = 1;
nodes = (
(986,-32,o),
(1176,130,o),
(1260,384,c),
(1268,384,l),
(1268,0,l),
(1332,0,l),
(1332,2048,l),
(1268,2048,l),
(1268,1144,l),
(1260,1144,l),
(1180,1400,o),
(984,1560,o),
(740,1560,cs),
(380,1560,o),
(148,1216,o),
(148,764,cs),
(148,310,o),
(376,-32,o),
(740,-32,cs)
);
},
{
closed = 1;
nodes = (
(414,32,o),
(212,348,o),
(212,764,cs),
(212,1180,o),
(416,1496,o),
(740,1496,cs),
(1064,1496,o),
(1268,1180,o),
(1268,764,cs),
(1268,348,o),
(1066,32,o),
(740,32,cs)
);
}
);
width = 1620;
},
{
anchors = (
{
name = _symbol;
pos = (855,1008);
},
{
name = bottom;
pos = (828,0);
},
{
name = cross;
pos = (1260,1760);
},
{
name = raccent;
pos = (1680,2048);
},
{
name = top;
pos = (802,2048);
}
);
layerId = "CD0E3B44-F66A-4791-B84C-A1128DC61275";
shapes = (
{
closed = 1;
nodes = (
(1068,-32,o),
(1168,150,o),
(1222,236,c),
(1248,236,l),
(1248,0,l),
(1484,0,l),
(1484,2048,l),
(1240,2048,l),
(1240,1292,l),
(1222,1292,l),
(1170,1374,o),
(1076,1556,o),
(778,1556,cs),
(392,1556,o),
(122,1250,o),
(122,764,cs),
(122,276,o),
(392,-32,o),
(774,-32,cs)
);
},
{
closed = 1;
nodes = (
(518,186,o),
(368,442,o),
(368,768,cs),
(368,1090,o),
(514,1338,o),
(810,1338,cs),
(1094,1338,o),
(1246,1110,o),
(1246,768,cs),
(1246,424,o),
(1090,186,o),
(810,186,cs)
);
}
);
width = 1710;
}
);
metricRight = H;
unicode = 100;
userData = {
"interface.width-adjustments" = (
-16
);
};
}
{
color = (219,235,247,1);
glyphname = g;
kernLeft = c;
kernRight = g;
layers = (
{
anchors = (
{
name = bottom;
pos = (880,-572);
},
{
name = cross;
pos = (1408,780);
},
{
name = top;
pos = (880,1792);
}
);
layerId = "5C20EF92-B63D-42A8-8878-93C2863E0093";
shapes = (
{
closed = 1;
nodes = (
(1366,-608,o),
(1688,-386,o),
(1688,4,cs),
(1688,1536,l),
(1136,1536,l),
(1136,1268,l),
(1124,1268,l),
(1064,1424,o),
(920,1556,o),
(692,1556,cs),
(388,1556,o),
(92,1324,o),
(92,768,cs),
(92,236,o),
(368,20,o),
(696,20,cs),
(904,20,o),
(1068,108,o),
(1128,264,c),
(1144,264,l),
(1144,4,ls),
(1144,-177,o),
(1039,-236,o),
(896,-236,cs),
(769,-236,o),
(676,-198,o),
(660,-100,c),
(128,-100,l),
(149,-396,o),
(418,-608,o),
(880,-608,cs)
);
},
{
closed = 1;
nodes = (
(748,412,o),
(660,540,o),
(660,768,cs),
(660,996,o),
(748,1132,o),
(900,1132,cs),
(1052,1132,o),
(1144,996,o),
(1144,768,cs),
(1144,544,o),
(1052,412,o),
(900,412,cs)
);
}
);
width = 1828;
},
{
anchors = (
{
name = bottom;
pos = (780,-572);
},
{
name = bottom_dd;
pos = (1704,-560);
},
{
name = cross;
pos = (1308,780);
},
{
name = top;
pos = (780,1768);
},
{
name = top0315;
pos = (1704,1776);
},
{
name = top_dd;
pos = (1704,2200);
}
);
associatedMasterId = "5C20EF92-B63D-42A8-8878-93C2863E0093";
layerId = "62BD6BE4-77E0-4C2F-B706-F2CF0293CEEF";
name = "Sep 9 18, 17:18";
shapes = (
{
closed = 1;
nodes = (
(1036,1256,l),
(1256,728,l),
(1048,224,l),
(1048,96,l),
(1048,124,l),
(1048,-84,o),
(936,-140,o),
(752,-140,cs),
(604,-140,o),
(476,-116,o),
(364,-48,c),
(164,-432,l),
(248,-484,o),
(496,-576,o),
(776,-576,cs),
(1256,-576,o),
(1584,-296,o),
(1584,100,cs),
(1584,1524,l),
(1036,1524,l)
);
},
{
closed = 1;
nodes = (
(1016,1404,l),
(960,1536,o),
(804,1556,o),
(684,1556,cs),
(388,1556,o),
(84,1324,o),
(84,780,cs),
(84,240,o),
(384,36,o),
(688,36,cs),
(844,36,o),
(984,76,o),
(1020,156,c),
(1252,156,l),
(1252,1404,l)
);
},
{
closed = 1;
nodes = (
(600,1004,o),
(688,1132,o),
(864,1132,cs),
(1052,1132,o),
(1100,956,o),
(1100,780,cs),
(1100,596,o),
(1048,448,o),
(864,448,cs),
(712,448,o),
(600,532,o),
(600,780,cs)
);
}
);
width = 1712;
},
{
anchors = (
{
name = bottom;
pos = (880,-572);
},
{
name = bottom_dd;
pos = (1804,-560);
},
{
name = cross;
pos = (1408,780);
},
{
name = top;
pos = (880,1768);
},
{
name = top0315;
pos = (1804,1776);
},
{
name = top_dd;
pos = (1804,2200);
}
);
associatedMasterId = "5C20EF92-B63D-42A8-8878-93C2863E0093";
background = {
shapes = (
{
pos = (8,0);
ref = d;
}
);
};
layerId = "18C495AE-FAFA-434D-BDF0-5F666B60BFFA";
name = "Nov 23 18, 15:17";
shapes = (
{
closed = 1;
nodes = (
(1388,-612,o),
(1684,-296,o),
(1684,100,cs),
(1684,1536,l),
(1136,1536,l),
(1136,1268,l),
(1124,1268,l),
(1064,1424,o),
(920,1556,o),
(692,1556,cs),
(388,1556,o),
(92,1324,o),
(92,768,cs),
(92,236,o),
(368,20,o),
(696,20,cs),
(904,20,o),
(1068,108,o),
(1128,264,c),
(1152,264,l),
(1152,96,ls),
(1152,-68,o),
(1004,-204,o),
(800,-204,cs),
(652,-204,o),
(528,-136,o),
(472,-72,c),
(128,-344,l),
(244,-492,o),
(436,-612,o),
(796,-612,cs)
);
},
{
closed = 1;
nodes = (
(748,412,o),
(660,540,o),
(660,768,cs),
(660,996,o),
(748,1132,o),
(900,1132,cs),
(1052,1132,o),
(1144,996,o),
(1144,768,cs),
(1144,544,o),
(1052,412,o),
(900,412,cs)
);
}
);
width = 1824;
},
{
anchors = (
{
name = bottom;
pos = (740,-600);
},
{
name = cross;
pos = (1300,768);
},
{
name = top;
pos = (788,1792);
}
);
layerId = "B1F27B51-9973-4381-9301-4FE46FE1CA59";
shapes = (
{
closed = 1;
nodes = (
(1115,-608,o),
(1332,-411,o),
(1332,-32,cs),
(1332,1536,l),
(1268,1536,l),
(1268,1144,l),
(1260,1144,l),
(1176,1400,o),
(988,1560,o),
(740,1560,cs),
(376,1560,o),
(148,1220,o),
(148,764,cs),
(148,312,o),
(380,0,o),
(740,0,cs),
(968,0,o),
(1180,128,o),
(1260,384,c),
(1268,384,l),
(1268,-32,ls),
(1268,-377,o),
(1080,-544,o),
(760,-544,cs),
(529,-544,o),
(325,-457,o),
(276,-276,c),
(206,-276,l),
(264,-506,o),
(502,-608,o),
(760,-608,cs)
);
},
{
closed = 1;
nodes = (
(416,64,o),
(212,348,o),
(212,764,cs),
(212,1180,o),
(414,1496,o),
(740,1496,cs),
(1066,1496,o),
(1268,1180,o),
(1268,764,cs),
(1268,333,o),
(1060,64,o),
(740,64,cs)
);
}
);
width = 1580;
},
{
anchors = (
{
name = bottom;
pos = (772,-600);
},
{
name = cross;
pos = (1332,768);
},
{
name = top;
pos = (820,1792);
}
);
associatedMasterId = "B1F27B51-9973-4381-9301-4FE46FE1CA59";
layerId = "2181E5E1-B714-4E06-B311-1F9B017BDC01";
name = "Nov 29 18, 19:54";
shapes = (
{
closed = 1;
nodes = (
(1128,-608,o),
(1364,-404,o),
(1364,-92,cs),
(1364,1536,l),
(1300,1536,l),
(1300,1144,l),
(1292,1144,l),
(1208,1400,o),
(1020,1560,o),
(772,1560,cs),
(408,1560,o),
(180,1220,o),
(180,764,cs),
(180,312,o),
(412,0,o),
(772,0,cs),
(1001,0,o),
(1212,128,o),
(1292,384,c),
(1300,384,l),
(1300,-92,ls),
(1300,-368,o),
(1092,-544,o),
(776,-544,cs),
(487,-544,o),
(385,-396,o),
(308,-292,c),
(260,-332,l),
(337,-436,o),
(453,-608,o),
(776,-608,cs)
);
},
{
closed = 1;
nodes = (
(448,64,o),
(244,348,o),
(244,764,cs),
(244,1180,o),
(446,1496,o),
(772,1496,cs),
(1098,1496,o),
(1300,1180,o),
(1300,764,cs),
(1300,333,o),
(1092,64,o),
(772,64,cs)
);
}
);
width = 1644;
},
{
anchors = (
{
name = bottom;
pos = (904,-572);
},
{
name = cross;
pos = (1432,780);
},
{
name = top;
pos = (904,1792);
}
);
associatedMasterId = "5C20EF92-B63D-42A8-8878-93C2863E0093";
layerId = "5F517A95-D4C0-4DAF-9129-E5EE3EE0037B";
name = "May 15, 21 16:49";
shapes = (
{
closed = 1;
nodes = (
(1390,-608,o),
(1712,-386,o),
(1712,4,cs),
(1712,1536,l),
(1160,1536,l),
(1160,1268,l),
(1148,1268,l),
(1088,1424,o),
(944,1556,o),
(716,1556,cs),
(412,1556,o),
(116,1324,o),
(116,768,cs),
(116,236,o),
(392,20,o),
(720,20,cs),
(928,20,o),
(1092,108,o),
(1152,264,c),
(1168,264,l),
(1168,4,ls),
(1168,-178,o),
(1064,-236,o),
(920,-236,cs),
(794,-236,o),
(700,-198,o),
(684,-100,c),
(152,-100,l),
(174,-396,o),
(442,-608,o),
(904,-608,cs)
);
},
{
closed = 1;
nodes = (
(772,412,o),
(684,540,o),
(684,768,cs),
(684,996,o),
(772,1132,o),
(924,1132,cs),
(1076,1132,o),
(1168,996,o),
(1168,768,cs),
(1168,544,o),
(1076,412,o),
(924,412,cs)
);
}
);
width = 1876;
},
{
anchors = (
{
name = bottom;
pos = (740,-600);
},
{
name = cross;
pos = (1300,768);
},
{
name = top;
pos = (788,1792);
}
);
associatedMasterId = "B1F27B51-9973-4381-9301-4FE46FE1CA59";
layerId = "12B3148C-0C65-4058-92A9-EF4DFCAE1E78";
name = "May 15, 21 16:49";
shapes = (
{
closed = 1;
nodes = (
(1115,-608,o),
(1332,-411,o),
(1332,-32,cs),
(1332,1536,l),
(1268,1536,l),
(1268,1144,l),
(1260,1144,l),
(1176,1400,o),
(988,1560,o),
(740,1560,cs),
(376,1560,o),
(148,1220,o),
(148,764,cs),
(148,312,o),
(380,0,o),
(740,0,cs),
(968,0,o),
(1180,128,o),
(1260,384,c),
(1268,384,l),
(1268,-32,ls),
(1268,-377,o),
(1080,-544,o),
(760,-544,cs),
(529,-544,o),
(345,-457,o),
(276,-276,c),
(216,-300,l),
(294,-505,o),
(502,-608,o),
(760,-608,cs)
);
},
{
closed = 1;
nodes = (
(416,64,o),
(212,348,o),
(212,764,cs),
(212,1180,o),
(414,1496,o),
(740,1496,cs),
(1066,1496,o),
(1268,1180,o),
(1268,764,cs),
(1268,333,o),
(1060,64,o),
(740,64,cs)
);
}
);
width = 1580;
},
{
anchors = (
{
name = bottom;
pos = (836,-608);
},
{
name = cross;
pos = (1368,776);
},
{
name = top;
pos = (840,1792);
}
);
layerId = "CD0E3B44-F66A-4791-B84C-A1128DC61275";
shapes = (
{
closed = 1;
nodes = (
(1192,-608,o),
(1484,-438,o),
(1484,-42,cs),
(1484,1536,l),
(1248,1536,l),
(1248,1292,l),
(1226,1292,l),
(1172,1374,o),
(1076,1556,o),
(778,1556,cs),
(392,1556,o),
(122,1262,o),
(122,788,cs),
(122,306,o),
(402,24,o),
(774,24,cs),
(1072,24,o),
(1170,198,o),
(1222,284,c),
(1242,284,l),
(1242,-28,ls),
(1242,-282,o),
(1080,-396,o),
(818,-396,cs),
(600,-396,o),
(454,-318,o),
(422,-160,c),
(166,-160,l),
(194,-446,o),
(446,-608,o),
(818,-608,cs)
);
},
{
closed = 1;
nodes = (
(518,240,o),
(368,462,o),
(368,780,cs),
(368,1090,o),
(514,1338,o),
(810,1338,cs),
(1094,1338,o),
(1246,1110,o),
(1246,780,cs),
(1246,442,o),
(1090,240,o),
(810,240,cs)
);
}
);
width = 1678;
}
);
metricLeft = d;
metricRight = idotless;
unicode = 103;
userData = {
"interface.width-adjustments" = (
-16
);
};
}
{
glyphname = r;
kernLeft = m;
kernRight = r;
layers = (
{
anchors = (
{
name = bottom;
pos = (420,0);
},
{
name = cross;
pos = (416,736);
},
{
name = top;
pos = (664,1792);
}
);
background = {
shapes = (
{
ref = r.1;
}
);
};
layerId = "5C20EF92-B63D-42A8-8878-93C2863E0093";
shapes = (
{
closed = 1;
nodes = (
(692,0,l),
(692,800,ls),
(692,976,o),
(813,1092,o),
(976,1092,cs),
(1033,1092,o),
(1125,1083,o),
(1180,1064,c),
(1180,1536,l),
(1136,1548,o),
(1088,1556,o),
(1040,1556,c),
(876,1556,o),
(748,1460,o),
(692,1244,c),
(676,1244,l),
(676,1536,l),
(140,1536,l),
(140,0,l)
);
}
);
width = 1220;
},
{
anchors = (
{
name = bottom;
pos = (272,0);
},
{
name = cross;
pos = (272,736);
},
{
name = top;
pos = (556,1792);
}
);
layerId = "B1F27B51-9973-4381-9301-4FE46FE1CA59";
shapes = (
{
closed = 1;
nodes = (
(304,0,l),
(304,1032,ls),
(304,1300,o),
(500,1492,o),
(772,1492,cs),
(788,1492,o),
(788,1492,o),
(804,1492,c),
(804,1556,l),
(788,1556,o),
(788,1556,o),
(772,1556,cs),
(560,1556,o),
(384,1452,o),
(312,1292,c),
(304,1292,l),
(304,1536,l),
(240,1536,l),
(240,0,l)
);
}
);
width = 852;
},
{
anchors = (
{
name = bottom;
pos = (302,0);
},
{
name = cross;
pos = (306,736);
},
{
name = top;
pos = (550,1792);
}
);
associatedMasterId = "CD0E3B44-F66A-4791-B84C-A1128DC61275";
layerId = "5EE7B7D9-BD5F-4A49-B4EA-0B85294B465C";
shapes = (
{
closed = 1;
nodes = (
(426,0,l),
(426,968,ls),
(426,1174,o),
(590,1326,o),
(812,1326,cs),
(874,1326,o),
(940,1314,o),
(958,1310,c),
(958,1556,l),
(930,1558,o),
(868,1560,o),
(832,1560,cs),
(650,1560,o),
(490,1456,o),
(434,1302,c),
(418,1302,l),
(418,1536,l),
(182,1536,l),
(182,0,l)
);
}
);
width = 988.61132;
},
{
anchors = (
{
name = bottom;
pos = (314,0);
},
{
name = cross;
pos = (318,736);
},
{
name = top;
pos = (562,1792);
}
);
layerId = "CD0E3B44-F66A-4791-B84C-A1128DC61275";
shapes = (
{
closed = 1;
nodes = (
(438,0,l),
(438,968,ls),
(438,1174,o),
(602,1326,o),
(824,1326,cs),
(886,1326,o),
(952,1314,o),
(970,1310,c),
(970,1556,l),
(942,1558,o),
(880,1560,o),
(844,1560,cs),
(662,1560,o),
(502,1456,o),
(446,1302,c),
(430,1302,l),
(430,1536,l),
(194,1536,l),
(194,0,l)
);
}
);
width = 1012;
}
);
metricLeft = r;
unicode = 114;
}
{
color = (219,235,247,1);
glyphname = s;
kernLeft = s;
kernRight = m;
layers = (
{
anchors = (
{
name = bottom;
pos = (832,0);
},
{
name = cedilla;
pos = (844,0);
},
{
name = top;
pos = (832,1792);
}
);
guides = (
{
pos = (-152,2280);
}
);
layerId = "5C20EF92-B63D-42A8-8878-93C2863E0093";
shapes = (
{
closed = 1;
nodes = (
(1530,1361,o),
(1260,1556,o),
(816,1556,cs),
(377,1556,o),
(106,1376,o),
(108,1056,cs),
(106,814,o),
(263,659,o),
(576,604,cs),
(848,556,ls),
(968,534,o),
(1022,502,o),
(1024,444,cs),
(1022,380,o),
(949,344,o),
(848,344,cs),
(723,344,o),
(635,398,o),
(620,496,c),
(72,496,l),
(102,181,o),
(374,-28,o),
(844,-28,cs),
(1269,-28,o),
(1582,179,o),
(1584,508,cs),
(1582,735,o),
(1430,867,o),
(1116,924,cs),
(804,980,ls),
(687,1001,o),
(654,1043,o),
(656,1088,cs),
(654,1152,o),
(733,1188,o),
(828,1188,cs),
(937,1188,o),
(1028,1130,o),
(1036,1036,c),
(1544,1036,l)
);
}
);
width = 1656;
},
{
anchors = (
{
name = bottom;
pos = (676,0);
},
{
name = cedilla;
pos = (672,0);
},
{
name = top;
pos = (680,1792);
}
);
guides = (
{
angle = 90;
pos = (576,2204);
}
);
layerId = "B1F27B51-9973-4381-9301-4FE46FE1CA59";
shapes = (
{
closed = 1;
nodes = (
(1120,1411,o),
(948,1558,o),
(688,1560,cs),
(408,1562,o),
(212,1397,o),
(212,1156,cs),
(212,964,o),
(336,827,o),
(572,768,cs),
(812,708,ls),
(1010,659,o),
(1108,542,o),
(1108,384,cs),
(1108,171,o),
(929,32,o),
(660,32,cs),
(414,32,o),
(256,149,o),
(220,360,c),
(152,360,l),
(190,113,o),
(379,-32,o),
(660,-32,cs),
(965,-32,o),
(1172,139,o),
(1172,388,cs),
(1172,576,o),
(1054,716,o),
(828,772,cs),
(588,832,ls),
(380,884,o),
(276,997,o),
(276,1156,cs),
(276,1357,o),
(444,1498,o),
(688,1496,cs),
(902,1494,o),
(1054,1385,o),
(1092,1204,c),
(1160,1204,l)
);
}
);
width = 1324;
},
{
anchors = (
{
name = bottom;
pos = (716,0);
},
{
name = cedilla;
pos = (704,0);
},
{
name = top;
pos = (716,1808);
}
);
associatedMasterId = "B1F27B51-9973-4381-9301-4FE46FE1CA59";
layerId = "ED48F640-DB1C-4980-AE86-D09ADB1F47A8";
name = "Nov 29 18, 21:25";
shapes = (
{
closed = 0;
nodes = (
(208,360,l),
(257,125,o),
(428,0,o),
(680,0,cs),
(965,0,o),
(1160,155,o),
(1160,388,cs),
(1160,560,o),
(1054,681,o),
(840,736,cs),
(600,804,ls),
(369,864,o),
(264,989,o),
(264,1160,cs),
(264,1389,o),
(453,1532,o),
(708,1532,cs),
(931,1532,o),
(1079,1422,o),
(1148,1208,c)
);
}
);
width = 1362;
},
{
anchors = (
{
name = bottom;
pos = (856,0);
},
{
name = cedilla;
pos = (868,0);
},
{
name = top;
pos = (856,1792);
}
);
associatedMasterId = "5C20EF92-B63D-42A8-8878-93C2863E0093";
guides = (
{
pos = (36,2280);
}
);
layerId = "09EECEAD-938E-40E9-85EB-551FCC8F74D9";
name = "May 15, 21 16:52";
shapes = (
{
closed = 1;
nodes = (
(1554,1361,o),
(1284,1556,o),
(840,1556,cs),
(401,1556,o),
(130,1376,o),
(132,1056,cs),
(130,814,o),
(287,659,o),
(600,604,cs),
(872,556,ls),
(992,534,o),
(1046,502,o),
(1048,444,cs),
(1046,380,o),
(973,344,o),
(872,344,cs),
(747,344,o),
(659,398,o),
(644,496,c),
(96,496,l),
(126,181,o),
(398,-28,o),
(868,-28,cs),
(1293,-28,o),
(1606,179,o),
(1608,508,cs),
(1606,735,o),
(1454,867,o),
(1140,924,cs),
(828,980,ls),
(711,1001,o),
(678,1043,o),
(680,1088,cs),
(678,1152,o),
(757,1188,o),
(852,1188,cs),
(961,1188,o),
(1052,1130,o),
(1060,1036,c),
(1568,1036,l)
);
}
);
width = 1704;
},
{
anchors = (
{
name = bottom;
pos = (676,0);
},
{
name = cedilla;
pos = (672,0);
},
{
name = top;
pos = (680,1792);
}
);
associatedMasterId = "B1F27B51-9973-4381-9301-4FE46FE1CA59";
guides = (
{
angle = 90;
pos = (576,2204);
}
);
layerId = "C6A20685-9EBA-433E-892F-CEA5E2ACCE6E";
name = "May 15, 21 16:52";
shapes = (
{
closed = 1;
nodes = (
(1085,1442,o),
(925,1560,o),
(688,1560,cs),
(408,1560,o),
(212,1397,o),
(212,1156,cs),
(212,964,o),
(336,827,o),
(572,768,cs),
(812,708,ls),
(1009,659,o),
(1108,547,o),
(1108,388,cs),
(1108,174,o),
(927,32,o),
(660,32,cs),
(416,32,o),
(265,150,o),
(220,368,c),
(156,352,l),
(208,107,o),
(387,-32,o),
(660,-32,cs),
(961,-32,o),
(1172,137,o),
(1172,388,cs),
(1172,577,o),
(1053,716,o),
(828,772,cs),
(588,832,ls),
(379,884,o),
(276,995,o),
(276,1156,cs),
(276,1360,o),
(443,1496,o),
(688,1496,cs),
(899,1496,o),
(1033,1396,o),
(1096,1196,c),
(1160,1212,l)
);
}
);
width = 1324;
},
{
anchors = (
{
name = bottom;
pos = (734,0);
},
{
name = cedilla;
pos = (730,0);
},
{
name = top;
pos = (742,1792);
}
);
layerId = "CD0E3B44-F66A-4791-B84C-A1128DC61275";
shapes = (
{
closed = 1;
nodes = (
(1256,1386,o),
(1056,1556,o),
(738,1556,cs),
(400,1556,o),
(170,1366,o),
(170,1104,cs),
(170,898,o),
(312,752,o),
(580,690,cs),
(812,636,ls),
(986,596,o),
(1064,524,o),
(1064,416,cs),
(1064,272,o),
(926,180,o),
(708,180,cs),
(514,180,o),
(404,252,o),
(376,402,c),
(122,402,l),
(162,122,o),
(368,-32,o),
(712,-32,cs),
(1098,-32,o),
(1314,164,o),
(1314,430,cs),
(1314,644,o),
(1180,780,o),
(906,846,cs),
(676,902,ls),
(496,946,o),
(414,1016,o),
(414,1118,cs),
(414,1246,o),
(548,1348,o),
(738,1348,cs),
(918,1348,o),
(1016,1264,o),
(1048,1136,c),
(1288,1136,l)
);
}
);
width = 1436;
},
{
anchors = (
{
name = bottom;
pos = (724,0);
},
{
name = cedilla;
pos = (720,0);
},
{
name = top;
pos = (732,1792);
}
);
associatedMasterId = "CD0E3B44-F66A-4791-B84C-A1128DC61275";
layerId = "E504D81C-C052-4975-BF61-2EC20CCB3403";
name = "Jun 15, 21 1:45";
shapes = (
{
closed = 1;
nodes = (
(1236,1404,o),
(1038,1556,o),
(732,1556,cs),
(406,1556,o),
(164,1372,o),
(164,1110,cs),
(164,898,o),
(290,756,o),
(574,690,cs),
(830,630,ls),
(984,594,o),
(1056,522,o),
(1056,416,cs),
(1056,286,o),
(938,180,o),
(702,180,cs),
(498,180,o),
(394,258,o),
(370,398,c),
(124,398,l),
(160,126,o),
(356,-32,o),
(704,-32,cs),
(1088,-32,o),
(1308,164,o),
(1308,430,cs),
(1308,644,o),
(1174,780,o),
(898,846,cs),
(668,902,ls),
(488,946,o),
(408,1006,o),
(408,1124,cs),
(408,1254,o),
(554,1348,o),
(732,1348,cs),
(894,1348,o),
(1010,1280,o),
(1042,1148,c),
(1282,1148,l)
);
}
);
width = 1416;
}
);
unicode = 115;
userData = {
com.typemytype.robofont.guideline.magnetic.1Y8sphnsuc = 5;
com.typemytype.robofont.guideline.magnetic.DuqEUxnaaT = 5;
com.typemytype.robofont.guideline.magnetic.XmDxFVnKBu = 5;
"interface.width-adjustments" = (
-16
);
};
}
{
color = (219,235,247,1);
glyphname = t;
kernLeft = t;
kernRight = t;
layers = (
{
anchors = (
{
name = _symbol;
pos = (570,941);
},
{
name = raccent;
pos = (970,2148);
}
);
guides = (
{
angle = 90;
pos = (368,2408);
}
);
layerId = "5C20EF92-B63D-42A8-8878-93C2863E0093";
shapes = (
{
closed = 1;
nodes = (
(44,1536,l),
(44,1136,l),
(1056,1136,l),
(1056,1536,l)
);
},
{
ref = _part.t_base;
}
);
width = 1140;
},
{
anchors = (
{
name = _symbol;
pos = (458,938);
},
{
name = raccent;
pos = (594,2148);
}
);
guides = (
{
angle = 90;
pos = (264,1608);
}
);
layerId = "B1F27B51-9973-4381-9301-4FE46FE1CA59";
shapes = (
{
closed = 1;
nodes = (
(112,1536,l),
(112,1472,l),
(720,1472,l),
(720,1536,l)
);
},
{
ref = _part.t_base;
}
);
width = 916;
},
{
anchors = (
{
name = _symbol;
pos = (492,942);
},
{
name = raccent;
pos = (710,2148);
}
);
layerId = "CD0E3B44-F66A-4791-B84C-A1128DC61275";
shapes = (
{
closed = 1;
nodes = (
(66,1536,l),
(66,1332,l),
(866,1332,l),
(866,1536,l)
);
},
{
alignment = -1;
ref = _part.t_base;
}
);
width = 984;
}
);
unicode = 116;
userData = {
com.typemytype.robofont.guideline.magnetic.y5AZhPlfwM = 5;
"interface.width-adjustments" = (
-16
);
};
}
{
glyphname = braceleft;
kernLeft = parenleft;
kernRight = parenleft;
layers = (
{
background = {
guides = (
{
pos = (1212,792);
}
);
shapes = (
{
ref = bracketleft;
}
);
};
guides = (
{
pos = (1064,792);
},
{
pos = (1068,-464);
}
);
layerId = "5C20EF92-B63D-42A8-8878-93C2863E0093";
shapes = (
{
closed = 1;
nodes = (
(787,768,o),
(924,968,o),
(924,1168,cs),
(924,1488,ls),
(924,1655,o),
(956,1736,o),
(1196,1736,c),
(1196,2136,l),
(784,2136,o),
(388,2136,o),
(388,1560,cs),
(388,1304,ls),
(388,1108,o),
(310,1020,o),
(76,1020,c),
(76,768,l)
);
},
{
closed = 1;
nodes = (
(1196,-176,l),
(956,-176,o),
(924,-95,o),
(924,72,cs),
(924,392,ls),
(924,592,o),
(787,792,o),
(76,792,c),
(76,540,l),
(310,540,o),
(388,452,o),
(388,256,cs),
(388,0,ls),
(388,-576,o),
(784,-576,o),
(1196,-576,c)
);
},
{
closed = 1;
nodes = (
(516,540,l),
(516,1020,l),
(76,1020,l),
(76,540,l)
);
}
);
width = 1240;
},
{
guides = (
{
pos = (-84,2728);
},
{
pos = (-84,168);
},
{
pos = (500,1448);
}
);
layerId = "B1F27B51-9973-4381-9301-4FE46FE1CA59";
shapes = (
{
closed = 1;
nodes = (
(419,748,o),
(512,843,o),
(512,1108,cs),
(512,1708,ls),
(512,1963,o),
(603,2072,o),
(812,2072,c),
(812,2136,l),
(565,2136,o),
(448,1997,o),
(448,1708,cs),
(448,1108,ls),
(448,878,o),
(383,812,o),
(152,812,c),
(152,748,l)
);
},
{
closed = 1;
nodes = (
(812,-512,l),
(603,-512,o),
(512,-403,o),
(512,-148,cs),
(512,452,ls),
(512,714,o),
(419,809,o),
(152,812,c),
(152,748,l),
(383,748,o),
(448,680,o),
(448,452,cs),
(448,-148,ls),
(448,-437,o),
(565,-576,o),
(812,-576,c)
);
},
{
closed = 1;
nodes = (
(368,748,l),
(368,812,l),
(152,812,l),
(152,748,l)
);
}
);
width = 824;
},
{
associatedMasterId = "B1F27B51-9973-4381-9301-4FE46FE1CA59";
background = {
shapes = (
{
closed = 1;
nodes = (
(385,908,o),
(438,1012,o),
(440,1224,cs),
(440,1732,ls),
(438,2007,o),
(534,2128,o),
(760,2128,c),
(760,2204,l),
(381,2202,o),
(414,1933,o),
(416,1692,cs),
(416,1272,ls),
(414,1038,o),
(337,955,o),
(120,956,c),
(120,908,l)
);
},
{
closed = 1;
nodes = (
(760,-316,l),
(534,-314,o),
(438,-193,o),
(440,84,cs),
(440,592,ls),
(438,802,o),
(385,906,o),
(120,908,c),
(120,860,l),
(337,859,o),
(414,776,o),
(416,544,cs),
(416,124,ls),
(414,-118,o),
(381,-387,o),
(760,-388,c)
);
},
{
closed = 1;
nodes = (
(236,860,l),
(236,956,l),
(120,956,l),
(120,860,l)
);
}
);
};
guides = (
{
pos = (52,2144);
},
{
pos = (52,-416);
},
{
pos = (636,864);
}
);
layerId = "0FCB815A-61ED-4764-8959-4BBA2BE46BCE";
name = "Dec 27 18, 14:58";
shapes = (
{
closed = 0;
nodes = (
(184,872,l),
(462,873,o),
(512,985,o),
(512,1200,cs),
(512,1716,ls),
(512,1996,o),
(622,2113,o),
(844,2112,c)
);
},
{
closed = 0;
nodes = (
(844,-384,l),
(622,-385,o),
(512,-268,o),
(512,12,cs),
(512,528,ls),
(512,743,o),
(462,855,o),
(184,856,c)
);
}
);
width = 888;
},
{
associatedMasterId = "B1F27B51-9973-4381-9301-4FE46FE1CA59";
background = {
shapes = (
{
closed = 1;
nodes = (
(385,908,o),
(438,1012,o),
(440,1224,cs),
(440,1732,ls),
(438,2007,o),
(534,2128,o),
(760,2128,c),
(760,2204,l),
(381,2202,o),
(414,1933,o),
(416,1692,cs),
(416,1272,ls),
(414,1038,o),
(337,955,o),
(120,956,c),
(120,908,l)
);
},
{
closed = 1;
nodes = (
(760,-316,l),
(534,-314,o),
(438,-193,o),
(440,84,cs),
(440,592,ls),
(438,802,o),
(385,906,o),
(120,908,c),
(120,860,l),
(337,859,o),
(414,776,o),
(416,544,cs),
(416,124,ls),
(414,-118,o),
(381,-387,o),
(760,-388,c)
);
},
{
closed = 1;
nodes = (
(236,860,l),
(236,956,l),
(120,956,l),
(120,860,l)
);
}
);
};
guides = (
{
pos = (52,2144);
},
{
pos = (52,-416);
},
{
pos = (636,864);
}
);
layerId = "260A4824-ACF0-46C3-8347-AA4107B224D9";
name = "Dec 27 18, 15:03";
shapes = (
{
closed = 0;
nodes = (
(844,-384,l),
(622,-385,o),
(512,-268,o),
(512,12,cs),
(512,536,ls),
(512,751,o),
(462,863,o),
(184,864,c),
(462,865,o),
(512,977,o),
(512,1192,cs),
(512,1716,ls),
(512,1996,o),
(622,2113,o),
(844,2112,c)
);
}
);
width = 888;
},
{
associatedMasterId = "CD0E3B44-F66A-4791-B84C-A1128DC61275";
layerId = "8340E201-5195-40E4-9AF8-957B743CEDDA";
shapes = (
{
closed = 1;
nodes = (
(510,858,o),
(596,1000,o),
(596,1208,cs),
(596,1602,ls),
(596,1836,o),
(666,1940,o),
(898,1940,c),
(898,2142,l),
(506,2142,o),
(372,1978,o),
(372,1604,cs),
(372,1288,ls),
(372,1070,o),
(294,986,o),
(72,986,c),
(72,858,l)
);
},
{
closed = 1;
nodes = (
(898,-216,l),
(666,-216,o),
(596,-110,o),
(596,122,cs),
(596,518,ls),
(596,724,o),
(510,866,o),
(72,866,c),
(72,740,l),
(294,740,o),
(372,654,o),
(372,436,cs),
(372,120,ls),
(372,-254,o),
(506,-418,o),
(898,-418,c)
);
},
{
closed = 1;
nodes = (
(312,740,l),
(312,986,l),
(72,986,l),
(72,740,l)
);
}
);
width = 961.78868;
},
{
layerId = "CD0E3B44-F66A-4791-B84C-A1128DC61275";
shapes = (
{
closed = 1;
nodes = (
(520,776,o),
(606,918,o),
(606,1126,cs),
(606,1598,ls),
(606,1830,o),
(678,1934,o),
(910,1934,c),
(910,2136,l),
(516,2136,o),
(382,1972,o),
(382,1600,cs),
(382,1204,ls),
(382,986,o),
(306,902,o),
(82,902,c),
(82,776,l)
);
},
{
closed = 1;
nodes = (
(910,-374,l),
(678,-374,o),
(606,-270,o),
(606,-38,cs),
(606,434,ls),
(606,642,o),
(520,784,o),
(82,784,c),
(82,658,l),
(306,658,o),
(382,572,o),
(382,354,cs),
(382,-40,ls),
(382,-412,o),
(516,-576,o),
(910,-576,c)
);
},
{
closed = 1;
nodes = (
(322,658,l),
(322,902,l),
(82,902,l),
(82,658,l)
);
}
);
width = 986;
},
{
associatedMasterId = "B1F27B51-9973-4381-9301-4FE46FE1CA59";
guides = (
{
pos = (-84,2728);
},
{
pos = (-84,168);
},
{
pos = (500,1448);
}
);
layerId = "52D72B11-AAAF-4C18-A385-24D790196E07";
name = "Feb 27, 22 21:31";
shapes = (
{
closed = 1;
nodes = (
(419,833,o),
(512,928,o),
(512,1192,cs),
(512,1716,ls),
(512,1972,o),
(603,2081,o),
(812,2080,c),
(812,2144,l),
(565,2145,o),
(448,2006,o),
(448,1716,cs),
(448,1192,ls),
(448,963,o),
(383,897,o),
(152,896,c),
(152,832,l)
);
},
{
closed = 1;
nodes = (
(812,-352,l),
(603,-353,o),
(512,-244,o),
(512,12,cs),
(512,536,ls),
(512,799,o),
(419,894,o),
(152,896,c),
(152,832,l),
(383,831,o),
(448,765,o),
(448,536,cs),
(448,12,ls),
(448,-278,o),
(565,-417,o),
(812,-416,c)
);
},
{
closed = 1;
nodes = (
(368,832,l),
(368,896,l),
(152,896,l),
(152,832,l)
);
}
);
width = 824;
},
{
associatedMasterId = "CD0E3B44-F66A-4791-B84C-A1128DC61275";
layerId = "9E71F851-52C1-4168-8521-79CD2DF23D47";
name = "Feb 27, 22 21:31";
shapes = (
{
closed = 1;
nodes = (
(520,858,o),
(606,1000,o),
(606,1208,cs),
(606,1602,ls),
(606,1836,o),
(676,1940,o),
(908,1940,c),
(908,2142,l),
(516,2142,o),
(382,1978,o),
(382,1604,cs),
(382,1288,ls),
(382,1070,o),
(304,986,o),
(82,986,c),
(82,858,l)
);
},
{
closed = 1;
nodes = (
(908,-216,l),
(676,-216,o),
(606,-110,o),
(606,122,cs),
(606,518,ls),
(606,724,o),
(520,866,o),
(82,866,c),
(82,740,l),
(304,740,o),
(382,654,o),
(382,436,cs),
(382,120,ls),
(382,-254,o),
(516,-418,o),
(908,-418,c)
);
},
{
closed = 1;
nodes = (
(322,740,l),
(322,986,l),
(82,986,l),
(82,740,l)
);
}
);
width = 986;
},
{
associatedMasterId = "5C20EF92-B63D-42A8-8878-93C2863E0093";
background = {
guides = (
{
pos = (1212,792);
}
);
shapes = (
{
ref = bracketleft;
}
);
};
guides = (
{
pos = (1064,792);
},
{
pos = (1068,-464);
}
);
layerId = "457A6A98-684D-4A90-BFE9-380F4EEC4DA6";
name = "Feb 27, 22 21:31";
shapes = (
{
closed = 1;
nodes = (
(787,780,o),
(924,980,o),
(924,1180,cs),
(924,1400,ls),
(924,1567,o),
(956,1648,o),
(1196,1648,c),
(1196,2048,l),
(784,2048,o),
(388,2048,o),
(388,1472,cs),
(388,1316,ls),
(388,1120,o),
(310,1032,o),
(76,1032,c),
(76,780,l)
);
},
{
closed = 1;
nodes = (
(1196,-64,l),
(956,-64,o),
(924,17,o),
(924,184,cs),
(924,404,ls),
(924,604,o),
(787,804,o),
(76,804,c),
(76,552,l),
(310,552,o),
(388,464,o),
(388,268,cs),
(388,112,ls),
(388,-464,o),
(784,-464,o),
(1196,-464,c)
);
},
{
closed = 1;
nodes = (
(516,552,l),
(516,1032,l),
(76,1032,l),
(76,552,l)
);
}
);
width = 1240;
}
);
metricWidth = parenleft;
unicode = 123;
}
{
color = (204,240,242,1);
glyphname = bar;
kernLeft = B;
kernRight = H;
layers = (
{
guides = (
{
pos = (-180,1240);
},
{
pos = (-180,764);
}
);
layerId = "5C20EF92-B63D-42A8-8878-93C2863E0093";
shapes = (
{
closed = 1;
nodes = (
(300,2336,l),
(300,-288,l),
(840,-288,l),
(840,2336,l)
);
}
);
width = 1140;
},
{
layerId = "B1F27B51-9973-4381-9301-4FE46FE1CA59";
shapes = (
{
closed = 1;
nodes = (
(320,2336,l),
(320,-288,l),
(384,-288,l),
(384,2336,l)
);
}
);
width = 704;
},
{
layerId = "CD0E3B44-F66A-4791-B84C-A1128DC61275";
shapes = (
{
closed = 1;
nodes = (
(338,2336,l),
(338,-288,l),
(548,-288,l),
(548,2336,l)
);
}
);
width = 886;
},
{
associatedMasterId = "B1F27B51-9973-4381-9301-4FE46FE1CA59";
layerId = "AC36C653-1CA0-4B58-859E-040AFF5FC452";
name = "Jun 9, 21 23:30";
shapes = (
{
closed = 1;
nodes = (
(320,2708,l),
(320,-660,l),
(384,-660,l),
(384,2708,l)
);
}
);
width = 704;
},
{
associatedMasterId = "CD0E3B44-F66A-4791-B84C-A1128DC61275";
layerId = "2A9C96B9-71C9-407E-B7F8-2372538C01DE";
name = "Jun 9, 21 23:30";
shapes = (
{
closed = 1;
nodes = (
(328,2708,l),
(328,-660,l),
(538,-660,l),
(538,2708,l)
);
}
);
width = 866;
},
{
associatedMasterId = "5C20EF92-B63D-42A8-8878-93C2863E0093";
guides = (
{
pos = (-228,1240);
},
{
pos = (-228,764);
}
);
layerId = "BDC556CE-5B73-478B-BB2C-03AC52816873";
name = "Jun 9, 21 23:30";
shapes = (
{
closed = 1;
nodes = (
(276,2708,l),
(276,-660,l),
(816,-660,l),
(816,2708,l)
);
}
);
width = 1092;
}
);
unicode = 124;
userData = {
"interface.width-adjustments" = (
-16
);
};
}
{
color = (204,240,242,1);
glyphname = asciitilde;
kernLeft = hyphen;
kernRight = hyphen;
layers = (
{
guides = (
{
orientation = center;
pos = (260,832);
}
);
layerId = "5C20EF92-B63D-42A8-8878-93C2863E0093";
shapes = (
{
closed = 1;
nodes = (
(364,621,o),
(487,668,o),
(624,668,cs),
(874,668,o),
(1073,510,o),
(1318,510,cs),
(1458,510,o),
(1587,562,o),
(1686,662,c),
(1686,1090,l),
(1588,999,o),
(1463,952,o),
(1326,952,cs),
(1076,952,o),
(877,1110,o),
(632,1110,cs),
(492,1110,o),
(365,1058,o),
(266,958,c),
(266,530,l)
);
}
);
width = 1952;
},
{
guides = (
{
pos = (132,1384);
}
);
layerId = "B1F27B51-9973-4381-9301-4FE46FE1CA59";
shapes = (
{
closed = 1;
nodes = (
(342,810,o),
(448,860,o),
(566,860,cs),
(764,860,o),
(936,698,o),
(1162,698,cs),
(1284,698,o),
(1392,748,o),
(1480,838,c),
(1480,936,l),
(1386,812,o),
(1280,762,o),
(1162,762,cs),
(964,762,o),
(792,924,o),
(566,924,cs),
(444,924,o),
(336,874,o),
(248,784,c),
(248,686,l)
);
}
);
width = 1728;
},
{
associatedMasterId = "B1F27B51-9973-4381-9301-4FE46FE1CA59";
guides = (
{
pos = (268,800);
}
);
layerId = "33973947-0638-429D-AFAA-0DABE9CBDBE5";
name = "Dec 27 18, 15:21";
shapes = (
{
closed = 0;
nodes = (
(1464,936,l),
(1427,795,o),
(1296,695,o),
(1148,696,cs),
(924,698,o),
(838,915,o),
(588,916,cs),
(417,917,o),
(281,813,o),
(260,668,c)
);
}
);
width = 1724;
},
{
layerId = "CD0E3B44-F66A-4791-B84C-A1128DC61275";
shapes = (
{
closed = 1;
nodes = (
(360,722,o),
(470,782,o),
(594,782,cs),
(802,782,o),
(998,620,o),
(1212,620,cs),
(1338,620,o),
(1448,674,o),
(1542,780,c),
(1542,1014,l),
(1456,898,o),
(1346,838,o),
(1220,838,cs),
(1012,838,o),
(818,1000,o),
(602,1000,cs),
(478,1000,o),
(366,946,o),
(274,840,c),
(274,606,l)
);
}
);
width = 1816;
},
{
associatedMasterId = "5C20EF92-B63D-42A8-8878-93C2863E0093";
guides = (
{
orientation = center;
pos = (260,832);
}
);
layerId = "30C5ED39-C14A-4927-B6CF-A73D381A0C10";
name = "Apr 10, 22 13:07";
shapes = (
{
closed = 1;
nodes = (
(604,516,l),
(600,677,o),
(664,740,o),
(748,740,cs),
(815,740,o),
(843,709,o),
(916,644,cs),
(1052,524,o),
(1162,476,o),
(1292,476,cs),
(1597,476,o),
(1766,738,o),
(1748,1148,c),
(1348,1148,l),
(1353,987,o),
(1285,924,o),
(1204,924,cs),
(1134,924,o),
(1094,965,o),
(1032,1020,cs),
(885,1151,o),
(779,1188,o),
(660,1188,cs),
(344,1188,o),
(187,926,o),
(204,516,c)
);
}
);
width = 1952;
},
{
associatedMasterId = "B1F27B51-9973-4381-9301-4FE46FE1CA59";
guides = (
{
pos = (132,1384);
}
);
layerId = "6A1D966F-C738-42E0-BD96-A11F419BE4B9";
name = "Apr 10, 22 13:07";
shapes = (
{
closed = 1;
nodes = (
(296,664,l),
(314,793,o),
(433,885,o),
(592,884,cs),
(709,883,o),
(786,831,o),
(868,776,cs),
(948,722,o),
(1030,665,o),
(1148,664,cs),
(1317,663,o),
(1454,772,o),
(1496,928,c),
(1432,944,l),
(1400,817,o),
(1288,727,o),
(1148,728,cs),
(1050,729,o),
(983,775,o),
(904,828,cs),
(822,883,o),
(729,947,o),
(592,948,cs),
(402,949,o),
(256,834,o),
(232,672,c)
);
}
);
width = 1728;
}
);
metricWidth = plus;
unicode = 126;
userData = {
com.typemytype.robofont.guideline.magnetic.3xFHrd4wHk = 5;
com.typemytype.robofont.guideline.magnetic.7O4U9XRpHd = 5;
"interface.width-adjustments" = (
-16
);
};
}
{
color = (204,240,242,1);
glyphname = sterling;
layers = (
{
layerId = "5C20EF92-B63D-42A8-8878-93C2863E0093";
shapes = (
{
closed = 1;
nodes = (
(1784,448,l),
(208,448,l),
(208,0,l),
(1784,0,l)
);
},
{
closed = 1;
nodes = (
(1412,1244,l),
(204,1244,l),
(204,828,l),
(1412,828,l)
);
},
{
closed = 1;
nodes = (
(970,1592,o),
(1002,1644,o),
(1084,1644,cs),
(1178,1644,o),
(1246,1616,o),
(1256,1472,c),
(1776,1496,l),
(1750,1868,o),
(1522,2076,o),
(1080,2076,cs),
(666,2076,o),
(402,1856,o),
(416,1496,cs),
(448,616,ls),
(450,520,o),
(438,480,o),
(372,448,c),
(660,280,l),
(910,372,o),
(1010,464,o),
(1004,656,cs),
(972,1496,l)
);
}
);
width = 1968;
},
{
layerId = "B1F27B51-9973-4381-9301-4FE46FE1CA59";
shapes = (
{
closed = 1;
nodes = (
(1440,64,l),
(192,64,l),
(192,0,l),
(1440,0,l)
);
},
{
closed = 1;
nodes = (
(1056,916,l),
(192,916,l),
(192,852,l),
(1056,852,l)
);
},
{
closed = 1;
nodes = (
(520,1807,o),
(710,2011,o),
(992,2012,cs),
(1261,2013,o),
(1458,1814,o),
(1412,1588,c),
(1476,1572,l),
(1529,1842,o),
(1301,2077,o),
(992,2076,cs),
(673,2075,o),
(456,1842,o),
(464,1508,cs),
(492,400,ls),
(497,214,o),
(442,64,o),
(296,64,c),
(320,4,l),
(492,24,o),
(562,180,o),
(556,400,cs),
(528,1508,ls)
);
}
);
width = 1712;
},
{
associatedMasterId = "B1F27B51-9973-4381-9301-4FE46FE1CA59";
background = {
shapes = (
{
closed = 1;
nodes = (
(1540,220,l),
(184,220,l),
(184,0,l),
(1540,0,l)
);
},
{
closed = 1;
nodes = (
(1108,1024,l),
(176,1024,l),
(176,796,l),
(1108,796,l)
);
},
{
closed = 1;
nodes = (
(612,1724,o),
(808,1856,o),
(1000,1856,cs),
(1180,1856,o),
(1356,1740,o),
(1328,1532,c),
(1560,1468,l),
(1636,1772,o),
(1368,2076,o),
(988,2076,cs),
(676,2076,o),
(364,1864,o),
(380,1428,cs),
(408,560,ls),
(412,440,o),
(384,220,o),
(264,220,c),
(512,164,l),
(620,240,o),
(652,392,o),
(644,560,cs),
(612,1428,l)
);
}
);
};
layerId = "6F906B9A-8FB9-4F8D-9428-456535520A4E";
name = "Dec 29 18, 16:13";
shapes = (
{
closed = 1;
nodes = (
(1440,64,l),
(192,64,l),
(192,0,l),
(1440,0,l)
);
},
{
closed = 1;
nodes = (
(1728,892,l),
(960,892,l),
(960,776,l),
(1728,776,l)
);
},
{
closed = 0;
nodes = (
(1444,1580,l),
(1495,1835,o),
(1273,2045,o),
(992,2044,cs),
(741,2043,o),
(487,1873,o),
(496,1508,cs),
(524,400,ls),
(528,252,o),
(501,69,o),
(388,32,c)
);
}
);
width = 1661;
},
{
layerId = "CD0E3B44-F66A-4791-B84C-A1128DC61275";
shapes = (
{
closed = 1;
nodes = (
(1524,226,l),
(162,226,l),
(162,0,l),
(1524,0,l)
);
},
{
closed = 1;
nodes = (
(1094,1030,l),
(154,1030,l),
(154,796,l),
(1094,796,l)
);
},
{
closed = 1;
nodes = (
(598,1720,o),
(790,1850,o),
(980,1850,cs),
(1158,1850,o),
(1332,1736,o),
(1304,1530,c),
(1544,1468,l),
(1616,1774,o),
(1350,2076,o),
(968,2076,cs),
(654,2076,o),
(346,1864,o),
(360,1430,cs),
(388,562,ls),
(392,442,o),
(364,226,o),
(244,226,c),
(494,166,l),
(606,244,o),
(638,394,o),
(632,562,cs),
(600,1430,l)
);
}
);
width = 1738;
}
);
unicode = 163;
userData = {
"interface.width-adjustments" = (
-16
);
};
}
{
color = (204,240,242,1);
glyphname = currency;
layers = (
{
guides = (
{
pos = (-128,1240);
},
{
pos = (-128,764);
}
);
layerId = "5C20EF92-B63D-42A8-8878-93C2863E0093";
shapes = (
{
closed = 1;
nodes = (
(1586,-28,o),
(1974,348,o),
(1976,836,cs),
(1974,1324,o),
(1586,1696,o),
(1120,1696,cs),
(646,1696,o),
(258,1324,o),
(260,836,c),
(258,348,o),
(646,-28,o),
(1120,-28,cs)
);
},
{
closed = 1;
nodes = (
(790,260,o),
(538,508,o),
(540,836,c),
(538,1168,o),
(790,1412,o),
(1120,1412,cs),
(1438,1412,o),
(1698,1168,o),
(1700,836,cs),
(1698,508,o),
(1438,260,o),
(1120,260,cs)
);
},
{
closed = 1;
nodes = (
(2040,1532,l),
(1824,1748,l),
(1536,1464,l),
(1748,1248,l)
);
},
{
closed = 1;
nodes = (
(2040,172,l),
(1748,452,l),
(1536,240,l),
(1824,-44,l)
);
},
{
closed = 1;
nodes = (
(708,240,l),
(492,452,l),
(204,172,l),
(416,-44,l)
);
},
{
closed = 1;
nodes = (
(708,1464,l),
(416,1748,l),
(204,1532,l),
(492,1248,l)
);
}
);
width = 2232;
},
{
layerId = "B1F27B51-9973-4381-9301-4FE46FE1CA59";
shapes = (
{
closed = 1;
nodes = (
(1374,-28,o),
(1720,348,o),
(1720,836,cs),
(1720,1324,o),
(1374,1696,o),
(922,1696,cs),
(476,1696,o),
(128,1324,o),
(128,836,cs),
(128,348,o),
(476,-28,o),
(922,-28,cs)
);
},
{
closed = 1;
nodes = (
(512,36,o),
(192,384,o),
(192,836,cs),
(192,1290,o),
(514,1632,o),
(922,1632,cs),
(1334,1632,o),
(1658,1290,o),
(1656,836,cs),
(1654,384,o),
(1336,36,o),
(922,36,cs)
);
},
{
closed = 1;
nodes = (
(1734,1628,l),
(1692,1674,l),
(1452,1426,l),
(1494,1380,l)
);
},
{
closed = 1;
nodes = (
(1734,46,l),
(1494,294,l),
(1452,248,l),
(1692,0,l)
);
},
{
closed = 1;
nodes = (
(394,248,l),
(352,294,l),
(112,46,l),
(154,0,l)
);
},
{
closed = 1;
nodes = (
(394,1426,l),
(154,1674,l),
(112,1628,l),
(352,1380,l)
);
}
);
width = 1854;
},
{
associatedMasterId = "CD0E3B44-F66A-4791-B84C-A1128DC61275";
layerId = "9FCCF005-BE95-441D-828A-FFB7C54BC5D5";
shapes = (
{
closed = 1;
nodes = (
(1436,-28,o),
(1804,348,o),
(1804,836,cs),
(1804,1324,o),
(1436,1696,o),
(982,1696,cs),
(530,1696,o),
(166,1324,o),
(166,836,c),
(166,348,o),
(530,-28,o),
(982,-28,cs)
);
},
{
closed = 1;
nodes = (
(654,194,o),
(388,484,o),
(388,836,c),
(388,1192,o),
(654,1478,o),
(982,1478,cs),
(1310,1478,o),
(1574,1192,o),
(1574,836,cs),
(1574,484,o),
(1310,194,o),
(982,194,cs)
);
},
{
closed = 1;
nodes = (
(1844,1556,l),
(1680,1724,l),
(1402,1440,l),
(1564,1272,l)
);
},
{
closed = 1;
nodes = (
(1844,148,l),
(1564,428,l),
(1402,264,l),
(1680,-20,l)
);
},
{
closed = 1;
nodes = (
(574,264,l),
(410,428,l),
(134,148,l),
(294,-20,l)
);
},
{
closed = 1;
nodes = (
(574,1440,l),
(294,1724,l),
(134,1556,l),
(410,1272,l)
);
}
);
width = 1977.2;
},
{
layerId = "CD0E3B44-F66A-4791-B84C-A1128DC61275";
shapes = (
{
closed = 1;
nodes = (
(1444,-28,o),
(1812,348,o),
(1812,836,cs),
(1812,1324,o),
(1444,1696,o),
(990,1696,cs),
(538,1696,o),
(174,1324,o),
(174,836,c),
(174,348,o),
(538,-28,o),
(990,-28,cs)
);
},
{
closed = 1;
nodes = (
(662,194,o),
(396,484,o),
(396,836,c),
(396,1192,o),
(662,1478,o),
(990,1478,cs),
(1318,1478,o),
(1582,1192,o),
(1582,836,cs),
(1582,484,o),
(1318,194,o),
(990,194,cs)
);
},
{
closed = 1;
nodes = (
(1852,1556,l),
(1688,1724,l),
(1410,1440,l),
(1572,1272,l)
);
},
{
closed = 1;
nodes = (
(1852,148,l),
(1572,428,l),
(1410,264,l),
(1688,-20,l)
);
},
{
closed = 1;
nodes = (
(582,264,l),
(418,428,l),
(142,148,l),
(302,-20,l)
);
},
{
closed = 1;
nodes = (
(582,1440,l),
(302,1724,l),
(142,1556,l),
(418,1272,l)
);
}
);
width = 1994;
}
);
unicode = 164;
userData = {
com.typemytype.robofont.guideline.magnetic.1UyvG88lVl = 5;
com.typemytype.robofont.guideline.magnetic.UzBXDjMMIk = 5;
interface.gridadjust.original = "{'width': 2002.0, 'leftMargin': 143, 'rightMargin': 118.0}";
"interface.width-adjustments" = (
-16
);
};
}
{
color = (204,240,242,1);
glyphname = plusminus;
kernLeft = approxequal;
kernRight = approxequal;
layers = (
{
layerId = "5C20EF92-B63D-42A8-8878-93C2863E0093";
shapes = (
{
closed = 1;
nodes = (
(1720,64,l),
(1720,480,l),
(232,480,l),
(232,64,l)
);
},
{
closed = 1;
nodes = (
(1720,912,l),
(1720,1312,l),
(232,1312,l),
(232,912,l)
);
},
{
closed = 1;
nodes = (
(1200,608,l),
(1200,1616,l),
(752,1616,l),
(752,608,l)
);
}
);
width = 1952;
},
{
guides = (
{
pos = (132,1384);
}
);
layerId = "B1F27B51-9973-4381-9301-4FE46FE1CA59";
shapes = (
{
closed = 1;
nodes = (
(1444,192,l),
(1444,256,l),
(284,256,l),
(284,192,l)
);
},
{
closed = 1;
nodes = (
(1444,960,l),
(1444,1024,l),
(284,1024,l),
(284,960,l)
);
},
{
closed = 1;
nodes = (
(896,448,l),
(896,1536,l),
(832,1536,l),
(832,448,l)
);
}
);
width = 1728;
},
{
associatedMasterId = "CD0E3B44-F66A-4791-B84C-A1128DC61275";
layerId = "34874216-A9B1-4B25-B447-6D969C993148";
shapes = (
{
closed = 1;
nodes = (
(1544,96,l),
(1544,324,l),
(250,324,l),
(250,96,l)
);
},
{
closed = 1;
nodes = (
(1544,904,l),
(1544,1132,l),
(250,1132,l),
(250,904,l)
);
},
{
closed = 1;
nodes = (
(1012,498,l),
(1012,1538,l),
(782,1538,l),
(782,498,l)
);
}
);
width = 1794.74717;
},
{
layerId = "CD0E3B44-F66A-4791-B84C-A1128DC61275";
shapes = (
{
closed = 1;
nodes = (
(1556,96,l),
(1556,324,l),
(262,324,l),
(262,96,l)
);
},
{
closed = 1;
nodes = (
(1556,904,l),
(1556,1132,l),
(262,1132,l),
(262,904,l)
);
},
{
closed = 1;
nodes = (
(1024,498,l),
(1024,1538,l),
(794,1538,l),
(794,498,l)
);
}
);
width = 1816;
}
);
metricWidth = plus;
unicode = 177;
userData = {
"interface.width-adjustments" = (
-16
);
};
}
{
glyphname = paragraph;
kernLeft = nine.1;
kernRight = H;
layers = (
{
guides = (
{
pos = (-136,1240);
},
{
pos = (-136,764);
}
);
layerId = "5C20EF92-B63D-42A8-8878-93C2863E0093";
shapes = (
{
closed = 1;
nodes = (
(1292,2048,l),
(836,2048,ls),
(376,2048,o),
(128,1772,o),
(128,1404,cs),
(128,1032,o),
(376,760,o),
(836,760,cs),
(956,760,l),
(956,1648,l),
(1292,1648,l)
);
},
{
closed = 1;
nodes = (
(1604,0,l),
(1604,2048,l),
(1204,2048,l),
(1204,0,l)
);
}
);
width = 1736;
},
{
layerId = "B1F27B51-9973-4381-9301-4FE46FE1CA59";
shapes = (
{
closed = 1;
nodes = (
(1208,2048,l),
(836,2048,ls),
(400,2048,o),
(160,1772,o),
(160,1404,cs),
(160,1032,o),
(400,760,o),
(836,760,cs),
(952,760,l),
(952,1984,l),
(1208,1984,l)
);
},
{
closed = 1;
nodes = (
(1208,0,l),
(1208,2048,l),
(1144,2048,l),
(1144,0,l)
);
}
);
width = 1496;
},
{
associatedMasterId = "CD0E3B44-F66A-4791-B84C-A1128DC61275";
layerId = "D903B4CD-DA82-495F-B069-0652C0DCEA5B";
shapes = (
{
closed = 1;
nodes = (
(1404,2048,l),
(796,2048,ls),
(360,2048,o),
(120,1772,o),
(120,1404,cs),
(120,1032,o),
(360,760,o),
(796,760,cs),
(912,760,l),
(912,1824,l),
(1404,1824,l)
);
},
{
closed = 1;
nodes = (
(1412,0,l),
(1412,2048,l),
(1160,2048,l),
(1160,0,l)
);
}
);
width = 1625.56981;
},
{
layerId = "CD0E3B44-F66A-4791-B84C-A1128DC61275";
shapes = (
{
closed = 1;
nodes = (
(1414,2048,l),
(806,2048,ls),
(370,2048,o),
(130,1772,o),
(130,1404,cs),
(130,1032,o),
(370,760,o),
(806,760,cs),
(922,760,l),
(922,1824,l),
(1414,1824,l)
);
},
{
closed = 1;
nodes = (
(1422,0,l),
(1422,2048,l),
(1170,2048,l),
(1170,0,l)
);
}
);
width = 1648;
}
);
metricRight = H;
note = "aka PILCROW SIGN";
unicode = 182;
userData = {
interface.gridadjust.original = "{'width': 1386.0, 'leftMargin': 88, 'rightMargin': 231.0}";
"interface.width-adjustments" = (
-16
);
};
}
{
color = (204,240,242,1);
glyphname = multiply;
kernLeft = bullet;
kernRight = bullet;
layers = (
{
anchors = (
{
name = _symbol;
pos = (976,832);
}
);
guides = (
{
orientation = center;
pos = (260,832);
}
);
layerId = "5C20EF92-B63D-42A8-8878-93C2863E0093";
shapes = (
{
closed = 1;
nodes = (
(976,495,l),
(1428,44,l),
(1764,380,l),
(1313,831,l),
(1764,1280,l),
(1428,1620,l),
(976,1168,l),
(524,1620,l),
(188,1280,l),
(639,831,l),
(188,380,l),
(524,44,l)
);
}
);
width = 1952;
},
{
anchors = (
{
name = _symbol;
pos = (794,892);
}
);
associatedMasterId = "5C20EF92-B63D-42A8-8878-93C2863E0093";
guides = (
{
pos = (240,896);
}
);
layerId = "7A60481D-5D43-4833-9287-AE18BDF3861E";
name = "Nov 23 18, 16:09";
shapes = (
{
closed = 1;
nodes = (
(1484,1272,l),
(1184,1560,l),
(100,516,l),
(400,224,l)
);
},
{
closed = 1;
nodes = (
(1488,516,l),
(408,1560,l),
(104,1272,l),
(1188,224,l)
);
}
);
width = 1588;
},
{
anchors = (
{
name = _symbol;
pos = (864,801);
}
);
guides = (
{
pos = (132,1384);
}
);
layerId = "B1F27B51-9973-4381-9301-4FE46FE1CA59";
shapes = (
{
closed = 1;
nodes = (
(865,755,l),
(1406,214,l),
(1452,260,l),
(911,801,l),
(1452,1342,l),
(1406,1388,l),
(865,847,l),
(324,1388,l),
(278,1342,l),
(819,801,l),
(278,260,l),
(324,214,l)
);
}
);
width = 1728;
},
{
anchors = (
{
name = _symbol;
pos = (896,0);
}
);
associatedMasterId = "B1F27B51-9973-4381-9301-4FE46FE1CA59";
background = {
guides = (
{
pos = (268,800);
}
);
shapes = (
{
closed = 1;
nodes = (
(1536,312,l),
(408,1440,l),
(256,1288,l),
(1384,160,l)
);
},
{
closed = 1;
nodes = (
(1536,1288,l),
(1384,1440,l),
(256,312,l),
(408,160,l)
);
}
);
};
guides = (
{
pos = (268,800);
}
);
layerId = "6B8C8ED5-345E-4705-8D5E-823B3647842E";
name = "Dec 27 18, 16:04";
shapes = (
{
closed = 1;
nodes = (
(1460,236,l),
(332,1364,l)
);
},
{
closed = 1;
nodes = (
(332,236,l),
(1460,1364,l)
);
}
);
width = 1792;
},
{
anchors = (
{
name = _symbol;
pos = (908,801);
}
);
layerId = "CD0E3B44-F66A-4791-B84C-A1128DC61275";
shapes = (
{
closed = 1;
nodes = (
(910,646,l),
(1396,158,l),
(1554,314,l),
(1066,802,l),
(1554,1288,l),
(1396,1444,l),
(910,958,l),
(422,1444,l),
(266,1288,l),
(754,802,l),
(266,314,l),
(422,158,l)
);
}
);
width = 1816;
},
{
anchors = (
{
name = _symbol;
pos = (864,801);
}
);
associatedMasterId = "B1F27B51-9973-4381-9301-4FE46FE1CA59";
guides = (
{
pos = (132,1384);
}
);
layerId = "F0AF86BA-1820-4365-BAB2-546C9997C326";
name = "Jun 19, 21 23:42";
shapes = (
{
closed = 1;
nodes = (
(1452,260,l),
(324,1388,l),
(278,1342,l),
(1406,214,l)
);
},
{
closed = 1;
nodes = (
(1452,1342,l),
(1406,1388,l),
(278,260,l),
(324,214,l)
);
}
);
width = 1728;
},
{
anchors = (
{
name = _symbol;
pos = (976,832);
}
);
associatedMasterId = "5C20EF92-B63D-42A8-8878-93C2863E0093";
guides = (
{
orientation = center;
pos = (260,832);
}
);
layerId = "819FD5D5-155D-4D2E-8D93-323E773E2C76";
name = "Jun 19, 21 23:42";
shapes = (
{
closed = 1;
nodes = (
(1764,380,l),
(524,1620,l),
(188,1280,l),
(1428,44,l)
);
},
{
closed = 1;
nodes = (
(1764,1280,l),
(1428,1620,l),
(188,380,l),
(524,44,l)
);
}
);
width = 1952;
}
);
metricWidth = plus;
unicode = 215;
userData = {
"interface.width-adjustments" = (
-16
);
};
}
{
glyphname = oslash;
kernLeft = c;
kernRight = b;
layers = (
{
guides = (
{
pos = (840,768);
},
{
angle = 90;
pos = (624,1444);
},
{
angle = 56.0235;
pos = (624,768);
},
{
angle = 325.5392;
pos = (1296,1460);
}
);
layerId = "5C20EF92-B63D-42A8-8878-93C2863E0093";
shapes = (
{
closed = 1;
nodes = (
(1556,1480,l),
(1328,1632,l),
(204,44,l),
(428,-108,l)
);
},
{
pos = (0,-4);
ref = o;
}
);
width = 1760;
},
{
layerId = "B1F27B51-9973-4381-9301-4FE46FE1CA59";
shapes = (
{
closed = 1;
nodes = (
(1344,1540,l),
(1288,1576,l),
(224,-4,l),
(280,-40,l)
);
},
{
alignment = -1;
pos = (0,4);
ref = o;
}
);
width = 1568;
},
{
associatedMasterId = "CD0E3B44-F66A-4791-B84C-A1128DC61275";
layerId = "5F164A06-1A16-44BC-97D2-40F4A37D25E8";
shapes = (
{
closed = 1;
nodes = (
(1422,1504,l),
(1268,1608,l),
(196,20,l),
(350,-84,l)
);
},
{
alignment = -1;
ref = o;
}
);
width = 1618.35472;
},
{
layerId = "CD0E3B44-F66A-4791-B84C-A1128DC61275";
shapes = (
{
closed = 1;
nodes = (
(1432,1504,l),
(1278,1608,l),
(206,20,l),
(360,-84,l)
);
},
{
alignment = -1;
ref = o;
}
);
width = 1642;
}
);
metricLeft = o;
metricRight = o;
unicode = 248;
userData = {
com.typemytype.robofont.guideline.magnetic.49COOBBAbR = 5;
com.typemytype.robofont.guideline.magnetic.6oUqwWxpuH = 5;
com.typemytype.robofont.guideline.magnetic.csWBhLA7NW = 5;
com.typemytype.robofont.guideline.magnetic.yqY0voZV2N = 5;
interface.gridadjust.original = "{'width': 1602, 'leftMargin': 236, 'rightMargin': 46}";
"interface.width-adjustments" = (
-16
);
};
}
{
glyphname = kgreenlandic;
layers = (
{
layerId = "5C20EF92-B63D-42A8-8878-93C2863E0093";
shapes = (
{
closed = 1;
nodes = (
(176,1536,l),
(176,0,l),
(696,0,l),
(696,1536,l)
);
},
{
closed = 1;
nodes = (
(1144,1536,l),
(846,1018,l),
(580,1018,l),
(636,506,l),
(1124,506,l),
(1812,1536,l)
);
},
{
closed = 1;
nodes = (
(1788,0,l),
(1296,808,l),
(828,584,l),
(1124,0,l)
);
}
);
width = 1964;
},
{
layerId = "B1F27B51-9973-4381-9301-4FE46FE1CA59";
shapes = (
{
closed = 1;
nodes = (
(228,1536,l),
(228,0,l),
(292,0,l),
(292,1536,l)
);
},
{
closed = 1;
nodes = (
(1172,1536,l),
(450,808,l),
(252,808,l),
(252,744,l),
(478,742,l),
(1260,1536,l)
);
},
{
closed = 1;
nodes = (
(1268,0,l),
(472,774,l),
(398,758,l),
(1176,0,l)
);
}
);
width = 1516;
},
{
associatedMasterId = "CD0E3B44-F66A-4791-B84C-A1128DC61275";
layerId = "FDB046A0-5F26-40EC-8955-6BA463F160F0";
shapes = (
{
closed = 1;
nodes = (
(206,1536,l),
(206,0,l),
(488,0,l),
(488,1536,l)
);
},
{
closed = 1;
nodes = (
(1168,1536,l),
(626,898,l),
(354,898,l),
(398,654,l),
(754,654,l),
(1510,1536,l)
);
},
{
closed = 1;
nodes = (
(1510,0,l),
(772,862,l),
(590,666,l),
(1154,0,l)
);
}
);
width = 1717.00377;
},
{
layerId = "CD0E3B44-F66A-4791-B84C-A1128DC61275";
shapes = (
{
closed = 1;
nodes = (
(218,1536,l),
(218,0,l),
(500,0,l),
(500,1536,l)
);
},
{
closed = 1;
nodes = (
(1180,1536,l),
(638,898,l),
(366,898,l),
(410,654,l),
(766,654,l),
(1522,1536,l)
);
},
{
closed = 1;
nodes = (
(1522,0,l),
(784,862,l),
(602,666,l),
(1166,0,l)
);
}
);
width = 1740;
}
);
unicode = 312;
userData = {
interface.gridadjust.original = "{'width': 1576, 'leftMargin': 210, 'rightMargin': 70}";
"interface.width-adjustments" = (
-16
);
};
}
{
glyphname = Eng;
kernLeft = B;
kernRight = H;
layers = (
{
layerId = "5C20EF92-B63D-42A8-8878-93C2863E0093";
shapes = (
{
closed = 1;
nodes = (
(1440,-40,ls),
(1440,-152,o),
(1349,-220,o),
(1200,-220,cs),
(1131,-220,o),
(1057,-212,o),
(1004,-200,c),
(1004,-600,l),
(1058,-617,o),
(1122,-628,o),
(1172,-628,cs),
(1627,-628,o),
(1904,-501,o),
(1904,-28,cs),
(1904,0,l),
(1440,0,l,{
name = hr00;
})
);
},
{
ref = N;
}
);
width = 2036;
},
{
layerId = "B1F27B51-9973-4381-9301-4FE46FE1CA59";
shapes = (
{
closed = 1;
nodes = (
(1760,-232,ls),
(1760,-418,o),
(1690,-508,o),
(1546,-508,cs),
(1516,-508,o),
(1492,-505,o),
(1474,-500,c),
(1474,-564,l),
(1493,-569,o),
(1522,-572,o),
(1552,-572,cs),
(1728,-572,o),
(1824,-452,o),
(1824,-232,cs),
(1824,0,l),
(1760,0,l)
);
},
{
alignment = -1;
ref = N;
}
);
width = 2112;
},
{
associatedMasterId = "CD0E3B44-F66A-4791-B84C-A1128DC61275";
layerId = "428870F5-77E0-4513-83E5-3C3B574A4585";
shapes = (
{
closed = 1;
nodes = (
(1596,-158,ls),
(1596,-316,o),
(1496,-364,o),
(1368,-364,cs),
(1338,-364,o),
(1310,-360,o),
(1288,-356,c),
(1288,-564,l),
(1324,-578,o),
(1376,-578,o),
(1426,-578,cs),
(1654,-578,o),
(1840,-430,o),
(1840,-160,cs),
(1840,0,l),
(1596,0,l)
);
},
{
alignment = -1;
ref = N;
}
);
width = 2054.33208;
},
{
layerId = "CD0E3B44-F66A-4791-B84C-A1128DC61275";
shapes = (
{
closed = 1;
nodes = (
(1606,-158,ls),
(1606,-316,o),
(1506,-364,o),
(1378,-364,cs),
(1348,-364,o),
(1320,-360,o),
(1298,-356,c),
(1298,-564,l),
(1334,-578,o),
(1386,-578,o),
(1436,-578,cs),
(1664,-578,o),
(1850,-430,o),
(1850,-160,cs),
(1850,0,l),
(1606,0,l)
);
},
{
alignment = -1;
ref = N;
}
);
width = 2078;
}
);
metricLeft = N;
metricRight = N;
unicode = 330;
userData = {
interface.gridadjust.original = "{'width': 1947.0, 'leftMargin': 217, 'rightMargin': 205.0}";
"interface.width-adjustments" = (
-16
);
};
}
{
glyphname = longs;
kernLeft = B;
kernRight = r;
layers = (
{
layerId = "5C20EF92-B63D-42A8-8878-93C2863E0093";
shapes = (
{
closed = 1;
nodes = (
(660,1596,l),
(659,1688,o),
(723,1728,o),
(840,1728,cs),
(911,1728,o),
(939,1724,o),
(988,1716,c),
(1020,2112,l),
(935,2128,o),
(855,2140,o),
(776,2140,cs),
(371,2140,o),
(139,1952,o),
(140,1596,c),
(140,0,l),
(660,0,l,{
name = hr00;
})
);
}
);
width = 1060;
},
{
layerId = "B1F27B51-9973-4381-9301-4FE46FE1CA59";
shapes = (
{
closed = 1;
nodes = (
(304,1788,ls),
(304,1970,o),
(436,2076,o),
(604,2076,cs),
(631,2076,o),
(661,2073,o),
(702,2062,c),
(714,2124,l),
(680,2134,o),
(636,2140,o),
(596,2140,cs),
(403,2140,o),
(240,2004,o),
(240,1788,cs),
(240,0,l),
(304,0,l)
);
}
);
width = 762;
},
{
associatedMasterId = "CD0E3B44-F66A-4791-B84C-A1128DC61275";
layerId = "4EAE62FE-F751-42A9-A2A9-D6789FE5D12A";
shapes = (
{
closed = 1;
nodes = (
(288,1640,ls),
(288,1814,o),
(372,1918,o),
(532,1918,cs),
(580,1918,o),
(620,1914,o),
(652,1906,c),
(684,2114,l),
(620,2130,o),
(552,2142,o),
(486,2142,cs),
(188,2142,o),
(6,1966,o),
(6,1640,cs),
(6,0,l),
(288,0,l)
);
}
);
width = 690.9434;
},
{
layerId = "CD0E3B44-F66A-4791-B84C-A1128DC61275";
shapes = (
{
closed = 1;
nodes = (
(476,1640,ls),
(476,1814,o),
(560,1918,o),
(720,1918,cs),
(768,1918,o),
(808,1914,o),
(840,1906,c),
(872,2114,l),
(808,2130,o),
(740,2142,o),
(674,2142,cs),
(376,2142,o),
(194,1966,o),
(194,1640,cs),
(194,0,l),
(476,0,l)
);
}
);
width = 914;
}
);
metricLeft = h;
metricRight = r;
unicode = 383;
userData = {
interface.gridadjust.original = "{'width': 712, 'leftMargin': 219, 'rightMargin': -180}";
"interface.width-adjustments" = (
-16
);
};
}
{
glyphname = Btopbar;
layers = (
{
layerId = "5C20EF92-B63D-42A8-8878-93C2863E0093";
shapes = (
{
closed = 1;
nodes = (
(896,0,ls),
(1412,0,o),
(1756,280,o),
(1756,688,cs),
(1756,1096,o),
(1412,1360,o),
(896,1360,cs),
(688,1360,l),
(688,1600,l),
(1572,1600,l),
(1572,2048,l),
(132,2048,l),
(132,0,l)
);
},
{
closed = 1;
nodes = (
(688,936,l),
(896,936,ls),
(1096,936,o),
(1204,832,o),
(1204,692,cs),
(1204,544,o),
(1096,436,o),
(896,436,cs),
(688,436,l)
);
}
);
width = 1848;
},
{
layerId = "B1F27B51-9973-4381-9301-4FE46FE1CA59";
shapes = (
{
closed = 1;
nodes = (
(1056,0,ls),
(1409,0,o),
(1628,213,o),
(1628,556,cs),
(1628,867,o),
(1403,1068,o),
(1056,1068,cs),
(352,1068,l),
(352,1984,l),
(1400,1984,l),
(1400,2048,l),
(288,2048,l),
(288,0,l)
);
},
{
closed = 1;
nodes = (
(352,1004,l),
(1056,1004,ls),
(1364,1004,o),
(1565,828,o),
(1564,560,cs),
(1563,247,o),
(1376,64,o),
(1056,64,cs),
(352,64,l)
);
}
);
width = 1776;
},
{
layerId = "CD0E3B44-F66A-4791-B84C-A1128DC61275";
shapes = (
{
closed = 1;
nodes = (
(994,0,ls),
(1436,0,o),
(1678,248,o),
(1678,606,cs),
(1678,964,o),
(1436,1192,o),
(994,1192,cs),
(480,1192,l),
(480,1822,l),
(1466,1822,l),
(1466,2048,l),
(226,2048,l),
(226,0,l)
);
},
{
closed = 1;
nodes = (
(480,968,l),
(994,968,ls),
(1272,968,o),
(1426,804,o),
(1426,610,cs),
(1426,412,o),
(1272,222,o),
(994,222,cs),
(480,222,l)
);
}
);
width = 1800;
}
);
metricLeft = B;
metricRight = b;
unicode = 386;
userData = {
com.typemytype.robofont.guideline.magnetic.8OVvpe1adm = 5;
interface.gridadjust.original = "{'width': 1777, 'leftMargin': 171, 'rightMargin': 158}";
"interface.width-adjustments" = (
-16
);
};
}
{
glyphname = Dhook;
kernLeft = B;
kernRight = D;
layers = (
{
layerId = "5C20EF92-B63D-42A8-8878-93C2863E0093";
shapes = (
{
closed = 1;
nodes = (
(564,1196,l),
(564,1344,ls),
(562,1464,o),
(610,1576,o),
(780,1576,cs),
(1144,1576,l,{
name = hr00;
}),
(1144,2048,l),
(780,2048,ls),
(350,2048,o),
(74,1828,o),
(76,1440,cs),
(76,1196,l)
);
},
{
pos = (684,0);
ref = D;
}
);
width = 2748;
},
{
layerId = "B1F27B51-9973-4381-9301-4FE46FE1CA59";
shapes = (
{
closed = 1;
nodes = (
(204,1688,l),
(204,1724,ls),
(204,1912,o),
(263,1984,o),
(416,1984,cs),
(612,1984,l,{
name = hr00;
}),
(612,2048,l),
(412,2048,ls),
(236,2048,o),
(141,1947,o),
(140,1760,cs),
(140,1688,l)
);
},
{
alignment = -1;
pos = (300,0);
ref = D;
}
);
width = 2248;
},
{
layerId = "CD0E3B44-F66A-4791-B84C-A1128DC61275";
shapes = (
{
closed = 1;
nodes = (
(354,1496,l),
(354,1574,ls),
(352,1702,o),
(374,1822,o),
(534,1822,cs),
(734,1822,l),
(734,2048,l),
(530,2048,ls),
(262,2048,o),
(114,1864,o),
(114,1636,cs),
(114,1496,l)
);
},
{
alignment = -1;
pos = (452,0);
ref = D;
}
);
width = 2436;
}
);
metricLeft = T;
metricRight = D;
unicode = 394;
userData = {
interface.gridadjust.original = "{'width': 2134.0, 'leftMargin': 41, 'rightMargin': 184.0}";
};
}
{
glyphname = florin;
layers = (
{
layerId = "5C20EF92-B63D-42A8-8878-93C2863E0093";
shapes = (
{
closed = 1;
nodes = (
(964,1488,l),
(964,1596,ls),
(966,1688,o),
(1038,1736,o),
(1144,1736,cs),
(1222,1736,o),
(1258,1732,o),
(1300,1724,c),
(1328,2116,l),
(1250,2128,o),
(1182,2140,o),
(1088,2140,cs),
(678,2140,o),
(442,1952,o),
(440,1596,cs),
(440,1488,l),
(220,1488,l),
(220,1120,l),
(440,1120,l),
(440,8,ls),
(440,-96,o),
(434,-164,o),
(296,-164,cs),
(254,-164,o),
(202,-156,o),
(168,-148,c),
(148,-556,l),
(238,-572,o),
(310,-576,o),
(388,-576,cs),
(750,-576,o),
(964,-372,o),
(964,8,cs),
(964,1120,l),
(1276,1120,l),
(1276,1488,l)
);
}
);
width = 1476;
},
{
layerId = "B1F27B51-9973-4381-9301-4FE46FE1CA59";
shapes = (
{
closed = 1;
nodes = (
(418,1476,l),
(418,1788,ls),
(418,1968,o),
(554,2076,o),
(706,2076,cs),
(746,2076,o),
(776,2070,o),
(808,2058,c),
(828,2118,l),
(790,2132,o),
(754,2140,o),
(706,2140,cs),
(518,2140,o),
(354,2004,o),
(354,1788,cs),
(354,1476,l),
(82,1476,l),
(82,1412,l),
(354,1412,l),
(354,-224,ls),
(354,-404,o),
(218,-512,o),
(66,-512,cs),
(26,-512,o),
(-4,-506,o),
(-38,-494,c),
(-58,-554,l),
(-18,-568,o),
(18,-576,o),
(66,-576,cs),
(254,-576,o),
(418,-440,o),
(418,-224,cs),
(418,1412,l),
(690,1412,l),
(690,1476,l)
);
}
);
width = 772;
},
{
associatedMasterId = "CD0E3B44-F66A-4791-B84C-A1128DC61275";
layerId = "ABFEC8EF-5CAC-4900-AD83-FE891D489387";
shapes = (
{
closed = 1;
nodes = (
(608,1488,l),
(608,1638,ls),
(608,1812,o),
(692,1900,o),
(850,1900,cs),
(900,1900,o),
(936,1892,o),
(964,1884,c),
(1024,2104,l),
(970,2124,o),
(864,2140,o),
(786,2140,cs),
(534,2140,o),
(354,1964,o),
(354,1638,cs),
(354,1488,l),
(106,1488,l),
(106,1280,l),
(354,1280,l),
(354,-98,ls),
(354,-256,o),
(276,-352,o),
(166,-352,cs),
(142,-352,o),
(58,-348,o),
(30,-336,c),
(10,-556,l),
(64,-572,o),
(112,-576,o),
(168,-576,cs),
(450,-576,o),
(608,-408,o),
(608,-98,cs),
(608,1280,l),
(890,1280,l),
(890,1488,l)
);
}
);
width = 1033.90943;
},
{
layerId = "CD0E3B44-F66A-4791-B84C-A1128DC61275";
shapes = (
{
closed = 1;
nodes = (
(616,1488,l),
(616,1638,ls),
(616,1812,o),
(700,1900,o),
(858,1900,cs),
(908,1900,o),
(944,1892,o),
(972,1884,c),
(1032,2104,l),
(978,2124,o),
(872,2140,o),
(794,2140,cs),
(542,2140,o),
(362,1964,o),
(362,1638,cs),
(362,1488,l),
(114,1488,l),
(114,1280,l),
(362,1280,l),
(362,-98,ls),
(362,-256,o),
(284,-352,o),
(174,-352,cs),
(150,-352,o),
(66,-348,o),
(38,-336,c),
(18,-556,l),
(72,-572,o),
(120,-576,o),
(176,-576,cs),
(458,-576,o),
(616,-408,o),
(616,-98,cs),
(616,1280,l),
(898,1280,l),
(898,1488,l)
);
}
);
width = 1050;
}
);
unicode = 402;
userData = {
interface.gridadjust.original = "{'width': 968.0, 'leftMargin': -30, 'rightMargin': -1.0}";
"interface.width-adjustments" = (
-16
);
};
}
{
glyphname = khook;
kernLeft = B;
kernRight = k;
layers = (
{
guides = (
{
pos = (-136,2140);
}
);
layerId = "5C20EF92-B63D-42A8-8878-93C2863E0093";
shapes = (
{
closed = 1;
nodes = (
(1720,0,l),
(1140,880,l),
(1704,1536,l),
(1076,1536,l),
(712,1100,l),
(692,1100,l),
(692,1420,l),
(140,1420,l),
(140,0,l),
(692,0,l),
(692,352,l),
(816,488,l),
(1132,0,l)
);
},
{
closed = 1;
nodes = (
(692,1548,ls),
(693,1640,o),
(805,1660,o),
(900,1660,cs),
(941,1660,o),
(981,1656,o),
(1024,1652,c),
(1024,2060,l),
(961,2064,o),
(869,2076,o),
(752,2076,cs),
(469,2076,o),
(141,2032,o),
(140,1548,cs),
(140,1256,l),
(692,1256,l)
);
}
);
width = 1708;
},
{
layerId = "B1F27B51-9973-4381-9301-4FE46FE1CA59";
shapes = (
{
closed = 1;
nodes = (
(1244,0,l),
(546,874,l),
(1220,1536,l),
(1128,1536,l),
(312,736,l),
(304,736,l),
(304,1708,l),
(240,1708,l),
(240,0,l),
(304,0,l),
(304,636,l),
(502,830,l),
(1160,0,l)
);
},
{
closed = 1;
nodes = (
(304,1780,ls),
(304,1950,o),
(354,2012,o),
(494,2012,cs),
(520,2012,o),
(558,2010,o),
(592,2006,c),
(592,2070,l),
(558,2074,o),
(522,2076,o),
(494,2076,cs),
(318,2076,o),
(240,1988,o),
(240,1780,c),
(240,1688,l),
(304,1688,l)
);
}
);
width = 1312;
},
{
layerId = "CD0E3B44-F66A-4791-B84C-A1128DC61275";
shapes = (
{
closed = 1;
nodes = (
(1446,0,l),
(780,880,l),
(1384,1536,l),
(1076,1536,l),
(458,850,l),
(438,850,l),
(438,1596,l),
(194,1596,l),
(194,0,l),
(438,0,l),
(438,504,l),
(620,702,l),
(1156,0,l)
);
},
{
closed = 1;
nodes = (
(438,1662,ls),
(438,1820,o),
(534,1866,o),
(662,1866,cs),
(690,1866,o),
(718,1862,o),
(738,1858,c),
(738,2064,l),
(702,2076,o),
(650,2076,o),
(600,2076,cs),
(374,2076,o),
(194,1930,o),
(194,1662,cs),
(194,1458,l),
(438,1458,l)
);
}
);
width = 1464;
}
);
unicode = 409;
userData = {
interface.gridadjust.original = "{'width': 1438, 'leftMargin': 190, 'rightMargin': 0}";
"interface.width-adjustments" = (
-16
);
};
}
{
glyphname = mcapturn;
layers = (
{
layerId = "5C20EF92-B63D-42A8-8878-93C2863E0093";
shapes = (
{
closed = 1;
nodes = (
(2108,0,l),
(2568,0,l),
(2568,2048,l),
(2048,2048,l),
(2048,392,l)
);
},
{
closed = 1;
nodes = (
(2116,516,o),
(2040,384,o),
(1832,384,cs),
(1704,384,o),
(1644,460,o),
(1644,568,c),
(1644,2048,l),
(1132,2048,l),
(1132,568,l),
(1132,136,o),
(1336,-28,o),
(1656,-28,cs),
(2028,-28,o),
(2252,280,o),
(2252,696,c),
(2116,692,l)
);
},
{
closed = 1;
nodes = (
(1200,512,o),
(1124,384,o),
(916,384,cs),
(788,384,o),
(728,460,o),
(728,568,cs),
(728,2048,l),
(216,2048,l),
(216,568,ls),
(216,140,o),
(376,-28,o),
(740,-28,cs),
(1128,-28,o),
(1344,268,o),
(1344,696,c),
(1200,692,l)
);
}
);
width = 2780;
},
{
layerId = "B1F27B51-9973-4381-9301-4FE46FE1CA59";
shapes = (
{
closed = 1;
nodes = (
(2020,0,l),
(2076,0,l),
(2076,2048,l),
(2012,2048,l),
(2012,314,l)
);
},
{
closed = 1;
nodes = (
(2012,232,o),
(1824,44,o),
(1592,44,cs),
(1320,44,o),
(1172,232,o),
(1172,504,cs),
(1172,2048,l),
(1108,2048,l),
(1108,504,ls),
(1108,196,o),
(1284,-20,o),
(1592,-20,cs),
(1860,-20,o),
(2076,196,o),
(2056,504,c),
(2012,504,l)
);
},
{
closed = 1;
nodes = (
(1108,232,o),
(920,44,o),
(688,44,cs),
(416,44,o),
(268,232,o),
(268,504,cs),
(268,2048,l),
(204,2048,l),
(204,504,ls),
(204,196,o),
(380,-20,o),
(688,-20,cs),
(956,-20,o),
(1172,196,o),
(1152,504,c),
(1108,504,l)
);
}
);
width = 2280;
},
{
layerId = "CD0E3B44-F66A-4791-B84C-A1128DC61275";
shapes = (
{
closed = 1;
nodes = (
(2036,0,l),
(2300,0,l),
(2300,2048,l),
(2022,2048,l),
(2022,294,l)
);
},
{
closed = 1;
nodes = (
(2044,418,o),
(1944,204,o),
(1650,204,cs),
(1522,204,o),
(1392,284,o),
(1392,608,c),
(1392,2048,l),
(1114,2048,l),
(1114,608,l),
(1114,128,o),
(1310,-28,o),
(1602,-28,cs),
(2010,-28,o),
(2172,280,o),
(2172,696,c),
(2044,692,l)
);
},
{
closed = 1;
nodes = (
(1140,418,o),
(1036,204,o),
(742,204,cs),
(614,204,o),
(488,284,o),
(488,608,cs),
(488,2048,l),
(206,2048,l),
(206,608,ls),
(206,132,o),
(398,-28,o),
(694,-28,cs),
(1102,-28,o),
(1268,280,o),
(1268,696,c),
(1140,692,l)
);
}
);
width = 2506;
}
);
unicode = 412;
userData = {
interface.gridadjust.original = "{'width': 2558, 'leftMargin': 234, 'rightMargin': 234}";
"interface.width-adjustments" = (
-16
);
};
}
{
glyphname = Ohorn;
kernLeft = C;
kernRight = D;
layers = (
{
guides = (
{
angle = 90;
pos = (876,1568);
}
);
layerId = "5C20EF92-B63D-42A8-8878-93C2863E0093";
shapes = (
{
closed = 1;
nodes = (
(2032,1856,o),
(1992,1704,o),
(1808,1704,c),
(1808,1468,l),
(2180,1468,o),
(2332,1708,o),
(2332,2116,c),
(2032,2116,l)
);
},
{
ref = O;
}
);
width = 2364;
},
{
layerId = "B1F27B51-9973-4381-9301-4FE46FE1CA59";
shapes = (
{
closed = 1;
nodes = (
(1847,1985,o),
(1781,1897,o),
(1572,1844,c),
(1572,1780,l),
(1816,1832,o),
(1913,1952,o),
(1912,2204,c),
(1848,2204,l)
);
},
{
alignment = -1;
ref = O;
}
);
width = 2006;
},
{
associatedMasterId = "CD0E3B44-F66A-4791-B84C-A1128DC61275";
layerId = "7F1A14F4-FB48-4EB4-A911-5BF9CC79F8F6";
shapes = (
{
closed = 1;
nodes = (
(1876,1962,o),
(1784,1824,o),
(1578,1824,c),
(1578,1628,l),
(1934,1628,o),
(2112,1832,o),
(2112,2194,c),
(1876,2194,l)
);
},
{
alignment = -1;
ref = O;
}
);
width = 2120.90566;
},
{
layerId = "CD0E3B44-F66A-4791-B84C-A1128DC61275";
shapes = (
{
closed = 1;
nodes = (
(1886,1962,o),
(1794,1824,o),
(1588,1824,c),
(1588,1628,l),
(1944,1628,o),
(2122,1832,o),
(2122,2194,c),
(1886,2194,l)
);
},
{
alignment = -1;
ref = O;
}
);
width = 2140;
}
);
metricLeft = O;
unicode = 416;
userData = {
interface.gridadjust.original = "{'width': 1928, 'leftMargin': 226, 'rightMargin': -45}";
"interface.width-adjustments" = (
-16
);
};
}
{
glyphname = Upsilon2;
layers = (
{
layerId = "5C20EF92-B63D-42A8-8878-93C2863E0093";
shapes = (
{
closed = 1;
nodes = (
(100,364,o),
(520,-28,o),
(1112,-28,cs),
(1704,-28,o),
(2124,364,o),
(2124,916,c),
(2124,1228,o),
(1988,1448,o),
(1772,1584,c),
(1772,1600,l),
(2124,1600,l),
(2124,2048,l),
(1256,2048,l),
(1256,1488,l),
(1440,1416,o),
(1556,1212,o),
(1556,972,cs),
(1556,672,o),
(1372,460,o),
(1112,460,cs),
(852,460,o),
(668,672,o),
(668,972,c),
(668,1212,o),
(784,1416,o),
(968,1488,c),
(968,2048,l),
(100,2048,l),
(100,1600,l),
(452,1600,l),
(452,1584,l),
(236,1448,o),
(100,1228,o),
(100,916,cs)
);
}
);
width = 2224;
},
{
layerId = "B1F27B51-9973-4381-9301-4FE46FE1CA59";
shapes = (
{
closed = 1;
nodes = (
(175,408,o),
(535,-28,o),
(1016,-28,cs),
(1500,-28,o),
(1857,405,o),
(1856,1000,cs),
(1855,1436,o),
(1676,1764,o),
(1276,1968,c),
(1276,1984,l),
(1856,1984,l),
(1856,2048,l),
(1212,2048,l),
(1212,1956,l),
(1538,1783,o),
(1794,1494,o),
(1792,1004,cs),
(1790,461,o),
(1481,38,o),
(1016,36,cs),
(554,34,o),
(238,461,o),
(240,1004,cs),
(242,1498,o),
(492,1782,o),
(820,1956,c),
(820,2048,l),
(176,2048,l),
(176,1984,l),
(756,1984,l),
(756,1968,l),
(358,1764,o),
(177,1433,o),
(176,1000,cs)
);
}
);
width = 2032;
},
{
associatedMasterId = "CD0E3B44-F66A-4791-B84C-A1128DC61275";
layerId = "5D8B20B8-566D-417D-8C6E-6A6638FC9C68";
shapes = (
{
closed = 1;
nodes = (
(134,384,o),
(512,-28,o),
(1042,-28,cs),
(1570,-28,o),
(1948,384,o),
(1948,966,cs),
(1948,1352,o),
(1784,1640,o),
(1522,1806,c),
(1522,1822,l),
(1948,1822,l),
(1948,2048,l),
(1216,2048,l),
(1216,1762,l),
(1478,1650,o),
(1700,1348,o),
(1700,968,cs),
(1700,544,o),
(1426,210,o),
(1042,210,cs),
(656,210,o),
(382,544,o),
(382,968,cs),
(382,1348,o),
(604,1650,o),
(866,1762,c),
(866,2048,l),
(134,2048,l),
(134,1822,l),
(560,1822,l),
(560,1806,l),
(298,1636,o),
(134,1352,o),
(134,966,cs)
);
}
);
width = 2082.35472;
},
{
layerId = "CD0E3B44-F66A-4791-B84C-A1128DC61275";
shapes = (
{
closed = 1;
nodes = (
(146,384,o),
(524,-28,o),
(1054,-28,cs),
(1582,-28,o),
(1960,384,o),
(1960,966,cs),
(1960,1352,o),
(1796,1640,o),
(1534,1806,c),
(1534,1822,l),
(1960,1822,l),
(1960,2048,l),
(1228,2048,l),
(1228,1762,l),
(1490,1650,o),
(1712,1348,o),
(1712,968,cs),
(1712,544,o),
(1438,210,o),
(1054,210,cs),
(668,210,o),
(394,544,o),
(394,968,cs),
(394,1348,o),
(616,1650,o),
(878,1762,c),
(878,2048,l),
(146,2048,l),
(146,1822,l),
(572,1822,l),
(572,1806,l),
(310,1636,o),
(146,1352,o),
(146,966,cs)
);
}
);
width = 2106;
}
);
unicode = 433;
userData = {
interface.gridadjust.original = "{'width': 1871, 'leftMargin': 164, 'rightMargin': 163}";
"interface.width-adjustments" = (
-16
);
};
}
{
glyphname = Ezh;
kernRight = B;
layers = (
{
anchors = (
{
name = top;
pos = (972,2304);
}
);
background = {
shapes = (
{
closed = 1;
nodes = (
(84,-228,o),
(478,-544,o),
(968,-544,cs),
(1530,-544,o),
(1876,-125,o),
(1876,344,cs),
(1876,675,o),
(1704,1072,o),
(1196,1128,c),
(1196,1148,l),
(1824,1648,l),
(1824,2048,l),
(188,2048,l),
(188,1592,l),
(1156,1592,l),
(1156,1576,l),
(660,1184,l),
(660,800,l),
(928,800,ls),
(1152,800,o),
(1292,609,o),
(1292,380,cs),
(1292,181,o),
(1197,-84,o),
(972,-84,cs),
(821,-84,o),
(644,36,o),
(636,228,c),
(76,228,l)
);
}
);
};
layerId = "5C20EF92-B63D-42A8-8878-93C2863E0093";
shapes = (
{
closed = 1;
nodes = (
(84,-274,o),
(458,-608,o),
(968,-608,cs),
(1494,-608,o),
(1876,-225,o),
(1876,304,cs),
(1876,734,o),
(1609,1043,o),
(1196,1088,c),
(1196,1108,l),
(1824,1648,l),
(1824,2048,l),
(188,2048,l),
(188,1592,l),
(1156,1592,l),
(1156,1576,l),
(660,1144,l),
(660,760,l),
(928,760,ls),
(1139,760,o),
(1292,584,o),
(1292,294,cs),
(1292,36,o),
(1173,-148,o),
(960,-148,cs),
(778,-148,o),
(644,-13,o),
(636,188,c),
(76,188,l)
);
}
);
width = 1940;
},
{
associatedMasterId = "5C20EF92-B63D-42A8-8878-93C2863E0093";
layerId = "A43C01AE-39F6-427E-8F29-12A6C95EC354";
name = "Oct 9 18, 18:32";
shapes = (
{
closed = 1;
nodes = (
(291,-324,o),
(643,-612,o),
(1160,-612,cs),
(1719,-612,o),
(2059,-244,o),
(2060,316,cs),
(2059,872,o),
(1699,1240,o),
(1168,1240,cs),
(872,1240,l),
(872,828,l),
(1168,828,ls),
(1371,828,o),
(1523,736,o),
(1524,316,cs),
(1523,-24,o),
(1415,-180,o),
(1160,-180,cs),
(951,-180,o),
(815,-112,o),
(808,108,c),
(272,108,l)
);
},
{
closed = 1;
nodes = (
(1896,2004,l),
(1568,2004,l),
(740,1092,l),
(740,828,l),
(1088,828,l),
(1896,1744,l)
);
},
{
closed = 1;
nodes = (
(252,2004,l),
(252,1572,l),
(1732,1572,l),
(1732,2004,l)
);
}
);
width = 2328;
},
{
anchors = (
{
name = top;
pos = (944,2304);
}
);
background = {
shapes = (
{
closed = 1;
nodes = (
(172,-292,o),
(519,-584,o),
(952,-584,cs),
(1451,-584,o),
(1736,-192,o),
(1736,212,cs),
(1736,676,o),
(1360,1032,o),
(808,1056,c),
(808,1064,l),
(1668,1996,l),
(1668,2048,l),
(280,2048,l),
(280,1984,l),
(1604,1984,l),
(1604,2021,l),
(712,1056,l),
(712,992,l),
(805,992,ls),
(1315,970,o),
(1672,648,o),
(1672,212,cs),
(1672,-209,o),
(1367,-520,o),
(952,-520,cs),
(547,-520,o),
(236,-250,o),
(236,100,c),
(172,100,l)
);
}
);
};
layerId = "B1F27B51-9973-4381-9301-4FE46FE1CA59";
shapes = (
{
closed = 1;
nodes = (
(140,-316,o),
(487,-608,o),
(920,-608,cs),
(1419,-608,o),
(1704,-216,o),
(1704,198,cs),
(1704,676,o),
(1328,1032,o),
(776,1056,c),
(776,1064,l),
(1636,1996,l),
(1636,2048,l),
(248,2048,l),
(248,1984,l),
(1572,1984,l),
(1572,2022,l),
(680,1056,l),
(680,992,l),
(774,992,ls),
(1283,970,o),
(1640,648,o),
(1640,198,cs),
(1640,-233,o),
(1335,-544,o),
(920,-544,cs),
(515,-544,o),
(204,-274,o),
(204,100,c),
(140,100,l)
);
}
);
width = 1888;
},
{
anchors = (
{
name = top;
pos = (928,2304);
}
);
associatedMasterId = "CD0E3B44-F66A-4791-B84C-A1128DC61275";
layerId = "782319EF-CCDD-4C63-9BC5-3D36C4DED42E";
shapes = (
{
closed = 1;
nodes = (
(126,-322,o),
(472,-606,o),
(912,-606,cs),
(1402,-606,o),
(1732,-248,o),
(1732,250,cs),
(1732,730,o),
(1412,1072,o),
(958,1092,c),
(958,1112,l),
(1680,1862,l),
(1680,2048,l),
(218,2048,l),
(218,1818,l),
(1328,1818,l),
(1328,1802,l),
(648,1104,l),
(648,892,l),
(802,892,ls),
(1198,892,o),
(1478,642,o),
(1478,246,cs),
(1478,-106,o),
(1262,-376,o),
(916,-376,cs),
(626,-376,o),
(382,-186,o),
(362,90,c),
(102,90,l)
);
}
);
width = 1856.88302;
},
{
anchors = (
{
name = top;
pos = (940,2304);
}
);
layerId = "CD0E3B44-F66A-4791-B84C-A1128DC61275";
shapes = (
{
closed = 1;
nodes = (
(138,-322,o),
(484,-606,o),
(924,-606,cs),
(1414,-606,o),
(1744,-248,o),
(1744,250,cs),
(1744,730,o),
(1424,1072,o),
(970,1092,c),
(970,1112,l),
(1692,1862,l),
(1692,2048,l),
(230,2048,l),
(230,1818,l),
(1340,1818,l),
(1340,1802,l),
(660,1104,l),
(660,892,l),
(814,892,ls),
(1210,892,o),
(1490,642,o),
(1490,246,cs),
(1490,-106,o),
(1274,-376,o),
(928,-376,cs),
(638,-376,o),
(394,-186,o),
(374,90,c),
(114,90,l)
);
}
);
width = 1882;
}
);
metricLeft = T;
metricRight = B;
unicode = 439;
userData = {
interface.gridadjust.original = "{'width': 1821, 'leftMargin': 110, 'rightMargin': 160}";
"interface.width-adjustments" = (
-16
);
};
}
{
glyphname = ezhtail;
layers = (
{
background = {
shapes = (
{
closed = 1;
nodes = (
(236,1076,l),
(660,1076,l),
(460,912,l),
(460,624,l),
(804,624,l),
(1508,1208,l),
(1508,1488,l),
(236,1488,l,{
name = hr00;
})
);
},
{
closed = 1;
nodes = (
(654,-92,o),
(714,-52,o),
(964,-4,cs),
(1194,40,o),
(1502,172,o),
(1504,460,cs),
(1502,716,o),
(1270,960,o),
(856,960,cs),
(612,960,l),
(612,624,l),
(856,624,ls),
(934,624,o),
(1014,572,o),
(1016,488,cs),
(1014,408,o),
(926,380,o),
(724,344,cs),
(354,280,o),
(158,144,o),
(160,-132,cs),
(158,-396,o),
(430,-600,o),
(856,-600,cs),
(1306,-600,o),
(1550,-328,o),
(1552,-92,c),
(1072,-92,l),
(1066,-220,o),
(954,-256,o),
(840,-256,cs),
(742,-256,o),
(654,-228,o),
(656,-148,cs)
);
}
);
};
layerId = "5C20EF92-B63D-42A8-8878-93C2863E0093";
shapes = (
{
closed = 1;
nodes = (
(236,1124,l),
(720,1124,l),
(460,912,l),
(460,624,l),
(764,624,l),
(1508,1246,l),
(1508,1536,l),
(236,1536,l,{
name = hr00;
})
);
},
{
closed = 1;
nodes = (
(655,-100,o),
(723,-58,o),
(912,-14,cs),
(1219,58,o),
(1502,192,o),
(1504,480,cs),
(1502,736,o),
(1270,960,o),
(856,960,cs),
(612,960,l),
(612,624,l),
(856,624,ls),
(947,624,o),
(1016,582,o),
(1016,506,cs),
(1016,408,o),
(904,374,o),
(742,346,cs),
(332,274,o),
(158,128,o),
(158,-128,cs),
(158,-412,o),
(430,-608,o),
(856,-608,cs),
(1306,-608,o),
(1550,-336,o),
(1552,-100,c),
(1072,-100,l),
(1066,-228,o),
(954,-264,o),
(840,-264,cs),
(742,-264,o),
(657,-236,o),
(656,-160,cs)
);
}
);
width = 1688;
},
{
background = {
shapes = (
{
closed = 1;
nodes = (
(142,1426,l),
(1196,1426,l),
(442,814,l),
(442,748,l),
(462,748,l),
(1288,1418,l),
(1288,1488,l),
(138,1492,l,{
name = hr00;
})
);
},
{
closed = 1;
nodes = (
(172,-28,o),
(280,68,o),
(584,146,cs),
(950,240,o),
(1068,329,o),
(1068,510,cs),
(1068,723,o),
(897,812,o),
(492,812,cs),
(460,812,l),
(454,748,l),
(492,748,ls),
(859,748,o),
(1004,681,o),
(1004,510,cs),
(1004,361,o),
(903,292,o),
(560,206,cs),
(238,125,o),
(108,3,o),
(108,-220,cs),
(108,-462,o),
(287,-600,o),
(600,-600,cs),
(907,-600,o),
(1120,-412,o),
(1146,-120,c),
(1082,-120,l),
(1060,-374,o),
(872,-536,o),
(600,-536,cs),
(322,-536,o),
(172,-425,o),
(172,-220,cs)
);
}
);
};
layerId = "B1F27B51-9973-4381-9301-4FE46FE1CA59";
shapes = (
{
closed = 1;
nodes = (
(110,1474,l),
(1168,1474,l),
(410,814,l),
(410,748,l),
(430,748,l),
(1256,1466,l),
(1256,1536,l),
(106,1540,l,{
name = hr00;
})
);
},
{
closed = 1;
nodes = (
(140,-36,o),
(248,68,o),
(552,146,cs),
(918,240,o),
(1036,329,o),
(1036,510,cs),
(1036,723,o),
(865,812,o),
(460,812,cs),
(428,812,l),
(422,748,l),
(460,748,ls),
(827,748,o),
(972,681,o),
(972,510,cs),
(972,361,o),
(871,292,o),
(528,206,cs),
(206,125,o),
(76,-7,o),
(76,-224,cs),
(76,-478,o),
(255,-608,o),
(568,-608,cs),
(875,-608,o),
(1088,-420,o),
(1114,-128,c),
(1050,-128,l),
(1028,-382,o),
(840,-544,o),
(568,-544,cs),
(290,-544,o),
(140,-439,o),
(140,-222,cs)
);
}
);
width = 1316;
},
{
associatedMasterId = "CD0E3B44-F66A-4791-B84C-A1128DC61275";
layerId = "643EA8CF-B99F-4C4E-B1FB-4180F1BA8027";
shapes = (
{
closed = 1;
nodes = (
(170,1312,l),
(960,1312,l),
(440,854,l),
(440,678,l),
(588,678,l),
(1366,1366,l),
(1366,1536,l),
(170,1536,l,{
name = hr00;
})
);
},
{
closed = 1;
nodes = (
(374,-84,o),
(434,6,o),
(696,62,cs),
(1028,134,o),
(1246,238,o),
(1246,504,cs),
(1246,740,o),
(1026,902,o),
(684,902,cs),
(592,902,l),
(576,678,l),
(684,678,ls),
(884,678,o),
(964,616,o),
(964,512,cs),
(964,388,o),
(896,340,o),
(654,290,cs),
(288,214,o),
(96,76,o),
(96,-166,cs),
(96,-430,o),
(326,-610,o),
(680,-610,cs),
(1078,-610,o),
(1294,-366,o),
(1294,-118,c),
(1016,-118,l),
(1004,-324,o),
(834,-386,o),
(666,-386,cs),
(486,-386,o),
(374,-310,o),
(374,-182,cs)
);
}
);
width = 1460.51321;
},
{
layerId = "CD0E3B44-F66A-4791-B84C-A1128DC61275";
shapes = (
{
closed = 1;
nodes = (
(180,1312,l),
(970,1312,l),
(450,854,l),
(450,678,l),
(598,678,l),
(1376,1366,l),
(1376,1536,l),
(180,1536,l,{
name = hr00;
})
);
},
{
closed = 1;
nodes = (
(384,-84,o),
(444,6,o),
(706,62,cs),
(1038,134,o),
(1256,238,o),
(1256,504,cs),
(1256,740,o),
(1036,902,o),
(694,902,cs),
(602,902,l),
(586,678,l),
(694,678,ls),
(894,678,o),
(974,616,o),
(974,512,cs),
(974,388,o),
(906,340,o),
(664,290,cs),
(298,214,o),
(106,76,o),
(106,-166,cs),
(106,-430,o),
(336,-610,o),
(690,-610,cs),
(1088,-610,o),
(1304,-366,o),
(1304,-118,c),
(1026,-118,l),
(1014,-324,o),
(844,-386,o),
(676,-386,cs),
(496,-386,o),
(384,-310,o),
(384,-182,cs)
);
}
);
width = 1478;
}
);
unicode = 442;
userData = {
interface.gridadjust.original = "{'width': 1515, 'leftMargin': 103, 'rightMargin': 143}";
"interface.width-adjustments" = (
-16
);
};
}
{
glyphname = pipe;
layers = (
{
layerId = "5C20EF92-B63D-42A8-8878-93C2863E0093";
shapes = (
{
closed = 1;
nodes = (
(320,1988,l),
(320,0,l),
(588,0,l),
(588,1988,l)
);
}
);
width = 908;
},
{
layerId = "B1F27B51-9973-4381-9301-4FE46FE1CA59";
shapes = (
{
closed = 1;
nodes = (
(200,2084,l),
(200,0,l),
(264,0,l),
(264,2084,l)
);
}
);
width = 460;
},
{
associatedMasterId = "CD0E3B44-F66A-4791-B84C-A1128DC61275";
layerId = "D1084D4D-4D34-4CD7-8D1C-64B1BBB05C2B";
shapes = (
{
closed = 1;
nodes = (
(234,2046,l),
(234,0,l),
(454,0,l),
(454,2046,l)
);
}
);
width = 688.31698;
},
{
layerId = "CD0E3B44-F66A-4791-B84C-A1128DC61275";
shapes = (
{
closed = 1;
nodes = (
(242,2046,l),
(242,0,l),
(462,0,l),
(462,2046,l)
);
}
);
width = 704;
}
);
unicode = 448;
userData = {
interface.gridadjust.original = "{'width': 715.0, 'leftMargin': 248, 'rightMargin': 247.0}";
"interface.width-adjustments" = (
-16
);
};
}
{
glyphname = Gbar;
kernLeft = C;
kernRight = G;
layers = (
{
layerId = "5C20EF92-B63D-42A8-8878-93C2863E0093";
shapes = (
{
closed = 1;
nodes = (
(1140,688,l),
(1140,564,l),
(2112,564,l),
(2112,688,l)
);
},
{
ref = G;
}
);
width = 2176;
},
{
layerId = "B1F27B51-9973-4381-9301-4FE46FE1CA59";
shapes = (
{
closed = 1;
nodes = (
(1048,560,l),
(1048,496,l),
(1968,496,l),
(1968,560,l)
);
},
{
ref = G;
}
);
width = 2016;
},
{
associatedMasterId = "CD0E3B44-F66A-4791-B84C-A1128DC61275";
layerId = "0554F18A-EA8C-4372-BF8B-ABCCB966B0D6";
shapes = (
{
closed = 1;
nodes = (
(1104,626,l),
(1104,428,l),
(2026,428,l),
(2026,626,l)
);
},
{
alignment = -1;
ref = G;
}
);
width = 2030.45283;
},
{
layerId = "CD0E3B44-F66A-4791-B84C-A1128DC61275";
shapes = (
{
closed = 1;
nodes = (
(1114,626,l),
(1114,428,l),
(2036,428,l),
(2036,626,l)
);
},
{
alignment = -1;
ref = G;
}
);
width = 2050;
}
);
metricLeft = G;
unicode = 484;
userData = {
com.typemytype.robofont.guideline.magnetic.L529Uh5F2Z = 5;
com.typemytype.robofont.guideline.magnetic.aP8dy3XBkq = 5;
interface.gridadjust.original = "{'width': 1917, 'leftMargin': 256, 'rightMargin': 7}";
"interface.width-adjustments" = (
-16
);
};
}
{
glyphname = uni01F7;
layers = (
{
background = {
shapes = (
{
closed = 1;
nodes = (
(288,2004,l),
(288,-572,l),
(820,-572,l),
(820,2004,l)
);
},
{
closed = 1;
nodes = (
(1574,40,o),
(2046,492,o),
(2048,1044,cs),
(2048,1116,ls),
(2046,1692,o),
(1686,2032,o),
(1152,2032,cs),
(934,2032,o),
(746,1952,o),
(668,1848,c),
(668,1280,l),
(734,1456,o),
(966,1604,o),
(1152,1604,cs),
(1494,1604,o),
(1494,1304,o),
(1496,1120,cs),
(1496,1044,ls),
(1494,644,o),
(1186,388,o),
(596,172,c),
(596,-264,l)
);
}
);
};
layerId = "5C20EF92-B63D-42A8-8878-93C2863E0093";
shapes = (
{
closed = 1;
nodes = (
(288,2048,l),
(288,-576,l),
(820,-576,l),
(820,2048,l)
);
},
{
closed = 1;
nodes = (
(1574,40,o),
(2046,492,o),
(2048,1064,cs),
(2048,1136,ls),
(2048,1736,o),
(1678,2076,o),
(1170,2076,cs),
(926,2076,o),
(746,1996,o),
(668,1892,c),
(668,1324,l),
(734,1500,o),
(956,1648,o),
(1174,1648,cs),
(1484,1648,o),
(1496,1348,o),
(1496,1140,cs),
(1496,1064,ls),
(1494,644,o),
(1186,388,o),
(596,172,c),
(596,-264,l)
);
}
);
width = 2328;
},
{
background = {
shapes = (
{
closed = 1;
nodes = (
(76,2004,l),
(76,-574,l),
(140,-574,l),
(140,2004,l)
);
},
{
closed = 1;
nodes = (
(853,-19,o),
(1268,451,o),
(1268,1158,cs),
(1268,1180,ls),
(1268,1757,o),
(1033,2034,o),
(588,2034,cs),
(391,2034,o),
(222,1988,o),
(94,1900,c),
(124,1842,l),
(245,1925,o),
(408,1970,o),
(588,1970,cs),
(994,1970,o),
(1202,1723,o),
(1202,1184,cs),
(1202,1154,ls),
(1202,485,o),
(820,51,o),
(96,-124,c),
(96,-188,l)
);
}
);
};
layerId = "B1F27B51-9973-4381-9301-4FE46FE1CA59";
shapes = (
{
closed = 1;
nodes = (
(44,2048,l),
(44,-576,l),
(108,-576,l),
(108,2048,l)
);
},
{
closed = 1;
nodes = (
(821,-19,o),
(1236,451,o),
(1236,1178,cs),
(1236,1200,ls),
(1236,1799,o),
(1007,2076,o),
(550,2076,cs),
(365,2076,o),
(190,2030,o),
(62,1942,c),
(92,1884,l),
(213,1967,o),
(376,2012,o),
(552,2012,cs),
(962,2012,o),
(1170,1765,o),
(1170,1204,cs),
(1170,1174,ls),
(1170,485,o),
(788,51,o),
(64,-124,c),
(64,-188,l)
);
}
);
width = 1284;
},
{
layerId = "CD0E3B44-F66A-4791-B84C-A1128DC61275";
shapes = (
{
closed = 1;
nodes = (
(134,2048,l),
(134,-576,l),
(428,-576,l),
(428,2048,l)
);
},
{
closed = 1;
nodes = (
(1028,-156,o),
(1604,426,o),
(1604,1142,cs),
(1604,1214,ls),
(1604,1798,o),
(1282,2076,o),
(796,2076,cs),
(588,2076,o),
(446,2024,o),
(330,1934,c),
(330,1394,l),
(374,1664,o),
(478,1840,o),
(798,1840,cs),
(1134,1840,o),
(1314,1652,o),
(1314,1218,cs),
(1314,1142,ls),
(1314,656,o),
(990,100,o),
(274,-16,c),
(274,-248,l)
);
}
);
width = 1738;
}
);
unicode = 503;
userData = {
interface.gridadjust.original = "{'width': 1856, 'leftMargin': 228, 'rightMargin': 163}";
"interface.width-adjustments" = (
-16
);
};
}
{
glyphname = aringacute;
kernLeft = a;
kernRight = a;
layers = (
{
background = {
shapes = (
{
closed = 1;
nodes = (
(1035,1669,o),
(1173,1804,o),
(1174,1988,cs),
(1173,2172,o),
(1035,2307,o),
(844,2308,cs),
(650,2307,o),
(513,2172,o),
(514,1988,cs),
(513,1804,o),
(650,1669,o),
(844,1670,cs)
);
},
{
closed = 1;
nodes = (
(723,2057,o),
(774,2106,o),
(844,2106,cs),
(911,2106,o),
(962,2057,o),
(962,1988,cs),
(962,1918,o),
(911,1868,o),
(844,1868,cs),
(774,1868,o),
(723,1918,o),
(724,1988,cs)
);
},
{
closed = 1;
nodes = (
(682,2410,l),
(1004,2410,l),
(1280,2742,l),
(896,2742,l)
);
}
);
};
layerId = "5C20EF92-B63D-42A8-8878-93C2863E0093";
shapes = (
{
ref = a;
},
{
pos = (368,80);
ref = ringacute.cn;
}
);
width = 1664;
},
{
layerId = "B1F27B51-9973-4381-9301-4FE46FE1CA59";
shapes = (
{
ref = a;
},
{
pos = (376,208);
ref = ringacute.cn;
}
);
width = 1460;
},
{
associatedMasterId = "CD0E3B44-F66A-4791-B84C-A1128DC61275";
layerId = "07EC6248-72F0-491B-B727-68978314D72E";
shapes = (
{
ref = a;
},
{
pos = (404,158);
ref = ringacute.cn;
}
);
width = 1550;
},
{
layerId = "CD0E3B44-F66A-4791-B84C-A1128DC61275";
shapes = (
{
ref = a;
},
{
pos = (404,158);
ref = ringacute.cn;
}
);
width = 1550;
}
);
unicode = 507;
}
{
glyphname = uni021D;
layers = (
{
background = {
shapes = (
{
closed = 1;
nodes = (
(1202,412,o),
(1502,652,o),
(1504,1080,cs),
(1502,1364,o),
(1226,1516,o),
(808,1516,cs),
(450,1516,o),
(158,1344,o),
(160,1048,c),
(680,1048,l),
(678,1124,o),
(742,1140,o),
(848,1140,cs),
(966,1140,o),
(986,1076,o),
(988,980,cs),
(986,828,o),
(838,700,o),
(364,532,c),
(364,164,l)
);
},
{
closed = 1;
nodes = (
(898,516,o),
(1010,464,o),
(1012,304,cs),
(1010,96,o),
(846,-28,o),
(364,-228,c),
(364,-600,l),
(1054,-436,o),
(1530,-152,o),
(1532,256,cs),
(1530,604,o),
(1262,724,o),
(852,692,c),
(808,496,l)
);
}
);
};
layerId = "5C20EF92-B63D-42A8-8878-93C2863E0093";
shapes = (
{
closed = 1;
nodes = (
(1159,399,o),
(1502,671,o),
(1502,1064,cs),
(1502,1391,o),
(1281,1556,o),
(842,1556,cs),
(411,1556,o),
(158,1367,o),
(160,1048,c),
(680,1048,l),
(678,1132,o),
(734,1180,o),
(834,1180,cs),
(939,1180,o),
(986,1129,o),
(986,1014,cs),
(986,816,o),
(836,700,o),
(364,532,c),
(364,164,l)
);
},
{
closed = 1;
nodes = (
(921,521,o),
(1010,445,o),
(1010,298,cs),
(1010,109,o),
(859,-23,o),
(364,-228,c),
(364,-600,l),
(1134,-416,o),
(1530,-121,o),
(1530,270,cs),
(1530,575,o),
(1288,726,o),
(852,692,c),
(808,496,l)
);
}
);
width = 1692;
},
{
background = {
shapes = (
{
closed = 1;
nodes = (
(790,424,o),
(1194,745,o),
(1196,1102,cs),
(1197,1352,o),
(1013,1516,o),
(732,1516,cs),
(426,1516,o),
(201,1335,o),
(200,1088,c),
(264,1088,l),
(261,1296,o),
(463,1452,o),
(732,1452,cs),
(978,1452,o),
(1128,1322,o),
(1132,1106,cs),
(1138,790,o),
(760,485,o),
(266,428,c),
(266,364,l)
);
},
{
closed = 1;
nodes = (
(1086,580,o),
(1160,412,o),
(1160,200,cs),
(1160,-268,o),
(878,-499,o),
(266,-534,c),
(266,-600,l),
(923,-556,o),
(1226,-302,o),
(1224,204,cs),
(1223,432,o),
(1147,607,o),
(998,724,c),
(952,680,l)
);
}
);
};
layerId = "B1F27B51-9973-4381-9301-4FE46FE1CA59";
shapes = (
{
closed = 1;
nodes = (
(758,424,o),
(1163,733,o),
(1164,1126,cs),
(1165,1384,o),
(991,1560,o),
(700,1560,cs),
(404,1560,o),
(169,1379,o),
(168,1088,c),
(232,1088,l),
(229,1340,o),
(441,1496,o),
(700,1496,cs),
(956,1496,o),
(1096,1346,o),
(1100,1132,cs),
(1106,770,o),
(728,485,o),
(234,428,c),
(234,364,l)
);
},
{
closed = 1;
nodes = (
(1054,580,o),
(1128,420,o),
(1128,192,cs),
(1128,-260,o),
(846,-499,o),
(234,-534,c),
(234,-600,l),
(891,-556,o),
(1194,-294,o),
(1192,196,cs),
(1191,440,o),
(1115,607,o),
(966,724,c),
(920,680,l)
);
}
);
width = 1354;
},
{
layerId = "CD0E3B44-F66A-4791-B84C-A1128DC61275";
shapes = (
{
closed = 1;
nodes = (
(900,402,o),
(1294,718,o),
(1294,1092,cs),
(1294,1378,o),
(1086,1556,o),
(752,1556,cs),
(392,1556,o),
(162,1368,o),
(162,1072,c),
(440,1072,l),
(440,1230,o),
(558,1332,o),
(742,1332,cs),
(918,1332,o),
(1012,1242,o),
(1012,1076,cs),
(1012,814,o),
(752,608,o),
(280,492,c),
(280,284,l)
);
},
{
closed = 1;
nodes = (
(976,572,o),
(1040,440,o),
(1040,260,cs),
(1040,-76,o),
(824,-258,o),
(280,-380,c),
(280,-600,l),
(976,-506,o),
(1322,-226,o),
(1322,244,cs),
(1322,504,o),
(1218,680,o),
(1014,762,c),
(864,620,l)
);
}
);
width = 1480;
}
);
unicode = 541;
userData = {
interface.gridadjust.original = "{'width': 1416, 'leftMargin': 110, 'rightMargin': 151}";
"interface.width-adjustments" = (
-16
);
};
}
{
glyphname = uni0223;
layers = (
{
layerId = "5C20EF92-B63D-42A8-8878-93C2863E0093";
shapes = (
{
closed = 1;
nodes = (
(504,1276,o),
(180,1100,o),
(180,652,cs),
(180,216,o),
(504,-28,o),
(968,-28,cs),
(996,-28,ls),
(1456,-28,o),
(1780,216,o),
(1780,652,cs),
(1780,1100,o),
(1452,1276,o),
(996,1276,cs),
(968,1276,l,{
name = hr00;
})
);
},
{
closed = 1;
nodes = (
(1180,916,o),
(1260,800,o),
(1260,652,cs),
(1260,504,o),
(1180,388,o),
(996,388,cs),
(968,388,ls),
(792,388,o),
(700,504,o),
(700,652,cs),
(700,800,o),
(792,916,o),
(968,916,cs),
(996,916,l)
);
},
{
closed = 1;
nodes = (
(968,1328,ls),
(772,1328,o),
(700,1400,o),
(700,1560,cs),
(700,1672,o),
(756,1728,o),
(812,1740,c),
(812,2140,l),
(428,2144,o),
(180,1952,o),
(180,1572,cs),
(180,1132,o),
(504,972,o),
(968,972,cs),
(992,972,ls),
(1460,972,o),
(1780,1132,o),
(1780,1572,cs),
(1780,1960,o),
(1528,2144,o),
(1148,2140,c),
(1148,1740,l),
(1204,1728,o),
(1268,1672,o),
(1268,1560,cs),
(1268,1404,o),
(1192,1328,o),
(992,1328,cs)
);
}
);
width = 1960;
},
{
layerId = "B1F27B51-9973-4381-9301-4FE46FE1CA59";
shapes = (
{
closed = 1;
nodes = (
(287,1140,o),
(48,942,o),
(48,566,cs),
(48,187,o),
(305,-28,o),
(756,-28,cs),
(848,-28,ls),
(1297,-28,o),
(1554,188,o),
(1554,566,cs),
(1554,941,o),
(1314,1140,o),
(862,1140,cs),
(740,1140,ls)
);
},
{
closed = 1;
nodes = (
(1276,1076,o),
(1490,902,o),
(1490,566,cs),
(1490,225,o),
(1262,36,o),
(848,36,cs),
(754,36,ls),
(341,36,o),
(112,225,o),
(112,566,cs),
(112,905,o),
(323,1076,o),
(740,1076,cs),
(862,1076,ls)
);
},
{
closed = 1;
nodes = (
(720,1140,ls),
(334,1140,o),
(120,1316,o),
(120,1634,cs),
(120,1872,o),
(220,2019,o),
(410,2060,c),
(410,2128,l),
(180,2080,o),
(56,1907,o),
(56,1634,cs),
(56,1281,o),
(299,1076,o),
(720,1076,cs),
(882,1076,ls),
(1301,1076,o),
(1546,1282,o),
(1546,1634,cs),
(1546,1918,o),
(1405,2100,o),
(1154,2140,c),
(1154,2074,l),
(1366,2041,o),
(1482,1885,o),
(1482,1634,cs),
(1482,1319,o),
(1266,1140,o),
(884,1140,cs)
);
}
);
width = 1602;
},
{
layerId = "CD0E3B44-F66A-4791-B84C-A1128DC61275";
shapes = (
{
closed = 1;
nodes = (
(422,1210,o),
(94,1006,o),
(94,598,cs),
(94,176,o),
(422,-28,o),
(850,-28,cs),
(882,-28,ls),
(1312,-28,o),
(1640,176,o),
(1640,602,cs),
(1640,1006,o),
(1312,1210,o),
(882,1210,cs),
(850,1210,l)
);
},
{
closed = 1;
nodes = (
(1164,998,o),
(1358,866,o),
(1358,602,cs),
(1358,328,o),
(1164,196,o),
(882,196,cs),
(850,196,ls),
(566,196,o),
(376,328,o),
(376,598,cs),
(376,866,o),
(566,998,o),
(850,998,cs),
(882,998,l)
);
},
{
closed = 1;
nodes = (
(838,1222,ls),
(592,1222,o),
(376,1294,o),
(376,1572,cs),
(376,1770,o),
(466,1864,o),
(636,1932,c),
(636,2140,l),
(334,2128,o),
(94,1928,o),
(94,1572,cs),
(94,1160,o),
(442,1014,o),
(838,1014,cs),
(894,1014,ls),
(1292,1014,o),
(1640,1160,o),
(1640,1572,cs),
(1640,1928,o),
(1398,2128,o),
(1096,2140,c),
(1096,1932,l),
(1266,1864,o),
(1358,1770,o),
(1358,1572,cs),
(1358,1294,o),
(1144,1222,o),
(894,1222,c)
);
}
);
width = 1734;
}
);
unicode = 547;
userData = {
interface.gridadjust.original = "{'width': 1818, 'leftMargin': 138, 'rightMargin': 138}";
"interface.width-adjustments" = (
-16
);
};
}
{
glyphname = uni0224;
kernLeft = Z;
kernRight = Z;
layers = (
{
layerId = "5C20EF92-B63D-42A8-8878-93C2863E0093";
shapes = (
{
closed = 1;
nodes = (
(1124,1600,l),
(140,308,l),
(140,0,l),
(1188,0,ls),
(1378,0,o),
(1410,-120,o),
(1408,-260,cs),
(1408,-384,l),
(1852,-384,l),
(1852,-160,ls),
(1854,224,o),
(1622,448,o),
(1188,448,cs),
(832,448,l),
(1816,1740,l),
(1816,2048,l),
(144,2048,l),
(144,1600,l)
);
}
);
width = 1956;
},
{
layerId = "B1F27B51-9973-4381-9301-4FE46FE1CA59";
shapes = (
{
closed = 1;
nodes = (
(1344,1984,l),
(140,64,l),
(140,0,l),
(1158,0,ls),
(1312,0,o),
(1370,-72,o),
(1370,-250,cs),
(1370,-256,l),
(1434,-256,l),
(1434,-214,ls),
(1434,-40,o),
(1336,64,o),
(1162,64,cs),
(216,64,l),
(1420,1984,l),
(1420,2048,l),
(148,2048,l),
(148,1984,l)
);
}
);
width = 1578;
},
{
associatedMasterId = "CD0E3B44-F66A-4791-B84C-A1128DC61275";
layerId = "CB3857A6-2E16-4CE8-982F-D636376BBFA0";
shapes = (
{
closed = 1;
nodes = (
(1248,1822,l),
(148,184,l),
(148,0,l),
(1168,0,ls),
(1310,0,o),
(1352,-112,o),
(1352,-228,cs),
(1352,-306,l),
(1582,-306,l),
(1582,-184,ls),
(1582,60,o),
(1424,226,o),
(1168,226,cs),
(452,226,l),
(1554,1864,l),
(1554,2048,l),
(136,2048,l),
(136,1822,l)
);
}
);
width = 1701.2;
},
{
layerId = "CD0E3B44-F66A-4791-B84C-A1128DC61275";
shapes = (
{
closed = 1;
nodes = (
(1258,1822,l),
(158,184,l),
(158,0,l),
(1178,0,ls),
(1320,0,o),
(1362,-112,o),
(1362,-228,cs),
(1362,-306,l),
(1592,-306,l),
(1592,-184,ls),
(1592,60,o),
(1434,226,o),
(1178,226,cs),
(462,226,l),
(1564,1864,l),
(1564,2048,l),
(146,2048,l),
(146,1822,l)
);
}
);
width = 1722;
}
);
note = "!post:RemoveOverlap";
unicode = 548;
userData = {
interface.gridadjust.original = "{'width': 1724, 'leftMargin': 118, 'rightMargin': 44}";
"interface.width-adjustments" = (
-16
);
};
}
{
glyphname = zhook;
kernLeft = z;
kernRight = z;
layers = (
{
layerId = "5C20EF92-B63D-42A8-8878-93C2863E0093";
shapes = (
{
closed = 1;
nodes = (
(1572,-408,l),
(1572,-196,l),
(1572,196,o),
(1336,416,o),
(908,416,cs),
(832,416,l),
(1480,1248,l),
(1480,1536,l),
(200,1536,l),
(200,1120,l),
(804,1120,l),
(156,284,l),
(156,0,l),
(908,0,ls),
(1096,0,o),
(1124,-164,o),
(1124,-288,cs),
(1124,-408,l)
);
}
);
width = 1652;
},
{
layerId = "B1F27B51-9973-4381-9301-4FE46FE1CA59";
shapes = (
{
closed = 1;
nodes = (
(1304,-256,l),
(1304,-214,ls),
(1304,-40,o),
(1206,64,o),
(1032,64,cs),
(258,64,l),
(1184,1472,l),
(1184,1536,l),
(244,1536,l),
(244,1472,l),
(1108,1472,l),
(184,64,l),
(184,0,l),
(1028,0,ls),
(1182,0,o),
(1240,-72,o),
(1240,-250,cs),
(1240,-256,l)
);
}
);
width = 1368;
},
{
layerId = "CD0E3B44-F66A-4791-B84C-A1128DC61275";
shapes = (
{
closed = 1;
nodes = (
(1384,-322,l),
(1384,-184,ls),
(1384,48,o),
(1234,224,o),
(970,224,cs),
(468,224,l),
(1324,1346,l),
(1324,1536,l),
(138,1536,l),
(138,1312,l),
(1010,1312,l),
(152,202,l),
(152,0,l),
(970,0,ls),
(1130,0,o),
(1166,-118,o),
(1166,-246,cs),
(1166,-322,l)
);
}
);
width = 1478;
}
);
unicode = 549;
userData = {
interface.gridadjust.original = "{'width': 1456, 'leftMargin': 122, 'rightMargin': 62}";
"interface.width-adjustments" = (
-16
);
};
}
{
glyphname = lcurl;
kernLeft = B;
kernRight = rthook;
layers = (
{
layerId = "5C20EF92-B63D-42A8-8878-93C2863E0093";
shapes = (
{
closed = 1;
nodes = (
(100,64,l),
(98,-416,o),
(506,-576,o),
(752,-576,cs),
(1050,-576,o),
(1234,-336,o),
(1236,-128,cs),
(1234,76,o),
(1062,276,o),
(796,276,cs),
(518,276,o),
(126,60,o),
(-160,-116,cs),
(-324,-216,l),
(-76,-512,l),
(204,-312,ls),
(434,-148,o),
(578,-72,o),
(748,-72,cs),
(798,-72,o),
(826,-128,o),
(828,-144,cs),
(826,-184,o),
(794,-228,o),
(760,-228,cs),
(670,-228,o),
(650,-172,o),
(652,-76,c),
(652,424,l),
(100,424,l)
);
},
{
closed = 1;
nodes = (
(100,2048,l),
(100,0,l),
(652,0,l),
(652,2048,l)
);
}
);
width = 1336;
},
{
layerId = "B1F27B51-9973-4381-9301-4FE46FE1CA59";
shapes = (
{
closed = 1;
nodes = (
(248,-220,l),
(248,-415,o),
(404,-564,o),
(604,-564,cs),
(799,-564,o),
(952,-425,o),
(952,-252,cs),
(952,-79,o),
(799,60,o),
(600,60,cs),
(419,60,o),
(277,-56,o),
(82,-368,cs),
(-8,-512,l),
(46,-544,l),
(134,-404,ls),
(317,-113,o),
(444,-4,o),
(600,-4,cs),
(762,-4,o),
(888,-115,o),
(888,-252,cs),
(888,-389,o),
(764,-500,o),
(604,-500,cs),
(438,-500,o),
(312,-380,o),
(312,-220,cs),
(312,82,l),
(248,82,l)
);
},
{
closed = 1;
nodes = (
(248,2048,l),
(248,0,l),
(312,0,l),
(312,2048,l)
);
}
);
width = 678;
},
{
associatedMasterId = "CD0E3B44-F66A-4791-B84C-A1128DC61275";
layerId = "E8F6ECB7-A860-4A27-8E53-388693482A11";
shapes = (
{
closed = 1;
nodes = (
(182,-138,l),
(182,-350,o),
(304,-576,o),
(610,-576,cs),
(860,-576,o),
(1016,-426,o),
(1016,-210,cs),
(1016,10,o),
(852,156,o),
(632,156,cs),
(480,156,o),
(306,84,o),
(174,-50,cs),
(-134,-364,l),
(20,-524,l),
(300,-234,ls),
(388,-144,o),
(470,-60,o),
(600,-60,cs),
(702,-60,o),
(768,-116,o),
(768,-210,cs),
(768,-302,o),
(706,-368,o),
(612,-368,cs),
(512,-368,o),
(426,-292,o),
(426,-200,c),
(426,338,l),
(182,338,l)
);
},
{
closed = 1;
nodes = (
(182,2048,l),
(182,0,l),
(426,0,l),
(426,2048,l)
);
}
);
width = 909.51698;
},
{
layerId = "CD0E3B44-F66A-4791-B84C-A1128DC61275";
shapes = (
{
closed = 1;
nodes = (
(198,-138,l),
(198,-350,o),
(320,-576,o),
(626,-576,cs),
(876,-576,o),
(1032,-426,o),
(1032,-210,cs),
(1032,10,o),
(868,156,o),
(648,156,cs),
(496,156,o),
(322,84,o),
(190,-50,cs),
(-118,-364,l),
(36,-524,l),
(316,-234,ls),
(404,-144,o),
(486,-60,o),
(616,-60,cs),
(718,-60,o),
(784,-116,o),
(784,-210,cs),
(784,-302,o),
(722,-368,o),
(628,-368,cs),
(528,-368,o),
(442,-292,o),
(442,-200,c),
(442,338,l),
(198,338,l)
);
},
{
closed = 1;
nodes = (
(198,2048,l),
(198,0,l),
(442,0,l),
(442,2048,l)
);
}
);
width = 930;
}
);
unicode = 564;
userData = {
interface.gridadjust.original = "{'width': 1233, 'leftMargin': 28, 'rightMargin': 41}";
"interface.width-adjustments" = (
-16
);
};
}
{
glyphname = uni023A;
kernLeft = A;
kernRight = A;
layers = (
{
layerId = "5C20EF92-B63D-42A8-8878-93C2863E0093";
shapes = (
{
closed = 1;
nodes = (
(1532,2308,l),
(756,-260,l),
(1040,-260,l),
(1816,2308,l)
);
},
{
ref = A;
}
);
width = 2240;
},
{
layerId = "B1F27B51-9973-4381-9301-4FE46FE1CA59";
shapes = (
{
closed = 1;
nodes = (
(1260,2308,l),
(348,-260,l),
(416,-260,l),
(1328,2308,l)
);
},
{
alignment = -1;
ref = A;
}
);
width = 1672;
},
{
associatedMasterId = "CD0E3B44-F66A-4791-B84C-A1128DC61275";
layerId = "5D12EFDF-CB4B-4231-9B44-8C674404A016";
shapes = (
{
closed = 1;
nodes = (
(1316,2308,l),
(408,-260,l),
(638,-260,l),
(1546,2308,l)
);
},
{
alignment = -1;
ref = A;
}
);
width = 1848.63396;
},
{
layerId = "CD0E3B44-F66A-4791-B84C-A1128DC61275";
shapes = (
{
closed = 1;
nodes = (
(1326,2308,l),
(418,-260,l),
(648,-260,l),
(1556,2308,l)
);
},
{
alignment = -1;
ref = A;
}
);
width = 1868;
}
);
metricLeft = A;
metricRight = A;
unicode = 570;
userData = {
interface.gridadjust.original = "{'width': 1855, 'leftMargin': -226, 'rightMargin': -8}";
};
}
{
glyphname = uni023E;
kernLeft = T;
kernRight = T;
layers = (
{
layerId = "5C20EF92-B63D-42A8-8878-93C2863E0093";
shapes = (
{
closed = 1;
nodes = (
(760,-260,l),
(1536,2308,l),
(1252,2308,l),
(476,-260,l)
);
},
{
ref = T;
}
);
width = 1932;
},
{
layerId = "B1F27B51-9973-4381-9301-4FE46FE1CA59";
shapes = (
{
closed = 1;
nodes = (
(382,-260,l),
(1374,2308,l),
(1312,2308,l),
(320,-260,l)
);
},
{
alignment = -1;
ref = T;
}
);
width = 1664;
},
{
associatedMasterId = "CD0E3B44-F66A-4791-B84C-A1128DC61275";
layerId = "34FB283C-42D9-4DED-ABA4-EF859E949ECC";
shapes = (
{
closed = 1;
nodes = (
(560,-260,l),
(1470,2308,l),
(1240,2308,l),
(332,-260,l)
);
},
{
alignment = -1;
ref = T;
}
);
width = 1747.43396;
},
{
layerId = "CD0E3B44-F66A-4791-B84C-A1128DC61275";
shapes = (
{
closed = 1;
nodes = (
(570,-260,l),
(1480,2308,l),
(1250,2308,l),
(342,-260,l)
);
},
{
alignment = -1;
ref = T;
}
);
width = 1770;
}
);
metricLeft = T;
metricRight = T;
unicode = 574;
userData = {
interface.gridadjust.original = "{'width': 1680, 'leftMargin': 128, 'rightMargin': 16}";
"interface.width-adjustments" = (
-16
);
};
}
{
glyphname = uni023F;
kernLeft = s;
kernRight = s;
layers = (
{
layerId = "5C20EF92-B63D-42A8-8878-93C2863E0093";
shapes = (
{
closed = 1;
nodes = (
(176,232,l),
(400,-148,ls),
(510,-338,o),
(666,-576,o),
(964,-576,cs),
(1182,-576,o),
(1330,-460,o),
(1444,-368,c),
(1292,-104,l),
(1219,-163,o),
(1128,-224,o),
(988,-224,cs),
(854,-224,o),
(790,-160,o),
(504,428,c)
);
},
{
ref = s;
}
);
width = 1664;
},
{
layerId = "B1F27B51-9973-4381-9301-4FE46FE1CA59";
shapes = (
{
closed = 1;
nodes = (
(216,194,l),
(558,-400,ls),
(630,-522,o),
(702,-576,o),
(800,-576,cs),
(860,-576,o),
(918,-554,o),
(1008,-488,c),
(978,-432,l),
(902,-490,o),
(850,-512,o),
(798,-512,cs),
(668,-512,o),
(652,-434,o),
(272,226,c,{
name = hr00;
})
);
},
{
alignment = -1;
ref = s;
}
);
width = 1294;
},
{
layerId = "CD0E3B44-F66A-4791-B84C-A1128DC61275";
shapes = (
{
closed = 1;
nodes = (
(166,252,l),
(456,-254,ls),
(574,-456,o),
(686,-576,o),
(864,-576,cs),
(974,-576,o),
(1088,-500,o),
(1150,-438,c),
(1056,-276,l),
(1010,-316,o),
(938,-372,o),
(864,-372,cs),
(756,-372,o),
(704,-254,o),
(358,366,c)
);
},
{
alignment = -1;
ref = s;
}
);
width = 1436;
}
);
unicode = 575;
userData = {
interface.gridadjust.original = "{'width': 1459, 'leftMargin': 122, 'rightMargin': 132}";
"interface.width-adjustments" = (
-16
);
};
}
{
glyphname = uni0241;
layers = (
{
background = {
shapes = (
{
closed = 1;
nodes = (
(616,328,l),
(808,328,ls),
(1294,328,o),
(1574,644,o),
(1576,1084,cs),
(1576,1264,ls),
(1574,1712,o),
(1290,2032,o),
(812,2032,cs),
(422,2032,o),
(106,1792,o),
(112,1392,c),
(628,1392,l),
(622,1500,o),
(682,1596,o),
(824,1596,cs),
(1026,1596,o),
(1026,1384,o),
(1028,1264,cs),
(1028,1084,ls),
(1026,880,o),
(994,760,o),
(824,760,cs),
(616,760,l,{
name = hr00;
})
);
},
{
closed = 1;
nodes = (
(576,760,l),
(576,0,l),
(1116,0,l),
(1116,760,l)
);
}
);
};
layerId = "5C20EF92-B63D-42A8-8878-93C2863E0093";
shapes = (
{
closed = 1;
nodes = (
(616,328,l),
(808,328,ls),
(1294,328,o),
(1576,644,o),
(1576,1084,cs),
(1576,1308,ls),
(1576,1756,o),
(1290,2076,o),
(812,2076,cs),
(422,2076,o),
(106,1836,o),
(112,1436,c),
(628,1436,l),
(622,1544,o),
(682,1640,o),
(824,1640,cs),
(1026,1640,o),
(1028,1428,o),
(1028,1308,cs),
(1028,1084,ls),
(1028,880,o),
(994,760,o),
(824,760,cs),
(616,760,l,{
name = hr00;
})
);
},
{
closed = 1;
nodes = (
(576,760,l),
(576,0,l),
(1116,0,l),
(1116,760,l)
);
}
);
width = 1688;
},
{
background = {
shapes = (
{
closed = 1;
nodes = (
(652,482,l),
(676,482,l),
(1073,480,o),
(1296,708,o),
(1296,1116,cs),
(1296,1404,ls),
(1296,1800,o),
(1084,2032,o),
(724,2032,cs),
(377,2032,o),
(144,1833,o),
(124,1520,c),
(188,1520,l),
(202,1793,o),
(410,1966,o),
(724,1966,cs),
(1051,1966,o),
(1232,1766,o),
(1232,1404,cs),
(1232,1116,ls),
(1232,738,o),
(1037,542,o),
(664,544,c),
(652,544,l,{
name = hr00;
})
);
},
{
closed = 1;
nodes = (
(640,544,l),
(640,0,l),
(704,0,l),
(704,544,l)
);
}
);
};
layerId = "B1F27B51-9973-4381-9301-4FE46FE1CA59";
shapes = (
{
closed = 1;
nodes = (
(620,482,l),
(644,482,l),
(1041,480,o),
(1264,708,o),
(1264,1116,cs),
(1264,1448,ls),
(1264,1844,o),
(1052,2076,o),
(692,2076,cs),
(345,2076,o),
(112,1877,o),
(92,1564,c),
(156,1564,l),
(170,1837,o),
(378,2010,o),
(692,2010,cs),
(1019,2010,o),
(1200,1810,o),
(1200,1448,cs),
(1200,1116,ls),
(1200,738,o),
(1005,542,o),
(632,544,c),
(620,544,l,{
name = hr00;
})
);
},
{
closed = 1;
nodes = (
(608,544,l),
(608,0,l),
(672,0,l),
(672,544,l)
);
}
);
width = 1356;
},
{
associatedMasterId = "CD0E3B44-F66A-4791-B84C-A1128DC61275";
layerId = "C539F924-A5D0-4E3F-BD89-5D4CE4EA5B9A";
shapes = (
{
closed = 1;
nodes = (
(632,382,l),
(694,382,ls),
(1150,382,o),
(1372,730,o),
(1372,1126,cs),
(1372,1332,ls),
(1372,1728,o),
(1150,2076,o),
(694,2076,cs),
(338,2076,o),
(100,1836,o),
(88,1514,c),
(362,1514,l),
(374,1704,o),
(496,1832,o),
(694,1832,cs),
(1000,1832,o),
(1082,1576,o),
(1082,1332,cs),
(1082,1126,ls),
(1082,876,o),
(1004,628,o),
(694,628,c),
(632,628,l)
);
},
{
closed = 1;
nodes = (
(560,628,l),
(560,0,l),
(854,0,l),
(854,628,l)
);
}
);
width = 1460.51321;
},
{
layerId = "CD0E3B44-F66A-4791-B84C-A1128DC61275";
shapes = (
{
closed = 1;
nodes = (
(642,382,l),
(704,382,ls),
(1160,382,o),
(1382,730,o),
(1382,1126,cs),
(1382,1332,ls),
(1382,1728,o),
(1160,2076,o),
(704,2076,cs),
(348,2076,o),
(110,1836,o),
(98,1514,c),
(372,1514,l),
(384,1704,o),
(506,1832,o),
(704,1832,cs),
(1010,1832,o),
(1092,1576,o),
(1092,1332,cs),
(1092,1126,ls),
(1092,876,o),
(1014,628,o),
(704,628,c),
(642,628,l)
);
},
{
closed = 1;
nodes = (
(570,628,l),
(570,0,l),
(864,0,l),
(864,628,l)
);
}
);
width = 1480;
}
);
unicode = 577;
userData = {
interface.gridadjust.original = "{'width': 1526, 'leftMargin': 88, 'rightMargin': 156}";
"interface.width-adjustments" = (
-16
);
};
}
{
glyphname = uni0244;
kernLeft = U;
kernRight = J;
layers = (
{
layerId = "5C20EF92-B63D-42A8-8878-93C2863E0093";
shapes = (
{
closed = 1;
nodes = (
(-16,1148,l),
(-16,844,l),
(2192,844,l),
(2192,1148,l)
);
},
{
pos = (84,0);
ref = U;
}
);
width = 2176;
},
{
layerId = "B1F27B51-9973-4381-9301-4FE46FE1CA59";
shapes = (
{
closed = 1;
nodes = (
(-36,1204,l),
(-36,1140,l),
(2008,1140,l),
(2008,1204,l)
);
},
{
alignment = -1;
pos = (-52,0);
ref = U;
}
);
width = 1972;
},
{
layerId = "CD0E3B44-F66A-4791-B84C-A1128DC61275";
shapes = (
{
closed = 1;
nodes = (
(-30,1188,l),
(-30,1020,l),
(2076,1020,l),
(2076,1188,l)
);
},
{
alignment = -1;
pos = (2,0);
ref = U;
}
);
width = 2046;
}
);
unicode = 580;
userData = {
com.typemytype.robofont.guideline.magnetic.DxUS4DFy1H = 5;
interface.gridadjust.original = "{'width': 2199, 'leftMargin': 41, 'rightMargin': 42}";
"interface.width-adjustments" = (
-16
);
};
}
{
glyphname = uni0246;
kernLeft = B;
kernRight = E;
layers = (
{
layerId = "5C20EF92-B63D-42A8-8878-93C2863E0093";
shapes = (
{
closed = 1;
nodes = (
(1184,2308,l),
(444,-260,l),
(672,-260,l),
(1412,2308,l)
);
},
{
ref = E;
}
);
width = 1752;
},
{
layerId = "B1F27B51-9973-4381-9301-4FE46FE1CA59";
shapes = (
{
closed = 1;
nodes = (
(1212,2308,l),
(470,-260,l),
(530,-260,l),
(1272,2308,l)
);
},
{
alignment = -1;
ref = E;
}
);
width = 1580;
},
{
layerId = "CD0E3B44-F66A-4791-B84C-A1128DC61275";
shapes = (
{
closed = 1;
nodes = (
(1162,2308,l),
(422,-260,l),
(650,-260,l),
(1390,2308,l)
);
},
{
alignment = -1;
ref = E;
}
);
width = 1644;
}
);
metricLeft = E;
metricRight = E;
unicode = 582;
userData = {
interface.gridadjust.original = "{'width': 1601, 'leftMargin': 256, 'rightMargin': 65}";
"interface.width-adjustments" = (
-16
);
};
}
{
glyphname = uni024C;
kernLeft = B;
kernRight = R;
layers = (
{
layerId = "5C20EF92-B63D-42A8-8878-93C2863E0093";
shapes = (
{
closed = 1;
nodes = (
(524,1116,l),
(16,1116,l),
(16,724,l),
(524,724,l)
);
},
{
pos = (60,0);
ref = R;
}
);
width = 1956;
},
{
layerId = "B1F27B51-9973-4381-9301-4FE46FE1CA59";
shapes = (
{
closed = 1;
nodes = (
(312,948,l),
(12,948,l),
(12,884,l),
(312,884,l)
);
},
{
alignment = -1;
pos = (4,0);
ref = R;
}
);
width = 1682;
},
{
associatedMasterId = "CD0E3B44-F66A-4791-B84C-A1128DC61275";
layerId = "5ACDAD91-C115-4324-9481-4CE1229174B4";
shapes = (
{
closed = 1;
nodes = (
(382,1026,l),
(0,1026,l),
(0,798,l),
(382,798,l)
);
},
{
alignment = -1;
pos = (24,0);
ref = R;
}
);
width = 1763.63019;
},
{
layerId = "CD0E3B44-F66A-4791-B84C-A1128DC61275";
shapes = (
{
closed = 1;
nodes = (
(392,1026,l),
(10,1026,l),
(10,798,l),
(392,798,l)
);
},
{
alignment = -1;
pos = (24,0);
ref = R;
}
);
width = 1786;
}
);
unicode = 588;
userData = {
interface.gridadjust.original = "{'width': 1816, 'leftMargin': 55, 'rightMargin': 33}";
"interface.width-adjustments" = (
-16
);
};
}
{
glyphname = bhook;
kernLeft = B;
kernRight = b;
layers = (
{
background = {
shapes = (
{
pos = (-8,0);
ref = b;
}
);
};
layerId = "5C20EF92-B63D-42A8-8878-93C2863E0093";
shapes = (
{
closed = 1;
nodes = (
(1448,-20,o),
(1724,236,o),
(1724,768,cs),
(1724,1324,o),
(1428,1556,o),
(1124,1556,cs),
(896,1556,o),
(752,1424,o),
(692,1268,c),
(684,1268,l),
(684,1548,ls),
(684,1640,o),
(816,1660,o),
(916,1660,cs),
(956,1660,o),
(992,1656,o),
(1036,1652,c),
(1036,2060,l),
(972,2064,o),
(896,2076,o),
(764,2076,cs),
(476,2076,o),
(132,2044,o),
(132,1548,cs),
(132,0,l),
(680,0,l),
(680,252,l),
(692,252,l),
(756,96,o),
(904,-20,o),
(1120,-20,cs)
);
},
{
closed = 1;
nodes = (
(764,404,o),
(672,544,o),
(672,768,cs),
(672,996,o),
(764,1132,o),
(916,1132,cs),
(1068,1132,o),
(1156,996,o),
(1156,768,cs),
(1156,540,o),
(1068,404,o),
(916,404,cs)
);
}
);
width = 1816;
},
{
anchors = (
{
name = bottom;
pos = (1128,-24);
},
{
name = top;
pos = (1100,2340);
},
{
name = top0315;
pos = (1780,2340);
}
);
associatedMasterId = "5C20EF92-B63D-42A8-8878-93C2863E0093";
background = {
shapes = (
{
ref = b;
}
);
};
layerId = "ECA8E92F-4818-494F-BC05-42A9D130998C";
name = "Nov 23 18, 12:34";
shapes = (
{
closed = 1;
nodes = (
(688,0,l),
(688,124,l),
(708,124,l),
(764,-4,o),
(908,-20,o),
(1036,-20,cs),
(1356,-20,o),
(1640,232,o),
(1640,768,c),
(1640,1324,o),
(1336,1556,o),
(1040,1556,cs),
(900,1556,o),
(760,1528,o),
(708,1404,c),
(692,1404,l),
(692,1548,ls),
(692,1640,o),
(824,1660,o),
(924,1660,cs),
(964,1660,o),
(1000,1656,o),
(1044,1652,c),
(1044,2060,l),
(980,2064,o),
(904,2076,o),
(772,2076,cs),
(484,2076,o),
(140,2044,o),
(140,1548,cs),
(140,0,l)
);
},
{
closed = 1;
nodes = (
(656,404,o),
(624,584,o),
(624,768,c),
(624,960,o),
(664,1132,o),
(860,1132,cs),
(1036,1132,o),
(1124,1012,o),
(1124,768,cs),
(1124,524,o),
(1036,404,o),
(860,404,cs)
);
}
);
width = 1732;
},
{
layerId = "B1F27B51-9973-4381-9301-4FE46FE1CA59";
shapes = (
{
closed = 1;
nodes = (
(1244,-32,o),
(1472,310,o),
(1472,764,cs),
(1472,1216,o),
(1240,1560,o),
(880,1560,cs),
(636,1560,o),
(440,1400,o),
(360,1144,c),
(352,1144,l),
(352,1780,ls),
(352,1950,o),
(402,2012,o),
(542,2012,cs),
(568,2012,o),
(606,2010,o),
(640,2006,c),
(640,2070,l),
(606,2074,o),
(570,2076,o),
(542,2076,cs),
(366,2076,o),
(288,1988,o),
(288,1780,cs),
(288,0,l),
(352,0,l),
(352,384,l),
(360,384,l),
(444,130,o),
(634,-32,o),
(880,-32,cs)
);
},
{
closed = 1;
nodes = (
(554,32,o),
(352,348,o),
(352,764,cs),
(352,1180,o),
(556,1496,o),
(880,1496,cs),
(1204,1496,o),
(1408,1180,o),
(1408,764,cs),
(1408,348,o),
(1206,32,o),
(880,32,cs)
);
}
);
width = 1620;
},
{
associatedMasterId = "CD0E3B44-F66A-4791-B84C-A1128DC61275";
layerId = "8BB018C8-0109-43DB-9774-AC8BDEA84318";
shapes = (
{
closed = 1;
nodes = (
(1306,-32,o),
(1576,276,o),
(1576,764,cs),
(1576,1250,o),
(1306,1556,o),
(920,1556,cs),
(622,1556,o),
(530,1374,o),
(476,1292,c),
(458,1292,l),
(458,1662,ls),
(458,1820,o),
(554,1866,o),
(682,1866,cs),
(710,1866,o),
(738,1862,o),
(758,1858,c),
(758,2064,l),
(722,2076,o),
(670,2076,o),
(620,2076,cs),
(394,2076,o),
(214,1930,o),
(214,1662,cs),
(214,0,l),
(450,0,l),
(450,236,l),
(476,236,l),
(530,150,o),
(630,-32,o),
(924,-32,cs)
);
},
{
closed = 1;
nodes = (
(608,186,o),
(452,424,o),
(452,768,cs),
(452,1110,o),
(604,1338,o),
(888,1338,cs),
(1184,1338,o),
(1330,1090,o),
(1330,768,cs),
(1330,442,o),
(1180,186,o),
(888,186,cs)
);
}
);
width = 1686.06038;
},
{
layerId = "CD0E3B44-F66A-4791-B84C-A1128DC61275";
shapes = (
{
closed = 1;
nodes = (
(1318,-32,o),
(1588,276,o),
(1588,764,cs),
(1588,1250,o),
(1318,1556,o),
(932,1556,cs),
(634,1556,o),
(542,1374,o),
(488,1292,c),
(470,1292,l),
(470,1662,ls),
(470,1820,o),
(566,1866,o),
(694,1866,cs),
(722,1866,o),
(750,1862,o),
(770,1858,c),
(770,2064,l),
(734,2076,o),
(682,2076,o),
(632,2076,cs),
(406,2076,o),
(226,1930,o),
(226,1662,cs),
(226,0,l),
(462,0,l),
(462,236,l),
(488,236,l),
(542,150,o),
(642,-32,o),
(936,-32,cs)
);
},
{
closed = 1;
nodes = (
(620,186,o),
(464,424,o),
(464,768,cs),
(464,1110,o),
(616,1338,o),
(900,1338,cs),
(1196,1338,o),
(1342,1090,o),
(1342,768,cs),
(1342,442,o),
(1192,186,o),
(900,186,cs)
);
}
);
width = 1710;
}
);
metricLeft = b;
metricRight = b;
unicode = 595;
userData = {
interface.gridadjust.original = "{'width': 1588, 'leftMargin': 188, 'rightMargin': 126}";
"interface.width-adjustments" = (
-16
);
};
}
{
glyphname = epsilon1revhook;
kernLeft = epsilongreek;
kernRight = epsilongreek;
layers = (
{
layerId = "5C20EF92-B63D-42A8-8878-93C2863E0093";
shapes = (
{
closed = 1;
nodes = (
(1580,948,l),
(1643,684,o),
(1699,480,o),
(1996,480,cs),
(2079,480,o),
(2175,500,o),
(2248,540,c),
(2180,864,l),
(2151,860,o),
(2127,864,o),
(2100,864,cs),
(1935,864,o),
(1943,1032,o),
(1896,1336,c),
(1360,1220,l),
(1360,888,l)
);
},
{
pos = (8,0);
ref = epsilon1rev;
}
);
width = 2460;
},
{
layerId = "B1F27B51-9973-4381-9301-4FE46FE1CA59";
shapes = (
{
closed = 1;
nodes = (
(1320,1150,l),
(1340,947,o),
(1430,839,o),
(1560,836,cs),
(1601,835,o),
(1639,844,o),
(1676,858,c),
(1660,912,l),
(1637,904,o),
(1607,897,o),
(1574,898,cs),
(1458,902,o),
(1388,999,o),
(1366,1224,c),
(1192,1194,l),
(1192,1130,l)
);
},
{
alignment = -1;
pos = (-4,0);
ref = epsilon1rev;
}
);
width = 1654;
},
{
associatedMasterId = "CD0E3B44-F66A-4791-B84C-A1128DC61275";
layerId = "71EB5D3D-5D4E-431C-8AD9-21697C5DF8D2";
shapes = (
{
closed = 1;
nodes = (
(1400,1034,l),
(1440,848,o),
(1512,686,o),
(1742,686,cs),
(1806,686,o),
(1868,702,o),
(1920,732,c),
(1882,904,l),
(1866,900,o),
(1846,896,o),
(1798,896,cs),
(1650,896,o),
(1616,1060,o),
(1580,1296,c),
(1212,1224,l),
(1212,998,l)
);
},
{
alignment = -1;
ref = epsilon1rev;
}
);
width = 1978.89057;
},
{
layerId = "CD0E3B44-F66A-4791-B84C-A1128DC61275";
shapes = (
{
closed = 1;
nodes = (
(1410,1034,l),
(1450,848,o),
(1522,686,o),
(1752,686,cs),
(1816,686,o),
(1878,702,o),
(1930,732,c),
(1892,904,l),
(1876,900,o),
(1856,896,o),
(1808,896,cs),
(1660,896,o),
(1626,1060,o),
(1590,1296,c),
(1222,1224,l),
(1222,998,l)
);
},
{
alignment = -1;
ref = epsilon1rev;
}
);
width = 1996;
}
);
unicode = 605;
userData = {
interface.gridadjust.original = "{'width': 2017, 'leftMargin': 135, 'rightMargin': 27}";
"interface.width-adjustments" = (
-16
);
};
}
{
glyphname = lbelt;
kernLeft = t;
kernRight = t;
layers = (
{
layerId = "5C20EF92-B63D-42A8-8878-93C2863E0093";
shapes = (
{
closed = 1;
nodes = (
(1540,1044,l),
(592,1044,ls),
(511,1044,o),
(479,1084,o),
(480,1120,cs),
(479,1156,o),
(531,1192,o),
(600,1192,cs),
(663,1192,o),
(687,1144,o),
(688,1044,cs),
(688,548,l),
(1240,548,l),
(1240,892,ls),
(1239,1224,o),
(1115,1556,o),
(608,1556,cs),
(211,1556,o),
(35,1344,o),
(36,1104,cs),
(35,880,o),
(179,712,o),
(528,712,cs),
(1540,712,l)
);
},
{
closed = 1;
nodes = (
(688,2048,l),
(688,0,l),
(1240,0,l),
(1240,2048,l)
);
}
);
width = 1576;
},
{
layerId = "B1F27B51-9973-4381-9301-4FE46FE1CA59";
shapes = (
{
closed = 1;
nodes = (
(804,996,l),
(346,994,ls),
(184,993,o),
(58,1105,o),
(58,1242,cs),
(58,1379,o),
(182,1490,o),
(302,1490,cs),
(468,1490,o),
(554,1370,o),
(554,1210,cs),
(554,908,l),
(618,908,l),
(618,1210,l),
(618,1405,o),
(502,1554,o),
(302,1554,cs),
(147,1554,o),
(-6,1415,o),
(-6,1242,cs),
(-6,1069,o),
(147,929,o),
(346,930,cs),
(804,932,l)
);
},
{
closed = 1;
nodes = (
(554,2048,l),
(554,0,l),
(618,0,l),
(618,2048,l)
);
}
);
width = 878;
},
{
layerId = "CD0E3B44-F66A-4791-B84C-A1128DC61275";
shapes = (
{
closed = 1;
nodes = (
(1144,1044,l),
(458,1044,ls),
(362,1044,o),
(294,1112,o),
(294,1190,cs),
(294,1274,o),
(358,1344,o),
(442,1344,cs),
(552,1344,o),
(604,1268,o),
(604,1180,cs),
(604,642,l),
(848,642,l),
(848,1154,ls),
(848,1388,o),
(704,1556,o),
(446,1556,cs),
(194,1556,o),
(42,1394,o),
(42,1190,cs),
(42,962,o),
(228,822,o),
(452,822,cs),
(1144,822,l)
);
},
{
closed = 1;
nodes = (
(604,2048,l),
(604,0,l),
(848,0,l),
(848,2048,l)
);
}
);
width = 1146;
}
);
unicode = 620;
userData = {
interface.gridadjust.original = "{'width': 1233, 'leftMargin': 41, 'rightMargin': 27}";
"interface.width-adjustments" = (
-16
);
};
}
{
glyphname = lrthook;
kernLeft = B;
kernRight = rthook;
layers = (
{
layerId = "5C20EF92-B63D-42A8-8878-93C2863E0093";
shapes = (
{
closed = 1;
nodes = (
(140,0,l),
(140,-48,ls),
(140,-500,o),
(413,-576,o),
(752,-576,cs),
(885,-576,o),
(961,-564,o),
(1024,-560,c),
(1024,-152,l),
(981,-156,o),
(941,-160,o),
(900,-160,cs),
(805,-160,o),
(692,-140,o),
(692,-48,cs),
(692,0,l)
);
},
{
ref = l;
}
);
width = 1024;
},
{
layerId = "B1F27B51-9973-4381-9301-4FE46FE1CA59";
shapes = (
{
closed = 1;
nodes = (
(240,20,l),
(240,-276,ls),
(240,-483,o),
(318,-572,o),
(494,-572,cs),
(521,-572,o),
(558,-570,o),
(592,-566,c),
(592,-502,l),
(557,-506,o),
(520,-508,o),
(494,-508,cs),
(353,-508,o),
(304,-445,o),
(304,-276,cs),
(304,20,l,{
name = hr00;
})
);
},
{
alignment = -1;
ref = l;
}
);
width = 526;
},
{
associatedMasterId = "CD0E3B44-F66A-4791-B84C-A1128DC61275";
layerId = "CDA9EBBC-B121-41C8-9596-1D1C72118B5B";
shapes = (
{
closed = 1;
nodes = (
(182,0,l),
(182,-162,ls),
(182,-430,o),
(360,-576,o),
(588,-576,cs),
(638,-576,o),
(690,-576,o),
(726,-564,c),
(726,-358,l),
(706,-362,o),
(678,-366,o),
(650,-366,cs),
(522,-366,o),
(426,-320,o),
(426,-162,cs),
(426,0,l)
);
},
{
alignment = -1;
ref = l;
}
);
width = 695.06415;
},
{
layerId = "CD0E3B44-F66A-4791-B84C-A1128DC61275";
shapes = (
{
closed = 1;
nodes = (
(194,0,l),
(194,-162,ls),
(194,-430,o),
(372,-576,o),
(600,-576,cs),
(650,-576,o),
(702,-576,o),
(738,-564,c),
(738,-358,l),
(718,-362,o),
(690,-366,o),
(662,-366,cs),
(534,-366,o),
(438,-320,o),
(438,-162,cs),
(438,0,l)
);
},
{
alignment = -1;
pos = (2,0);
ref = l;
}
);
width = 716;
}
);
metricLeft = l;
unicode = 621;
userData = {
interface.gridadjust.original = "{'width': 924.0, 'leftMargin': 301, 'rightMargin': 66.0}";
"interface.width-adjustments" = (
-16
);
};
}
{
glyphname = nlfthook;
kernLeft = jdotless;
kernRight = a;
layers = (
{
layerId = "5C20EF92-B63D-42A8-8878-93C2863E0093";
shapes = (
{
closed = 1;
nodes = (
(268,-32,ls),
(268,-118,o),
(217,-164,o),
(112,-164,cs),
(49,-164,o),
(1,-156,o),
(-48,-144,c),
(-96,-588,l),
(-3,-604,o),
(81,-608,o),
(172,-608,cs),
(569,-608,o),
(820,-421,o),
(820,-32,cs),
(820,0,l),
(268,0,l)
);
},
{
pos = (128,0);
ref = n;
}
);
width = 1948;
},
{
layerId = "B1F27B51-9973-4381-9301-4FE46FE1CA59";
shapes = (
{
closed = 1;
nodes = (
(244,-232,ls),
(244,-420,o),
(172,-508,o),
(32,-508,cs),
(-5,-508,o),
(-38,-502,o),
(-64,-496,c),
(-64,-554,l),
(-40,-566,o),
(-4,-572,o),
(36,-572,cs),
(210,-572,o),
(308,-454,o),
(308,-232,cs),
(308,0,l),
(244,0,l)
);
},
{
alignment = -1;
pos = (4,0);
ref = n;
}
);
width = 1540;
},
{
associatedMasterId = "CD0E3B44-F66A-4791-B84C-A1128DC61275";
layerId = "8C5A4F94-CAE9-463B-80CF-D6214F97989C";
shapes = (
{
closed = 1;
nodes = (
(232,-160,ls),
(232,-318,o),
(138,-366,o),
(10,-366,cs),
(-18,-366,o),
(-48,-362,o),
(-68,-358,c),
(-70,-564,l),
(-32,-576,o),
(20,-576,o),
(70,-576,cs),
(298,-576,o),
(476,-428,o),
(476,-160,cs),
(476,0,l),
(232,0,l)
);
},
{
alignment = -1;
pos = (50,0);
ref = n;
}
);
width = 1638.57358;
},
{
layerId = "CD0E3B44-F66A-4791-B84C-A1128DC61275";
shapes = (
{
closed = 1;
nodes = (
(244,-160,ls),
(244,-318,o),
(150,-366,o),
(22,-366,cs),
(-6,-366,o),
(-36,-362,o),
(-56,-358,c),
(-58,-564,l),
(-20,-576,o),
(32,-576,o),
(82,-576,cs),
(310,-576,o),
(488,-428,o),
(488,-160,cs),
(488,0,l),
(244,0,l)
);
},
{
alignment = -1;
pos = (52,0);
ref = n;
}
);
width = 1664;
}
);
metricLeft = jdotless;
metricRight = n;
unicode = 626;
userData = {
interface.gridadjust.original = "{'width': 1636, 'leftMargin': -14, 'rightMargin': 20}";
"interface.width-adjustments" = (
-16
);
};
}
{
glyphname = Nsmallcap;
kernLeft = m;
kernRight = u;
layers = (
{
background = {
shapes = (
{
pos = (42,0);
ref = N;
scale = (0.75,0.75);
}
);
};
guides = (
{
angle = -52;
pos = (930,152);
},
{
angle = -52;
pos = (830,1010);
}
);
layerId = "5C20EF92-B63D-42A8-8878-93C2863E0093";
shapes = (
{
closed = 1;
nodes = (
(1140,1536,l),
(1140,832,l),
(1124,832,l),
(574,1536,l),
(140,1536,l),
(140,0,l),
(672,0,l),
(672,634,l),
(684,634,l),
(1176,0,l),
(1684,0,l),
(1684,1536,l)
);
}
);
width = 1824;
},
{
layerId = "B1F27B51-9973-4381-9301-4FE46FE1CA59";
shapes = (
{
closed = 1;
nodes = (
(1328,1536,l),
(1328,120,l),
(1320,120,l),
(304,1536,l),
(240,1536,l),
(240,0,l),
(304,0,l),
(304,1416,l),
(312,1416,l),
(1328,0,l),
(1392,0,l),
(1392,1536,l)
);
}
);
width = 1632;
},
{
associatedMasterId = "CD0E3B44-F66A-4791-B84C-A1128DC61275";
layerId = "66592791-6300-4ACA-BBDB-F315013F3B9C";
shapes = (
{
closed = 1;
nodes = (
(1164,1536,l),
(1164,446,l),
(1144,446,l),
(416,1536,l),
(182,1536,l),
(182,0,l),
(426,0,l),
(426,1084,l),
(446,1084,l),
(1170,0,l),
(1408,0,l),
(1408,1536,l)
);
}
);
width = 1590.66038;
},
{
layerId = "CD0E3B44-F66A-4791-B84C-A1128DC61275";
shapes = (
{
closed = 1;
nodes = (
(1176,1536,l),
(1176,446,l),
(1156,446,l),
(428,1536,l),
(194,1536,l),
(194,0,l),
(438,0,l),
(438,1084,l),
(458,1084,l),
(1182,0,l),
(1420,0,l),
(1420,1536,l)
);
}
);
width = 1614;
}
);
metricLeft = m;
metricRight = u;
unicode = 628;
userData = {
interface.gridadjust.original = "{'width': 1585, 'leftMargin': 188, 'rightMargin': 188}";
"interface.width-adjustments" = (
-16
);
};
}
{
glyphname = OEsmallcap;
layers = (
{
layerId = "5C20EF92-B63D-42A8-8878-93C2863E0093";
shapes = (
{
closed = 1;
nodes = (
(1408,412,l),
(1408,0,l),
(2284,0,l),
(2284,412,l,{
name = hr00;
})
);
},
{
closed = 1;
nodes = (
(1096,1488,l),
(1096,0,l),
(1616,0,l),
(1616,1488,l)
);
},
{
closed = 1;
nodes = (
(1408,948,l),
(1408,536,l),
(2160,536,l),
(2160,948,l)
);
},
{
closed = 1;
nodes = (
(1408,1488,l),
(1408,1076,l),
(2284,1076,l),
(2284,1488,l)
);
},
{
closed = 1;
nodes = (
(1063,-28,o),
(1123,0,o),
(1444,0,c),
(1444,412,l),
(1123,412,o),
(1011,388,o),
(888,388,cs),
(687,388,o),
(643,532,o),
(644,728,c),
(644,760,l),
(643,944,o),
(691,1104,o),
(884,1104,cs),
(1015,1104,o),
(1123,1076,o),
(1444,1076,c),
(1444,1488,l),
(1131,1488,o),
(1063,1516,o),
(884,1516,cs),
(391,1516,o),
(123,1192,o),
(124,760,c),
(124,728,l),
(123,296,o),
(391,-28,o),
(888,-28,cs)
);
}
);
width = 2412;
},
{
layerId = "B1F27B51-9973-4381-9301-4FE46FE1CA59";
shapes = (
{
closed = 1;
nodes = (
(1356,64,l),
(1356,0,l),
(2304,0,l),
(2304,64,l,{
name = hr00;
})
);
},
{
closed = 1;
nodes = (
(1304,1488,l),
(1304,0,l),
(1368,0,l),
(1368,1488,l)
);
},
{
closed = 1;
nodes = (
(1356,794,l),
(1356,730,l),
(2188,730,l),
(2188,794,l)
);
},
{
closed = 1;
nodes = (
(1356,1488,l),
(1356,1424,l),
(2304,1424,l),
(2304,1488,l)
);
},
{
closed = 1;
nodes = (
(1032,-32,o),
(1201,-17,o),
(1318,2,c),
(1318,66,l),
(1182,45,o),
(1036,32,o),
(952,32,cs),
(562,32,o),
(328,320,o),
(328,744,cs),
(328,752,ls),
(328,1168,o),
(554,1454,o),
(954,1454,cs),
(1071,1454,o),
(1159,1446,o),
(1326,1422,c),
(1326,1486,l),
(1147,1508,o),
(1036,1518,o),
(944,1518,cs),
(518,1518,o),
(264,1199,o),
(264,750,cs),
(264,744,ls),
(264,289,o),
(528,-32,o),
(946,-32,cs)
);
}
);
width = 2560;
},
{
associatedMasterId = "CD0E3B44-F66A-4791-B84C-A1128DC61275";
layerId = "EFDA332D-9015-41AA-9FE3-DFC7F8C9D9DE";
shapes = (
{
closed = 1;
nodes = (
(1412,220,l),
(1412,0,l),
(2284,0,l),
(2284,220,l,{
name = hr00;
})
);
},
{
closed = 1;
nodes = (
(1196,1488,l),
(1196,0,l),
(1478,0,l),
(1478,1488,l)
);
},
{
closed = 1;
nodes = (
(1412,866,l),
(1412,642,l),
(2164,642,l),
(2164,866,l)
);
},
{
closed = 1;
nodes = (
(1412,1488,l),
(1412,1268,l),
(2284,1268,l),
(2284,1488,l)
);
},
{
closed = 1;
nodes = (
(1040,-28,o),
(1178,0,o),
(1388,0,c),
(1388,220,l),
(1178,220,o),
(1058,196,o),
(880,196,cs),
(610,196,o),
(480,442,o),
(480,728,c),
(480,760,l),
(480,1042,o),
(610,1292,o),
(876,1292,cs),
(1058,1292,o),
(1178,1268,o),
(1388,1268,c),
(1388,1488,l),
(1178,1488,o),
(1040,1516,o),
(876,1516,cs),
(458,1516,o),
(198,1188,o),
(198,760,c),
(198,728,l),
(198,300,o),
(458,-28,o),
(880,-28,cs)
);
}
);
width = 2477.15472;
},
{
layerId = "CD0E3B44-F66A-4791-B84C-A1128DC61275";
shapes = (
{
closed = 1;
nodes = (
(1424,220,l),
(1424,0,l),
(2296,0,l),
(2296,220,l,{
name = hr00;
})
);
},
{
closed = 1;
nodes = (
(1208,1488,l),
(1208,0,l),
(1490,0,l),
(1490,1488,l)
);
},
{
closed = 1;
nodes = (
(1424,866,l),
(1424,642,l),
(2176,642,l),
(2176,866,l)
);
},
{
closed = 1;
nodes = (
(1424,1488,l),
(1424,1268,l),
(2296,1268,l),
(2296,1488,l)
);
},
{
closed = 1;
nodes = (
(1052,-28,o),
(1190,0,o),
(1400,0,c),
(1400,220,l),
(1190,220,o),
(1070,196,o),
(892,196,cs),
(622,196,o),
(492,442,o),
(492,728,c),
(492,760,l),
(492,1042,o),
(622,1292,o),
(888,1292,cs),
(1070,1292,o),
(1190,1268,o),
(1400,1268,c),
(1400,1488,l),
(1190,1488,o),
(1052,1516,o),
(888,1516,cs),
(470,1516,o),
(210,1188,o),
(210,760,c),
(210,728,l),
(210,300,o),
(470,-28,o),
(892,-28,cs)
);
}
);
width = 2502;
}
);
unicode = 630;
userData = {
interface.gridadjust.original = "{'width': 2375, 'leftMargin': 172, 'rightMargin': 120}";
"interface.width-adjustments" = (
-16
);
};
}
{
glyphname = rturnrthook;
kernRight = rthook;
layers = (
{
layerId = "5C20EF92-B63D-42A8-8878-93C2863E0093";
shapes = (
{
closed = 1;
nodes = (
(1288,-600,o),
(1368,-592,o),
(1452,-580,c),
(1452,-236,l),
(1404,-240,o),
(1376,-244,o),
(1324,-244,cs),
(1155,-244,o),
(1080,-183,o),
(1080,-44,cs),
(1080,0,l),
(544,0,l),
(544,-76,ls),
(544,-532,o),
(836,-600,o),
(1176,-600,cs)
);
},
{
ref = rturn;
}
);
width = 1420;
},
{
layerId = "B1F27B51-9973-4381-9301-4FE46FE1CA59";
shapes = (
{
closed = 1;
nodes = (
(848,-540,o),
(868,-540,o),
(884,-540,c),
(884,-476,l),
(868,-476,o),
(848,-476,o),
(832,-476,cs),
(703,-476,o),
(612,-385,o),
(612,-256,cs),
(612,0,l),
(548,0,l),
(548,-256,ls),
(548,-422,o),
(666,-540,o),
(832,-540,cs)
);
},
{
alignment = -1;
ref = rturn;
}
);
width = 820;
},
{
associatedMasterId = "CD0E3B44-F66A-4791-B84C-A1128DC61275";
layerId = "B40A3558-040A-484A-B01A-B8D78B32357E";
shapes = (
{
closed = 1;
nodes = (
(1014,-600,o),
(1070,-596,o),
(1108,-584,c),
(1108,-396,l),
(1088,-404,o),
(1052,-404,o),
(1030,-404,cs),
(884,-404,o),
(806,-330,o),
(806,-188,cs),
(806,0,l),
(570,0,l),
(570,-190,ls),
(570,-458,o),
(742,-600,o),
(968,-600,cs)
);
},
{
alignment = -1;
ref = rturn;
}
);
width = 1044.24151;
},
{
layerId = "CD0E3B44-F66A-4791-B84C-A1128DC61275";
shapes = (
{
closed = 1;
nodes = (
(1024,-600,o),
(1080,-596,o),
(1118,-584,c),
(1118,-396,l),
(1098,-404,o),
(1062,-404,o),
(1040,-404,cs),
(894,-404,o),
(816,-330,o),
(816,-188,cs),
(816,0,l),
(580,0,l),
(580,-190,ls),
(580,-458,o),
(752,-600,o),
(978,-600,cs)
);
},
{
alignment = -1;
ref = rturn;
}
);
width = 1064;
}
);
metricLeft = rturn;
unicode = 635;
userData = {
interface.gridadjust.original = "{'width': 1035, 'leftMargin': -68, 'rightMargin': -14}";
"interface.width-adjustments" = (
-16
);
};
}
{
color = 9;
glyphname = rdescend.1;
kernLeft = m;
kernRight = r;
layers = (
{
layerId = "5C20EF92-B63D-42A8-8878-93C2863E0093";
shapes = (
{
closed = 1;
nodes = (
(692,-576,l),
(692,0,l),
(140,0,l),
(140,-576,l)
);
},
{
ref = r.1;
}
);
width = 1260;
},
{
layerId = "B1F27B51-9973-4381-9301-4FE46FE1CA59";
shapes = (
{
closed = 1;
nodes = (
(304,-576,l),
(304,0,l),
(240,0,l),
(240,-576,l)
);
},
{
alignment = -1;
ref = r.1;
}
);
width = 956;
},
{
associatedMasterId = "CD0E3B44-F66A-4791-B84C-A1128DC61275";
layerId = "48E58423-489A-472A-A0A7-84CDC1FD15C9";
shapes = (
{
closed = 1;
nodes = (
(426,-576,l),
(426,0,l),
(182,0,l),
(182,-576,l)
);
},
{
alignment = -1;
ref = r.1;
}
);
width = 1020.80755;
},
{
layerId = "CD0E3B44-F66A-4791-B84C-A1128DC61275";
shapes = (
{
closed = 1;
nodes = (
(438,-576,l),
(438,0,l),
(194,0,l),
(194,-576,l)
);
},
{
alignment = -1;
pos = (2,0);
ref = r.1;
}
);
width = 1046;
}
);
metricLeft = r;
metricRight = r.1;
unicode = 636;
userData = {
interface.gridadjust.original = "{'width': 956, 'leftMargin': 188, 'rightMargin': 42}";
"interface.width-adjustments" = (
-16
);
};
}
{
glyphname = rfishhook;
kernLeft = m;
kernRight = r;
layers = (
{
background = {
shapes = (
{
closed = 1;
nodes = (
(656,980,ls),
(655,1124,o),
(795,1156,o),
(904,1156,cs),
(951,1156,o),
(987,1152,o),
(1028,1148,c),
(1028,1480,l),
(951,1492,o),
(871,1500,o),
(748,1500,cs),
(459,1500,o),
(123,1464,o),
(124,976,cs),
(124,0,l),
(656,0,l,{
name = hr00;
})
);
}
);
};
layerId = "5C20EF92-B63D-42A8-8878-93C2863E0093";
shapes = (
{
closed = 1;
nodes = (
(656,1036,ls),
(656,1180,o),
(795,1212,o),
(904,1212,cs),
(951,1212,o),
(987,1208,o),
(1028,1204,c),
(1028,1536,l),
(951,1548,o),
(871,1556,o),
(748,1556,cs),
(459,1556,o),
(124,1520,o),
(124,1032,cs),
(124,0,l),
(656,0,l,{
name = hr00;
})
);
}
);
width = 1196;
},
{
layerId = "B1F27B51-9973-4381-9301-4FE46FE1CA59";
shapes = (
{
closed = 1;
nodes = (
(306,1268,ls),
(306,1476,o),
(355,1528,o),
(496,1528,cs),
(522,1528,o),
(559,1526,o),
(594,1522,c),
(594,1586,l),
(560,1590,o),
(523,1592,o),
(496,1592,cs),
(320,1592,o),
(242,1514,o),
(242,1268,cs),
(242,0,l),
(306,0,l)
);
}
);
width = 594;
},
{
layerId = "CD0E3B44-F66A-4791-B84C-A1128DC61275";
shapes = (
{
closed = 1;
nodes = (
(438,1130,ls),
(438,1286,o),
(554,1332,o),
(682,1332,cs),
(706,1332,o),
(734,1328,o),
(758,1324,c),
(758,1536,l),
(722,1548,o),
(660,1556,o),
(618,1556,cs),
(394,1556,o),
(194,1414,o),
(194,1146,cs),
(194,0,l),
(438,0,l)
);
}
);
width = 824;
}
);
unicode = 638;
userData = {
interface.gridadjust.original = "{'width': 787, 'leftMargin': 188, 'rightMargin': 42}";
"interface.width-adjustments" = (
-16
);
};
}
{
glyphname = Rsmallcap;
layers = (
{
layerId = "5C20EF92-B63D-42A8-8878-93C2863E0093";
shapes = (
{
closed = 1;
nodes = (
(1200,0,l),
(1712,0,l),
(1292,776,l),
(780,776,l)
);
},
{
closed = 1;
nodes = (
(268,0,l),
(780,0,l),
(780,1076,l),
(976,1076,ls),
(1108,1076,o),
(1176,1012,o),
(1176,932,cs),
(1176,856,o),
(1104,792,o),
(968,792,cs),
(568,792,l),
(568,460,l),
(968,460,ls),
(1404,460,o),
(1688,664,o),
(1688,952,cs),
(1688,1260,o),
(1412,1488,o),
(976,1488,cs),
(268,1488,l)
);
}
);
width = 1976;
},
{
layerId = "B1F27B51-9973-4381-9301-4FE46FE1CA59";
shapes = (
{
closed = 1;
nodes = (
(1316,0,l),
(1392,0,l),
(948,680,l),
(870,680,l)
);
},
{
closed = 1;
nodes = (
(200,0,l),
(264,0,l),
(264,1424,l),
(784,1424,ls),
(1046,1424,o),
(1209,1297,o),
(1210,1092,cs),
(1211,857,o),
(1068,712,o),
(836,712,cs),
(224,712,l),
(224,648,l),
(836,648,ls),
(1102,648,o),
(1272,817,o),
(1272,1080,cs),
(1272,1333,o),
(1087,1488,o),
(784,1488,cs),
(200,1488,l)
);
}
);
width = 1592;
},
{
layerId = "CD0E3B44-F66A-4791-B84C-A1128DC61275";
shapes = (
{
closed = 1;
nodes = (
(1214,0,l),
(1514,0,l),
(1080,718,l),
(778,718,l)
);
},
{
closed = 1;
nodes = (
(222,0,l),
(504,0,l),
(504,1268,l),
(856,1268,ls),
(1062,1268,o),
(1150,1144,o),
(1150,1030,cs),
(1150,914,o),
(1070,796,o),
(884,796,cs),
(430,796,l),
(430,574,l),
(884,574,ls),
(1230,574,o),
(1432,770,o),
(1432,1030,cs),
(1432,1296,o),
(1222,1488,o),
(856,1488,cs),
(222,1488,l)
);
}
);
width = 1736;
}
);
unicode = 640;
userData = {
interface.gridadjust.original = "{'width': 1555, 'leftMargin': 147, 'rightMargin': 122}";
"interface.width-adjustments" = (
-16
);
};
}
{
glyphname = trthook;
kernLeft = t;
kernRight = rthook;
layers = (
{
layerId = "5C20EF92-B63D-42A8-8878-93C2863E0093";
shapes = (
{
closed = 1;
nodes = (
(44,1536,l),
(44,1136,l),
(1056,1136,l),
(1056,1536,l)
);
},
{
closed = 1;
nodes = (
(240,-108,l),
(236,-432,o),
(436,-592,o),
(816,-572,cs),
(940,-564,o),
(1036,-540,o),
(1084,-524,c),
(1004,-136,l),
(984,-140,o),
(928,-152,o),
(896,-152,cs),
(824,-152,o),
(792,-120,o),
(792,-56,cs),
(792,1904,l),
(240,1904,l)
);
}
);
width = 1148;
},
{
layerId = "B1F27B51-9973-4381-9301-4FE46FE1CA59";
shapes = (
{
closed = 1;
nodes = (
(112,1536,l),
(112,1472,l),
(720,1472,l),
(720,1536,l)
);
},
{
closed = 1;
nodes = (
(336,-258,ls),
(336,-474,o),
(500,-610,o),
(688,-610,cs),
(736,-610,o),
(772,-602,o),
(812,-586,c),
(792,-526,l),
(758,-538,o),
(728,-546,o),
(688,-546,cs),
(536,-546,o),
(400,-436,o),
(400,-258,cs),
(400,1904,l),
(336,1904,l)
);
}
);
width = 956;
},
{
layerId = "CD0E3B44-F66A-4791-B84C-A1128DC61275";
shapes = (
{
closed = 1;
nodes = (
(66,1536,l),
(66,1332,l),
(866,1332,l),
(866,1536,l)
);
},
{
closed = 1;
nodes = (
(296,-210,ls),
(296,-478,o),
(512,-608,o),
(716,-608,cs),
(806,-606,o),
(862,-590,o),
(894,-578,c),
(846,-362,l),
(826,-366,o),
(794,-374,o),
(742,-374,cs),
(638,-374,o),
(540,-342,o),
(540,-146,cs),
(540,1904,l),
(296,1904,l)
);
}
);
width = 990;
}
);
metricLeft = t;
metricRight = t;
unicode = 648;
userData = {
interface.gridadjust.original = "{'width': 932, 'leftMargin': 8, 'rightMargin': 96}";
"interface.width-adjustments" = (
-16
);
};
}
{
glyphname = Ysmallcap;
layers = (
{
layerId = "5C20EF92-B63D-42A8-8878-93C2863E0093";
shapes = (
{
closed = 1;
nodes = (
(792,400,l),
(1056,400,l),
(1636,1488,l),
(1088,1488,l),
(744,688,l)
);
},
{
closed = 1;
nodes = (
(28,1488,l),
(612,400,l),
(876,400,l),
(928,680,l),
(584,1488,l)
);
},
{
closed = 1;
nodes = (
(572,628,l),
(572,0,l),
(1084,0,l),
(1084,628,l)
);
}
);
width = 1664;
},
{
layerId = "B1F27B51-9973-4381-9301-4FE46FE1CA59";
shapes = (
{
closed = 1;
nodes = (
(652,528,l),
(712,528,l),
(1356,1488,l),
(1280,1488,l),
(652,552,l)
);
},
{
closed = 1;
nodes = (
(16,1488,l),
(648,528,l),
(706,528,l),
(706,554,l),
(92,1488,l)
);
},
{
closed = 1;
nodes = (
(648,544,l),
(648,0,l),
(712,0,l),
(712,544,l)
);
}
);
width = 1370;
},
{
layerId = "CD0E3B44-F66A-4791-B84C-A1128DC61275";
shapes = (
{
closed = 1;
nodes = (
(700,478,l),
(866,478,l),
(1462,1488,l),
(1148,1488,l),
(656,590,l)
);
},
{
closed = 1;
nodes = (
(18,1488,l),
(614,478,l),
(780,478,l),
(832,582,l),
(332,1488,l)
);
},
{
closed = 1;
nodes = (
(598,710,l),
(598,0,l),
(874,0,l),
(874,710,l)
);
}
);
width = 1480;
}
);
unicode = 655;
userData = {
interface.gridadjust.original = "{'width': 1474.0, 'leftMargin': 17, 'rightMargin': 16.0}";
"interface.width-adjustments" = (
-16
);
};
}
{
glyphname = glottalstoprevinv;
layers = (
{
anchors = (
{
name = cross;
pos = (860,228);
}
);
guides = (
{
pos = (-136,2140);
}
);
layerId = "5C20EF92-B63D-42A8-8878-93C2863E0093";
shapes = (
{
closed = 1;
nodes = (
(661,792,o),
(660,984,o),
(660,1136,cs),
(660,1312,ls),
(660,1464,o),
(661,1664,o),
(864,1664,cs),
(1005,1664,o),
(1061,1572,o),
(1060,1456,c),
(1544,1456,l),
(1549,1868,o),
(1269,2076,o),
(876,2076,cs),
(393,2076,o),
(140,1760,o),
(140,1312,cs),
(140,1136,ls),
(140,696,o),
(393,380,o),
(880,380,cs),
(1072,380,l),
(1072,792,l),
(868,792,l,{
name = hr00;
})
);
},
{
closed = 1;
nodes = (
(1120,0,l),
(1120,792,l),
(600,792,l),
(600,0,l)
);
}
);
width = 1684;
},
{
anchors = (
{
name = cross;
pos = (768,324);
}
);
layerId = "B1F27B51-9973-4381-9301-4FE46FE1CA59";
shapes = (
{
closed = 1;
nodes = (
(357,722,o),
(152,908,o),
(152,1296,cs),
(152,1448,ls),
(152,1810,o),
(332,2010,o),
(660,2010,cs),
(975,2010,o),
(1182,1837,o),
(1196,1564,c),
(1260,1564,l),
(1240,1877,o),
(1007,2076,o),
(660,2076,cs),
(300,2076,o),
(88,1844,o),
(88,1448,cs),
(88,1296,ls),
(88,877,o),
(321,660,o),
(768,662,c),
(792,662,l),
(792,724,l,{
name = hr00;
}),
(780,724,l)
);
},
{
closed = 1;
nodes = (
(804,0,l),
(804,724,l),
(740,724,l),
(740,0,l)
);
}
);
width = 1350;
},
{
anchors = (
{
name = cross;
pos = (764,286);
}
);
layerId = "CD0E3B44-F66A-4791-B84C-A1128DC61275";
shapes = (
{
closed = 1;
nodes = (
(466,752,o),
(388,1024,o),
(388,1268,cs),
(388,1336,ls),
(388,1582,o),
(470,1852,o),
(776,1852,cs),
(974,1852,o),
(1096,1708,o),
(1108,1534,c),
(1374,1534,l),
(1362,1840,o),
(1134,2076,o),
(776,2076,cs),
(324,2076,o),
(106,1732,o),
(106,1336,cs),
(106,1268,ls),
(106,872,o),
(320,528,o),
(776,528,cs),
(840,528,l),
(840,752,l),
(776,752,l)
);
},
{
closed = 1;
nodes = (
(904,0,l),
(904,756,l),
(626,756,l),
(626,0,l)
);
}
);
width = 1480;
}
);
unicode = 661;
userData = {
interface.gridadjust.original = "{'width': 1480, 'leftMargin': 127, 'rightMargin': 88}";
"interface.width-adjustments" = (
-16
);
};
}
